<svg width="40" height="40" viewBox="0 0 40 40" fill="none" xmlns="http://www.w3.org/2000/svg">
<g clip-path="url(#clip0_13137_1856)">
<path d="M0 20C0 8.95431 8.95431 0 20 0C31.0457 0 40 8.95431 40 20C40 31.0457 31.0457 40 20 40C8.95431 40 0 31.0457 0 20Z" fill="#2563EB"/>
<path opacity="0.15" d="M13.936 31.687L19.0369 24.656L26.6954 20.0977L31.1852 12.057L44.5329 24.4962L27.0143 42.7387L13.936 31.687Z" fill="black"/>
<path d="M12.4033 30.0854C12.26 31.3745 13.4058 32.4487 14.6949 32.4487H15.411C16.4852 32.4487 17.4162 31.6609 17.6311 30.6583L18.4188 26.7912C18.6337 25.717 19.5646 25.0009 20.6388 25.0009H20.7821H20.2808C20.2808 25.0009 14.1936 25.0009 12.4033 30.0854Z" fill="white"/>
<path d="M12.4033 30.0854C12.26 31.3745 13.4058 32.4487 14.6949 32.4487H15.411C16.4852 32.4487 17.4162 31.6609 17.6311 30.6583L18.4188 26.7912C18.6337 25.717 19.5646 25.0009 20.6388 25.0009H20.7821H20.2808C20.2808 25.0009 14.1936 25.0009 12.4033 30.0854Z" fill="url(#paint0_linear_13137_1856)"/>
<path d="M32.0258 17.768C31.4529 21.4918 29.0181 23.6401 26.0105 24.5711C24.8647 24.9291 23.6473 25.0723 22.3583 25.0723H20.7112H20.2099C16.7726 25.0723 13.7649 27.1491 12.4043 30.0851C12.4043 30.0135 14.0514 22.3511 14.0514 22.3511C14.2662 21.2769 15.1971 20.5608 16.2713 20.5608H23.146C25.2227 20.5608 26.5117 19.7015 26.7982 17.8396C27.1562 15.9061 26.2253 14.7603 24.2202 14.7603H18.5629C17.2739 14.7603 16.3429 13.6861 16.3429 12.5403C16.3429 12.3971 16.3429 12.2539 16.4145 12.0391C16.6294 10.9649 17.5603 10.2488 18.6345 10.2488H25.2227C28.9465 10.2488 31.3813 11.9675 32.0258 14.8319C32.2407 15.6912 32.2407 16.6938 32.0258 17.768Z" fill="white"/>
<path d="M10.8214 23.5722H8.88742C8.24276 23.5722 7.81299 23.0708 7.81299 22.4261C7.81299 21.8531 8.31439 21.3517 8.88742 21.3517H10.8214C11.4661 21.3517 11.8958 21.8531 11.8958 22.4978C11.9675 23.0708 11.4661 23.5722 10.8214 23.5722Z" fill="#67E8F9"/>
<path d="M22.2109 18.7014H12.3977C11.753 18.7014 11.3232 18.2 11.3232 17.5554C11.3232 16.9107 11.8246 16.4093 12.3977 16.4093H22.2109C22.8555 16.4093 23.2853 16.9107 23.2853 17.5554C23.2853 18.2 22.7839 18.7014 22.2109 18.7014Z" fill="#67E8F9"/>
<path d="M13.6113 13.9739H11.6057C11.0327 13.9739 10.5312 13.4725 10.5312 12.8278C10.5312 12.1832 11.0327 11.6818 11.6057 11.6818H13.6113C14.256 11.6818 14.6857 12.1832 14.6857 12.8278C14.7574 13.4725 14.256 13.9739 13.6113 13.9739Z" fill="#67E8F9"/>
</g>
<defs>
<linearGradient id="paint0_linear_13137_1856" x1="18.8093" y1="23.8715" x2="13.1977" y2="33.207" gradientUnits="userSpaceOnUse">
<stop stop-color="#020617" stop-opacity="0.55"/>
<stop offset="1" stop-color="#020617" stop-opacity="0"/>
</linearGradient>
<clipPath id="clip0_13137_1856">
<path d="M0 20C0 8.95431 8.95431 0 20 0C31.0457 0 40 8.95431 40 20C40 31.0457 31.0457 40 20 40C8.95431 40 0 31.0457 0 20Z" fill="white"/>
</clipPath>
</defs>
</svg>
