<svg width="102" height="16" viewBox="0 0 102 16" fill="none" xmlns="http://www.w3.org/2000/svg">
<path d="M91.9238 15.7583V4.76278H94.7452V6.93773L94.584 6.45441C94.8393 5.79655 95.249 5.31323 95.8133 5.00444C96.391 4.68223 97.0628 4.52112 97.8286 4.52112C98.6616 4.52112 99.3871 4.69565 100.005 5.04472C100.637 5.39378 101.127 5.88382 101.476 6.51482C101.826 7.1324 102 7.85738 102 8.68977V15.7583H98.9773V9.3342C98.9773 8.90458 98.89 8.53537 98.7153 8.22659C98.5541 7.9178 98.319 7.67613 98.01 7.5016C97.7144 7.32707 97.3651 7.2398 96.962 7.2398C96.5724 7.2398 96.2231 7.32707 95.9141 7.5016C95.6051 7.67613 95.3632 7.9178 95.1886 8.22659C95.0273 8.53537 94.9467 8.90458 94.9467 9.3342V15.7583H91.9238Z" fill="#0F172B"/>
<path d="M84.2563 16C83.1681 16 82.1739 15.7516 81.2737 15.2549C80.387 14.7581 79.6749 14.0801 79.1375 13.2209C78.6135 12.3482 78.3516 11.3615 78.3516 10.2606C78.3516 9.14624 78.6135 8.15946 79.1375 7.30022C79.6749 6.44098 80.387 5.76299 81.2737 5.26624C82.1739 4.76949 83.1681 4.52112 84.2563 4.52112C85.3446 4.52112 86.332 4.76949 87.2188 5.26624C88.1055 5.76299 88.8108 6.44098 89.3348 7.30022C89.8722 8.15946 90.1409 9.14624 90.1409 10.2606C90.1409 11.3615 89.8722 12.3482 89.3348 13.2209C88.8108 14.0801 88.1055 14.7581 87.2188 15.2549C86.332 15.7516 85.3446 16 84.2563 16ZM84.2563 13.2813C84.8071 13.2813 85.2841 13.1538 85.6872 12.8987C86.1036 12.6436 86.4261 12.2878 86.6545 11.8314C86.8963 11.3749 87.0172 10.8513 87.0172 10.2606C87.0172 9.66984 86.8963 9.15295 86.6545 8.70991C86.4261 8.25344 86.1036 7.89766 85.6872 7.64257C85.2841 7.37406 84.8071 7.2398 84.2563 7.2398C83.7055 7.2398 83.2218 7.37406 82.8053 7.64257C82.3888 7.89766 82.0597 8.25344 81.8178 8.70991C81.5894 9.15295 81.4752 9.66984 81.4752 10.2606C81.4752 10.8513 81.5894 11.3749 81.8178 11.8314C82.0597 12.2878 82.3888 12.6436 82.8053 12.8987C83.2218 13.1538 83.7055 13.2813 84.2563 13.2813Z" fill="#0F172B"/>
<path d="M73.5605 15.7584V4.76282H76.5835V15.7584H73.5605Z" fill="#0F172B"/>
<path d="M73.2354 1.76274C73.2354 0.789204 74.0246 0 74.9981 0C75.9716 0 76.7608 0.789204 76.7608 1.76274C76.7608 2.73627 75.9716 3.52547 74.9981 3.52547C74.0246 3.52547 73.2354 2.73627 73.2354 1.76274Z" fill="#0F172B"/>
<path d="M70.3769 15.8793C69.0468 15.8793 68.0123 15.5235 67.2734 14.812C66.5479 14.087 66.1851 13.0801 66.1851 11.7912V7.3809H64.3311V4.76291H64.4318C64.9961 4.76291 65.426 4.62194 65.7216 4.34C66.0306 4.05807 66.1851 3.63516 66.1851 3.07128V2.26575H69.208V4.76291H71.7876V7.3809H69.208V11.5898C69.208 11.9657 69.2752 12.2812 69.4095 12.5363C69.5439 12.778 69.7521 12.9592 70.0343 13.0801C70.3164 13.2009 70.6657 13.2613 71.0822 13.2613C71.1763 13.2613 71.2837 13.2546 71.4047 13.2412C71.5256 13.2278 71.6532 13.2143 71.7876 13.2009V15.7585C71.586 15.7853 71.3576 15.8122 71.1024 15.839C70.8471 15.8659 70.6053 15.8793 70.3769 15.8793Z" fill="#0F172B"/>
<path d="M57.6089 16C56.5206 16 55.5264 15.7516 54.6262 15.2549C53.7395 14.7581 53.0275 14.0801 52.4901 13.2209C51.9661 12.3482 51.7041 11.3615 51.7041 10.2606C51.7041 9.14624 51.9661 8.15946 52.4901 7.30022C53.0275 6.44098 53.7395 5.76299 54.6262 5.26624C55.5264 4.76949 56.5206 4.52112 57.6089 4.52112C58.6971 4.52112 59.6846 4.76949 60.5713 5.26624C61.458 5.76299 62.1634 6.44098 62.6873 7.30022C63.2248 8.15946 63.4935 9.14624 63.4935 10.2606C63.4935 11.3615 63.2248 12.3482 62.6873 13.2209C62.1634 14.0801 61.458 14.7581 60.5713 15.2549C59.6846 15.7516 58.6971 16 57.6089 16ZM57.6089 13.2813C58.1597 13.2813 58.6366 13.1538 59.0397 12.8987C59.4562 12.6436 59.7786 12.2878 60.007 11.8314C60.2489 11.3749 60.3698 10.8513 60.3698 10.2606C60.3698 9.66984 60.2489 9.15295 60.007 8.70991C59.7786 8.25344 59.4562 7.89766 59.0397 7.64257C58.6366 7.37406 58.1597 7.2398 57.6089 7.2398C57.058 7.2398 56.5743 7.37406 56.1579 7.64257C55.7414 7.89766 55.4122 8.25344 55.1704 8.70991C54.942 9.15295 54.8278 9.66984 54.8278 10.2606C54.8278 10.8513 54.942 11.3749 55.1704 11.8314C55.4122 12.2878 55.7414 12.6436 56.1579 12.8987C56.5743 13.1538 57.058 13.2813 57.6089 13.2813Z" fill="#0F172B"/>
<path d="M33.9883 15.7582V0.755127H37.0112L42.6338 8.20634H41.2231L46.6845 0.755127H49.7074V15.7582H46.5837V5.72931L42.0494 11.9319H41.6463L37.112 5.75942V15.7582H33.9883Z" fill="#0F172B"/>
<path d="M26.101 16C25.0128 16 24.0186 15.7516 23.1184 15.2549C22.2317 14.7581 21.5197 14.0801 20.9822 13.2209C20.4583 12.3482 20.1963 11.3615 20.1963 10.2606C20.1963 9.14624 20.4583 8.15946 20.9822 7.30022C21.5197 6.44098 22.2317 5.76299 23.1184 5.26624C24.0186 4.76949 25.0128 4.52112 26.101 4.52112C27.1893 4.52112 28.1768 4.76949 29.0635 5.26624C29.9502 5.76299 30.6556 6.44098 31.1795 7.30022C31.7169 8.15946 31.9856 9.14624 31.9856 10.2606C31.9856 11.3615 31.7169 12.3482 31.1795 13.2209C30.6556 14.0801 29.9502 14.7581 29.0635 15.2549C28.1768 15.7516 27.1893 16 26.101 16ZM26.101 13.2813C26.6519 13.2813 27.1288 13.1538 27.5319 12.8987C27.9484 12.6436 28.2708 12.2878 28.4992 11.8314C28.741 11.3749 28.862 10.8513 28.862 10.2606C28.862 9.66984 28.741 9.15295 28.4992 8.70991C28.2708 8.25344 27.9484 7.89766 27.5319 7.64257C27.1288 7.37406 26.6519 7.2398 26.101 7.2398C25.5502 7.2398 25.0665 7.37406 24.65 7.64257C24.2336 7.89766 23.9044 8.25344 23.6626 8.70991C23.4342 9.15295 23.32 9.66984 23.32 10.2606C23.32 10.8513 23.4342 11.3749 23.6626 11.8314C23.9044 12.2878 24.2336 12.6436 24.65 12.8987C25.0665 13.1538 25.5502 13.2813 26.101 13.2813Z" fill="#0F172B"/>
<path d="M12.8682 15.7584V4.7628H15.6895V7.40093L15.488 7.0183C15.7299 6.09193 16.1262 5.46764 16.677 5.14543C17.2413 4.80979 17.9063 4.64197 18.6722 4.64197H19.317V7.25996H18.3699C17.6309 7.25996 17.0331 7.4882 16.5763 7.94467C16.1195 8.38771 15.8911 9.01871 15.8911 9.83768V15.7584H12.8682Z" fill="#0F172B"/>
<path d="M0 15.7582V0.755127H5.76368C6.79819 0.755127 7.71178 0.936373 8.50445 1.29886C9.31056 1.66136 9.94202 2.19838 10.3988 2.90994C10.8556 3.62149 11.084 4.50087 11.084 5.54807C11.084 6.56841 10.8489 7.43436 10.3787 8.14592C9.92187 8.85748 9.29041 9.40121 8.4843 9.77713C7.69163 10.1396 6.78475 10.3209 5.76368 10.3209H3.12367V15.7582H0ZM3.12367 7.60218H5.78384C6.2272 7.60218 6.6101 7.51492 6.93254 7.34038C7.25499 7.16585 7.50354 6.92419 7.67819 6.6154C7.86629 6.30661 7.96033 5.95083 7.96033 5.54807C7.96033 5.13187 7.86629 4.76938 7.67819 4.46059C7.50354 4.1518 7.25499 3.91014 6.93254 3.73561C6.6101 3.56108 6.2272 3.47381 5.78384 3.47381H3.12367V7.60218Z" fill="#0F172B"/>
</svg>
