<svg width="99" height="20" version="1.1" id="Layer_1" xmlns="http://www.w3.org/2000/svg" xmlns:xlink="http://www.w3.org/1999/xlink" x="0px" y="0px" viewBox="0 0 99 20" style="enable-background:new 0 0 99 20;" xml:space="preserve">
<path fill="#A8A3B9" d="M38.3,9c-1.3,0-1.6,0.7-1.6,1.6v0.5H40v-0.5C40,9.8,39.7,9,38.3,9z M13.5,15.4c0,0.7,0.3,1.1,1.1,1.1
	c0.8,0,1.3-0.3,1.9-0.5v-1.4h-1.8C13.9,14.5,13.5,14.7,13.5,15.4z M63.6,9.4c-1.3,0-1.8,0.7-1.8,1.6v3.3c0,0.9,0.5,1.6,1.8,1.6
	c1.3,0,1.8-0.7,1.8-1.6V11C65.5,10.1,65,9.4,63.6,9.4z M6.9,19.1H3V9.6H1V6.3h2v-2C3,1.6,4.1,0,7.2,0h2.6v3.3H8.2
	C7,3.3,6.9,3.8,6.9,4.6l0,1.6h3L9.5,9.6H6.9V19.1z M20.4,19.1h-3.3L17,18.3c-1.5,0.8-2.8,1-3.7,1c-2.4,0-3.7-1.6-3.7-3.8
	c0-2.6,1.5-3.6,4.2-3.6h2.7v-0.6c0-1.3-0.2-1.7-2.2-1.7h-3.4l0.3-3.3h3.7c4.5,0,5.5,1.4,5.5,5.1V19.1z M31.6,9.8
	c-2-0.4-2.6-0.4-3.6-0.4c-1.8,0-2.3,0.4-2.3,1.9v2.8c0,1.5,0.5,1.9,2.3,1.9c1,0,1.6-0.1,3.6-0.4v3.2c-1.8,0.4-3,0.5-3.9,0.5
	c-4.2,0-5.9-2.2-5.9-5.4v-2.3c0-3.2,1.7-5.5,5.9-5.5c1,0,2.2,0.1,3.9,0.5V9.8z M55.4,9.8c-2-0.4-2.6-0.4-3.6-0.4
	c-1.8,0-2.3,0.4-2.3,1.9v2.8c0,1.5,0.5,1.9,2.3,1.9c1,0,1.6-0.1,3.6-0.4v3.2c-1.8,0.4-3,0.5-3.9,0.5c-4.2,0-5.9-2.2-5.9-5.4v-2.3
	c0-3.2,1.7-5.5,5.9-5.5c1,0,2.2,0.1,3.9,0.5V9.8z M43.9,13.8h-7.2v0.3c0,1.5,0.5,1.9,2.3,1.9c1.6,0,2.6-0.1,4.6-0.4v3.2
	c-2,0.4-3,0.5-4.9,0.5c-4.2,0-5.9-2.2-5.9-5.4v-2.6c0-2.8,1.3-5.1,5.6-5.1s5.6,2.3,5.6,5.1V13.8z M69.4,14c0,2.7-1.1,5.3-5.7,5.3
	c-4.6,0-5.8-2.6-5.8-5.3v-2.6c0-2.7,1.1-5.3,5.8-5.3c4.6,0,5.7,2.6,5.7,5.3V14z M82,14c0,2.7-1.1,5.3-5.7,5.3
	c-4.6,0-5.8-2.6-5.8-5.3v-2.6c0-2.7,1.1-5.3,5.8-5.3c4.6,0,5.7,2.6,5.7,5.3V14z M95,19.1h-4.3l-3.6-6v6h-3.9V1l3.9-0.7V12l3.6-5.7
	H95l-3.9,6.3L95,19.1z M76.3,9.4c-1.3,0-1.8,0.7-1.8,1.6v3.3c0,0.9,0.5,1.6,1.8,1.6c1.3,0,1.8-0.7,1.8-1.6V11
	C78.1,10.1,77.6,9.4,76.3,9.4z M97.3,16.9c0.7,0,1.2,0.5,1.2,1.2c0,0.7-0.5,1.2-1.2,1.2c-0.7,0-1.2-0.5-1.2-1.2
	C96.1,17.4,96.6,16.9,97.3,16.9L97.3,16.9z M97.3,17c-0.5,0-1,0.5-1,1c0,0.6,0.4,1,1,1c0.5,0,1-0.5,1-1S97.8,17,97.3,17L97.3,17z
	 M97,18.8h-0.2v-1.4c0.1,0,0.2,0,0.4,0c0.2,0,0.3,0,0.4,0.1c0.1,0.1,0.1,0.2,0.1,0.3c0,0.2-0.1,0.3-0.3,0.3v0c0.1,0,0.2,0.1,0.2,0.3
	c0,0.2,0.1,0.3,0.1,0.3h-0.2c0,0-0.1-0.2-0.1-0.3c0-0.2-0.1-0.2-0.3-0.2H97L97,18.8L97,18.8z M97,18h0.2c0.2,0,0.3-0.1,0.3-0.2
	c0-0.1-0.1-0.2-0.3-0.2c-0.1,0-0.1,0-0.2,0V18z"/>
</svg>
