<svg width="140" height="24" version="1.1" id="Layer_1" xmlns="http://www.w3.org/2000/svg" xmlns:xlink="http://www.w3.org/1999/xlink" x="0px" y="0px" viewBox="0 0 140 24" style="enable-background:new 0 0 140 24;" xml:space="preserve">
<g>
	<g class="st0">
		<path fill="#A8A3B9" d="M11.8,24v-4.7c4.9,0,8.6-4.9,6.7-10c-0.3-1-0.9-1.8-1.6-2.5c-0.7-0.7-1.6-1.3-2.5-1.6
			c-1.1-0.4-2.3-0.6-3.4-0.4C9.8,4.8,8.7,5.3,7.7,5.9C6.8,6.6,6,7.5,5.4,8.6c-0.5,1-0.8,2.2-0.8,3.4H0C0,4.2,7.4-2,15.6,0.6
			c1.7,0.6,3.3,1.5,4.6,2.9c1.3,1.3,2.3,2.9,2.8,4.7C25.5,16.4,19.5,24,11.8,24z"/>
		<path fill="#A8A3B9" d="M11.8,19.3H7.2v-4.6h4.6V19.3z M3.8,19.3H0.8v-3h2.9V19.3z M42,7c-1.3-0.9-3.1-1.4-5-1.4h-4.2v13.8h4.2
			c1.9,0,3.6-0.5,5-1.5c0.8-0.6,1.4-1.3,1.7-2.2c0.4-0.9,0.6-2.1,0.6-3.3s-0.2-2.3-0.6-3.2C43.3,8.2,42.7,7.4,42,7z M35.2,7.9h1.3
			c1.5,0,2.7,0.3,3.7,0.9c1,0.6,1.5,1.8,1.5,3.6s-0.6,3-1.5,3.7c-0.9,0.6-2.1,0.9-3.6,0.9h-1.4V7.9z M47.3,5.3c-0.2,0-0.4,0-0.6,0.1
			c-0.2,0.1-0.3,0.2-0.5,0.3C46.1,5.9,46,6,45.9,6.2c-0.1,0.2-0.1,0.4-0.1,0.6c0,0.4,0.2,0.8,0.4,1c0.3,0.3,0.6,0.4,1,0.4
			s0.8-0.2,1-0.4c0.3-0.3,0.4-0.7,0.4-1c0-0.2,0-0.4-0.1-0.6c-0.1-0.2-0.2-0.3-0.3-0.5C48.1,5.5,47.7,5.3,47.3,5.3L47.3,5.3z
			 M46.1,9.6h2.4v9.7h-2.4L46.1,9.6L46.1,9.6z M57.2,10.4c-0.7-0.6-1.5-1.1-2.4-1.1c-0.6,0-1.2,0.1-1.8,0.4
			c-0.6,0.2-1.1,0.6-1.5,1.1c-0.9,0.9-1.3,2.2-1.3,3.5c0,1.3,0.4,2.5,1.3,3.5c0.8,0.9,1.9,1.3,3.3,1.3c0.9,0,1.7-0.3,2.4-0.8v0.2
			c0,0.8-0.2,1.4-0.6,1.8c-0.4,0.4-1,0.6-1.7,0.6c-1.1,0-1.8-0.4-2.6-1.6L50.4,21l0.1,0.1c0.3,0.5,0.9,1,1.6,1.5
			c0.7,0.5,1.6,0.7,2.6,0.7c1.5,0,2.6-0.4,3.4-1.3c0.8-0.9,1.3-2.1,1.3-3.5V9.6h-2.4v0.9H57.2L57.2,10.4z M56.6,16.1
			c-0.4,0.5-1,0.7-1.7,0.7c-0.7,0-1.3-0.2-1.7-0.7c-0.4-0.5-0.6-1.1-0.6-1.9s0.2-1.4,0.6-1.9s1-0.7,1.7-0.7c0.7,0,1.3,0.2,1.7,0.7
			c0.4,0.5,0.6,1.1,0.6,1.9C57.2,15,57,15.7,56.6,16.1L56.6,16.1z M61.7,9.6h2.4v9.7h-2.5L61.7,9.6L61.7,9.6z M62.8,5.3
			c-0.2,0-0.4,0-0.6,0.1c-0.2,0.1-0.3,0.2-0.5,0.3c-0.1,0.1-0.2,0.3-0.3,0.5c-0.1,0.2-0.1,0.4-0.1,0.6c0,0.4,0.2,0.8,0.4,1
			c0.3,0.3,0.6,0.4,1,0.4s0.8-0.2,1-0.4c0.3-0.3,0.4-0.7,0.4-1c0-0.2,0-0.4-0.1-0.6c-0.1-0.2-0.2-0.3-0.3-0.5
			c-0.1-0.1-0.3-0.2-0.5-0.3C63.2,5.4,63,5.3,62.8,5.3L62.8,5.3z M82.3,9.6h2.4v9.7h-2.5L82.3,9.6L82.3,9.6z M83.5,5.3
			c-0.2,0-0.4,0-0.6,0.1c-0.2,0.1-0.3,0.2-0.5,0.3c-0.1,0.1-0.2,0.3-0.3,0.5C82.1,6.4,82,6.6,82,6.8c0,0.4,0.2,0.8,0.4,1
			c0.3,0.3,0.6,0.4,1,0.4c0.4,0,0.8-0.2,1-0.4c0.3-0.3,0.4-0.7,0.4-1c0-0.2,0-0.4-0.1-0.6c-0.1-0.2-0.2-0.3-0.3-0.5
			c-0.1-0.1-0.3-0.2-0.5-0.3C83.9,5.4,83.7,5.3,83.5,5.3L83.5,5.3z M69.3,7h-2.4v2.6h-1.4v2.2h1.4v4c0,1.3,0.3,2.2,0.8,2.7
			c0.5,0.5,1.4,0.8,2.6,0.8c0.4,0,0.8,0,1.2-0.1h0.1V17l-0.8,0.1c-0.6,0-1-0.1-1.1-0.3c-0.2-0.2-0.3-0.6-0.3-1.3v-3.7h2.2V9.6h-2.2
			L69.3,7z M109.5,15.9c-0.4,0.4-0.8,0.8-1.2,1.1c-0.4,0.2-0.8,0.4-1.3,0.4c-0.3,0-0.6-0.1-0.9-0.2c-0.3-0.1-0.6-0.3-0.8-0.6
			c-0.5-0.6-0.7-1.2-0.7-2.1s0.2-1.5,0.7-2.1c0.2-0.3,0.5-0.5,0.8-0.6c0.3-0.1,0.6-0.2,1-0.2c0.8,0,1.6,0.5,2.3,1.3l1.6-1.6
			c-1-1.3-2.4-2-4-2c-1.3,0-2.4,0.5-3.4,1.5c-0.9,1-1.4,2.3-1.4,3.6c0,1.4,0.5,2.7,1.4,3.6c0.4,0.5,1,0.9,1.5,1.1
			c0.6,0.3,1.2,0.4,1.9,0.4c1.7,0,3.1-0.8,4.1-2.2L109.5,15.9L109.5,15.9z M118.9,15.9c-0.4,0.4-0.8,0.8-1.2,1.1
			c-0.4,0.2-0.8,0.4-1.3,0.4c-0.3,0-0.6-0.1-0.9-0.2c-0.3-0.1-0.6-0.3-0.8-0.6c-0.5-0.6-0.7-1.2-0.7-2.1s0.2-1.5,0.7-2.1
			c0.2-0.3,0.5-0.5,0.8-0.6c0.3-0.1,0.6-0.2,1-0.2c0.8,0,1.6,0.5,2.3,1.3l1.6-1.6c-1-1.3-2.4-2-4-2c-1.3,0-2.4,0.5-3.4,1.5
			c-0.9,1-1.4,2.3-1.4,3.6c0,1.4,0.5,2.7,1.4,3.6c0.4,0.5,1,0.9,1.5,1.1c0.6,0.3,1.2,0.4,1.9,0.4c1.7,0,3.1-0.8,4.1-2.2L118.9,15.9
			L118.9,15.9z M128.6,10.3c-0.7-0.6-1.7-0.9-3-0.9c-0.8,0-1.5,0.2-2.2,0.5c-0.6,0.4-1.3,0.9-1.6,1.6l1.5,1.5
			c0.6-1.1,1.3-1.4,2.3-1.4c0.5,0,0.9,0.1,1.3,0.4c0.2,0.1,0.3,0.3,0.4,0.5c0.1,0.2,0.1,0.4,0.1,0.6v0.5c-0.6-0.2-1.1-0.3-1.7-0.3
			c-1.2,0-2.2,0.3-2.9,0.9c-0.8,0.6-1.1,1.4-1.1,2.4c0,0.9,0.3,1.6,0.9,2.2c0.6,0.6,1.4,0.8,2.3,0.8c0.9,0,1.7-0.4,2.6-1v0.8h2.4V13
			C129.7,11.9,129.4,11,128.6,10.3L128.6,10.3z M124.3,15.6c0.3-0.2,0.6-0.3,1.1-0.3c0.6,0,1.2,0.1,1.8,0.4v0.9
			c-0.6,0.5-1.3,0.8-2.1,0.8c-0.4,0-0.8-0.1-1-0.3c-0.2-0.2-0.3-0.4-0.3-0.7c0-0.2,0.1-0.3,0.2-0.4
			C124.1,15.8,124.2,15.7,124.3,15.6L124.3,15.6z M139,10.5c-0.7-0.8-1.6-1.1-2.8-1.1c-1,0-1.7,0.3-2.3,0.9V9.6h-2.4v9.7h2.4V14
			c0-0.7,0.1-1.3,0.5-1.8c0.2-0.2,0.4-0.4,0.6-0.5s0.5-0.2,0.8-0.2c0.2,0,0.5,0,0.7,0.1c0.2,0.1,0.4,0.2,0.6,0.4
			c0.3,0.5,0.5,1,0.5,1.6v5.7h2.4v-5.7C139.9,12.3,139.6,11.3,139,10.5z M79.8,10.3c-0.7-0.6-1.7-0.9-3-0.9c-0.8,0-1.5,0.2-2.2,0.5
			c-0.6,0.4-1.3,0.9-1.6,1.6l1.5,1.5c0.6-1.1,1.3-1.4,2.3-1.4c0.5,0,0.9,0.1,1.3,0.4c0.2,0.1,0.3,0.3,0.4,0.5
			c0.1,0.2,0.1,0.4,0.1,0.6v0.5c-0.6-0.2-1.1-0.3-1.7-0.3c-1.2,0-2.2,0.3-2.9,0.9c-0.8,0.6-1.1,1.4-1.1,2.4c0,0.9,0.3,1.6,0.9,2.2
			c0.6,0.6,1.4,0.8,2.3,0.8s1.7-0.4,2.6-1v0.8h2.4V13C80.9,11.9,80.5,11,79.8,10.3L79.8,10.3z M75.5,15.6c0.3-0.2,0.6-0.3,1.1-0.3
			c0.6,0,1.2,0.1,1.8,0.4v0.9c-0.6,0.5-1.3,0.8-2.1,0.8c-0.4,0-0.8-0.1-1-0.3c-0.2-0.2-0.3-0.4-0.3-0.7
			C75.1,16.1,75.3,15.8,75.5,15.6L75.5,15.6z M93.9,19.5c-1.4,0-2.7-0.4-3.9-1.2c-1.1-0.8-2-1.9-2.6-3.2c-0.5-1.3-0.7-2.7-0.4-4.1
			C87.4,9.7,88,8.5,89,7.5c1-1,2.2-1.7,3.6-1.9c1.4-0.3,2.8-0.1,4,0.4c1.3,0.5,2.4,1.4,3.1,2.6c0.8,1.2,1.2,2.5,1.2,3.9
			c0,1.9-0.7,3.7-2,5C97.6,18.8,95.8,19.5,93.9,19.5z M93.9,7.8c-0.9,0-1.8,0.3-2.5,0.8c-0.7,0.5-1.3,1.2-1.7,2.1
			c-0.3,0.8-0.4,1.8-0.3,2.7c0.2,0.9,0.6,1.7,1.2,2.4c0.6,0.6,1.4,1.1,2.3,1.3c0.9,0.2,1.8,0.1,2.6-0.3c0.8-0.3,1.5-0.9,2-1.7
			c0.5-0.8,0.8-1.6,0.8-2.6c0-0.6-0.1-1.2-0.3-1.8c-0.2-0.6-0.6-1.1-1-1.5c-0.4-0.4-0.9-0.8-1.5-1C95.1,7.9,94.5,7.8,93.9,7.8"/>
	</g>
</g>
</svg>
