<svg width="120" height="31" version="1.1" id="Layer_1" xmlns="http://www.w3.org/2000/svg" xmlns:xlink="http://www.w3.org/1999/xlink" x="0px" y="0px" viewBox="0 0 120 31" style="enable-background:new 0 0 120 31;" xml:space="preserve">
<path fill="#A8A3B9" d="M6.8,9.7c0-0.4,0-0.7-0.1-0.9C6.6,8.6,6.4,8.3,6.1,8V7.8c1.1-0.7,2.6-1,4.3-1c0.7,0,1.2,0.1,1.5,0.2
	C12,7.1,12,7.6,12,8.3s-0.5,3.1-1.6,7.3c0.5,0.2,1,0.3,1.6,0.3c1,0,1.9-0.4,2.5-1.1c0.7-0.7,1.1-1.5,1.3-2.3
	c0.2-0.8,0.3-1.7,0.3-2.7c0-1.7-0.5-3-1.4-3.7S12.5,5,10.4,5C7.8,5,5.5,5.5,3.8,6.6C2,7.7,1.1,8.8,1.1,10c0,0.6,0.2,1.1,0.7,1.5
	s0.9,0.6,1.4,0.8c-0.1,0.8-0.4,1.6-0.8,2.4c-0.8-0.1-1.6-0.5-2.3-1.3s-1.1-1.8-1.1-3c0-2.2,1.2-4,3.7-5.3S8,3,11.3,3
	s5.7,0.5,7.4,1.6s2.5,2.8,2.5,5.1c0,3-1.2,5.3-3.6,6.8c-1.3,0.8-2.8,1.3-4.6,1.3c-1.1,0-2.1-0.2-2.9-0.5C9.2,21,8.6,24,8.5,26.2
	c-1.3,0.4-2.7,0.6-4.2,0.6c-0.4,0-0.6,0-0.8-0.1c0.1-1.4,0.7-4.2,1.8-8.5C6.3,13.8,6.8,11,6.8,9.7z M28.4,14.2
	c0,0.9-0.3,2.5-0.9,4.7s-0.9,3.7-0.9,4.4c0,0.7,0.1,1,0.3,1c0.1,0,0.6-0.2,1.5-0.6l0.4-0.2l0.5,1.1c-0.2,0.2-0.5,0.4-0.8,0.6
	c-0.3,0.3-0.9,0.6-1.8,1.1C25.8,26.7,25,27,24.2,27s-1.3-0.2-1.8-0.7S22,25.2,22,24.4c0-0.8,0.3-2.2,0.8-4.2s0.8-3.4,0.8-4
	c0-0.9-0.3-1.8-0.8-2.6l-0.3-0.4v-0.4c1.1-0.3,3-0.5,5.6-0.5C28.3,12.7,28.4,13.3,28.4,14.2z M24.8,8.8c-0.4-0.4-0.6-1-0.6-1.7
	s0.3-1.3,0.9-1.9c0.6-0.5,1.3-0.8,2-0.8c0.8,0,1.4,0.2,1.8,0.6s0.6,1,0.6,1.7S29.2,8,28.6,8.6c-0.6,0.5-1.3,0.8-2,0.8
	C25.8,9.4,25.2,9.2,24.8,8.8z M31.4,26.7h-0.6c0-1,0.3-3,0.9-5.9s0.9-4.5,0.9-4.9c0-0.7-0.3-1.5-0.9-2.3l-0.3-0.4v-0.4
	c1.2-0.3,3-0.5,5.6-0.5c0.3,0.4,0.4,1,0.5,2c1.9-1.5,3.5-2.2,4.7-2.2c0.8,0,1.4,0.3,1.9,0.8s0.7,1.2,0.7,2s-0.2,2.2-0.7,4.2
	s-0.7,3.3-0.7,4s0.1,1,0.3,1c0.1,0,0.6-0.2,1.4-0.6l0.4-0.2l0.6,1.1c-0.2,0.2-0.5,0.4-0.8,0.6c-0.3,0.3-0.9,0.6-1.8,1.1
	c-1,0.7-1.8,0.9-2.5,0.9c-1.6,0-2.4-0.9-2.4-2.7c0-0.8,0.2-2.2,0.7-4.2s0.7-3.4,0.7-3.9c0-0.6-0.2-0.9-0.5-0.9
	c-0.6,0-1.4,0.3-2.3,0.8c-0.1,0.4-0.3,1.3-0.6,2.9c-0.8,3.4-1.1,5.8-1.1,7.2C34.7,26.6,33.4,26.7,31.4,26.7z M54.4,13.8
	c-0.9,0-1.6,0.7-2.1,2.2c-0.5,1.4-0.8,3-0.8,4.6c0,2.6,0.8,3.9,2.4,3.9c0.5,0,1.1-0.1,1.6-0.4c0.6-0.2,1-0.5,1.4-0.7l0.5-0.4l0.7,1
	c-0.2,0.2-0.5,0.6-1,0.9c-0.5,0.4-1,0.7-1.5,1s-1,0.5-1.7,0.7s-1.4,0.3-2.1,0.3c-1.7,0-2.9-0.6-3.8-1.7c-0.8-1.1-1.3-2.6-1.3-4.5
	c0-2.6,0.7-4.7,2.1-6.3c1.4-1.6,3.2-2.4,5.4-2.4c1.4,0,2.6,0.3,3.4,1c0.9,0.7,1.3,1.5,1.3,2.4c0,1-0.3,1.8-0.9,2.5
	c-0.5,0-1.2-0.1-1.9-0.4s-1.2-0.5-1.6-0.9l0.5-2.9C55,13.9,54.7,13.8,54.4,13.8z M64.3,27c-1.5,0-2.6-0.5-3.5-1.6
	c-0.8-1.1-1.3-2.5-1.3-4.4c0-2.4,0.6-4.5,1.9-6.2c1.3-1.7,3-2.6,5.3-2.6l1.2,0.1c0.4-0.2,0.8-0.3,1.2-0.3c1.7,0,2.5,1.6,2.5,4.9
	c0.9,0,1.8-0.2,2.7-0.4l0.5-0.1l0.2,1.3c-0.7,0.3-1.7,0.6-2.9,0.8l-0.6,0.1c-0.4,2.3-1.2,4.3-2.5,5.9C67.8,26.2,66.2,27,64.3,27z
	 M66,24.2c0.9,0,1.7-0.6,2.4-1.8c0.7-1.2,1.2-2.4,1.5-3.7c-2.3,0-3.5-0.9-3.5-2.6c0-0.7,0.1-1.3,0.4-2l0.2-0.3
	c-0.1,0-0.2-0.1-0.3-0.1c-0.1,0-0.2,0-0.3,0.1c-0.5,0.3-1,1.2-1.5,2.4c-0.5,1.3-0.7,2.7-0.7,4.4C64.2,23,64.8,24.2,66,24.2z
	 M73.1,26.7h-0.2c0-0.2-0.1-0.6-0.1-1.2s0.3-2.3,0.9-5s0.9-4.3,0.9-4.7c0-0.7-0.3-1.4-0.9-2.2l-0.3-0.4v-0.4c1.2-0.3,3-0.5,5.6-0.5
	c0.3,0.6,0.4,1.4,0.4,2.4c0.2-0.4,0.7-0.9,1.5-1.6c0.8-0.6,1.5-1,2.3-1c1.2,0,1.7,1,1.7,3.1c-0.1,0.1-0.3,0.3-0.4,0.5
	c-0.2,0.2-0.5,0.5-1.1,0.9c-0.5,0.4-1.1,0.6-1.6,0.7c0,0-0.2-0.3-0.5-0.9s-0.6-0.9-0.8-0.9c-0.5,0.2-1,0.5-1.4,1
	c-1,4.5-1.5,7.4-1.5,8.7c0,0.5,0,0.8,0,1C76.9,26.6,75.4,26.7,73.1,26.7z M84.1,21c0-2.7,0.8-4.9,2.4-6.4c1.6-1.6,3.5-2.4,5.5-2.4
	c1.3,0,2.3,0.3,3.1,0.9c0.8,0.6,1.2,1.5,1.2,2.5s-0.3,1.9-0.8,2.7C95,19,94.3,19.6,93.6,20c-1.5,0.8-2.9,1.2-4.2,1.4l-0.8,0.1
	c0.2,2,1,3.1,2.5,3.1c0.5,0,1.1-0.1,1.6-0.4c0.6-0.3,1-0.5,1.4-0.8l0.5-0.4l0.8,1c-0.2,0.2-0.5,0.6-1,0.9s-1,0.7-1.5,1
	c-1.2,0.7-2.6,1-4.1,1s-2.7-0.5-3.5-1.6C84.5,24.3,84.1,22.9,84.1,21z M91.3,18.5c0.6-0.7,1-1.7,1-2.9s-0.3-1.8-1-1.8
	c-0.8,0-1.4,0.7-1.9,2.1c-0.4,1.4-0.7,2.7-0.7,3.9C89.8,19.7,90.7,19.2,91.3,18.5z M107.4,22.3c0,1.4-0.6,2.5-1.8,3.4
	c-1.2,0.9-2.6,1.3-4.1,1.3s-2.7-0.3-3.6-1c-0.9-0.6-1.3-1.2-1.3-1.7c0-0.3,0.4-0.8,1.1-1.5c0.8-0.7,1.4-1.1,1.9-1.3
	c1.1,0.8,2,2.1,2.6,3.8c0.8-0.1,1.2-0.4,1.2-1.1c0-1-0.9-2.4-2.6-4.3c-1.7-1.8-2.6-3.3-2.6-4.4s0.5-1.9,1.5-2.5s2.1-0.9,3.5-0.9
	s2.4,0.2,3.1,0.7s1,1.1,1,2c0,0.8-0.7,2-2,3.5c0.2,0.2,0.3,0.4,0.6,0.6c0.2,0.2,0.5,0.7,0.9,1.4C107.2,21.1,107.4,21.7,107.4,22.3z
	 M105.7,14.9c0-0.8-0.5-1.1-1.6-1.1c-0.5,0-0.9,0.1-1.2,0.3c-0.3,0.2-0.5,0.4-0.5,0.7c0,0.5,0.5,1.1,1.4,2l0.5,0.4
	C105.2,16.4,105.7,15.7,105.7,14.9z M119,12.6c0,0.5-0.2,1.2-0.5,1.9c-0.8-0.1-1.6-0.1-2.3-0.1h-0.6c-1,4.8-1.5,7.9-1.5,9.1
	c0,0.6,0.1,0.9,0.4,0.9s1-0.3,2.1-0.8l0.6,1.1c-1.9,1.6-3.7,2.4-5.3,2.4c-0.8,0-1.4-0.2-1.9-0.7s-0.7-1.1-0.7-1.9s0.1-1.7,0.3-2.7
	c0.2-1,0.4-2.2,0.8-3.7c0.3-1.4,0.6-2.6,0.7-3.5c-0.8,0.1-1.4,0.1-1.8,0.2c0-0.3-0.1-0.6-0.1-1.1c0-0.4,0-0.8,0.1-1.1h2
	c0.2-1.2,0.3-2.3,0.3-3.3v-1V8.1c1.7-0.6,3.3-0.9,4.7-0.9c0.1,0.4,0.1,1,0.1,1.6c0,0.6-0.2,1.9-0.5,3.7L119,12.6L119,12.6L119,12.6z
	"/>
</svg>
