<svg width="91" height="38" version="1.1" id="Layer_1" xmlns="http://www.w3.org/2000/svg" xmlns:xlink="http://www.w3.org/1999/xlink" x="0px" y="0px" viewBox="0 0 91 38" style="enable-background:new 0 0 91 38;" xml:space="preserve">
<style type="text/css">
	.st0{fill:#000;}
</style>
<g id="Stripe">
	<path class="st0" d="M91,18c0-6.7-3.1-12-9.1-12s-9.7,5.3-9.7,12c0,7.9,4.3,11.9,10.5,11.9c3,0,5.3-0.7,7-1.7v-5.3
		c-1.7,0.9-3.7,1.4-6.2,1.4s-4.6-0.9-4.9-4H91C90.9,20,91,18.6,91,18z M78.5,15.5c0-3,1.8-4.2,3.3-4.2c1.6,0,3.2,1.2,3.2,4.2H78.5z"
		/>
	<path class="st0" d="M62.5,6c-2.5,0-4.1,1.2-5,2l-0.3-1.6h-5.6V37h6.3v-8.8c0.9,0.7,2.3,1.7,4.5,1.7c4.5,0,8.6-3.8,8.6-12.1
		C71.1,10.1,66.9,6,62.5,6z M60.9,24.1c-1.5,0-2.4-0.6-3-1.2v-9.7c0.7-0.7,1.6-1.3,3-1.3c2.3,0,3.9,2.7,3.9,6.1S63.3,24.1,60.9,24.1
		z"/>
	<polygon class="st0" points="17.3,4.4 23.6,4.3 23.6,-1 17.3,-0.9 	"/>
	<rect x="17.3" y="6.4" class="st0" width="6.3" height="23"/>
	<path class="st0" d="M32.3,8.4l-0.4-1.9h-5.5v23h6.3V13.8c1.5-2,4-1.6,4.8-1.4v-6C36.8,6.1,33.8,5.5,32.3,8.4z"/>
	<path class="st0" d="M45.4,2.1h-6.2v21c0,3.9,2.8,6.7,6.6,6.7c2.1,0,3.6-0.4,4.4-0.9v-5.3c-0.8,0.3-4.8,1.5-4.8-2.3V12h4.8V6.4
		h-4.8V2.1z"/>
	<path class="st0" d="M6.4,13.1c0-1,0.8-1.4,2.1-1.4c1.9,0,4.4,0.6,6.3,1.7V7.2C12.7,6.3,10.6,6,8.5,6C3.4,6,0,8.8,0,13.4
		c0,7.3,9.6,6.1,9.6,9.2c0,1.2-1,1.6-2.4,1.6c-2.1,0-4.8-0.9-6.9-2.1v6.3c2.3,1,4.7,1.5,6.9,1.5c5.2,0,8.9-2.7,8.9-7.4
		C16,14.6,6.4,16,6.4,13.1z"/>
</g>
</svg>
