<svg width="110" height="30" version="1.1" id="Layer_1" xmlns="http://www.w3.org/2000/svg" xmlns:xlink="http://www.w3.org/1999/xlink" x="0px" y="0px" viewBox="0 0 110 30" style="enable-background:new 0 0 110 30;" xml:space="preserve">
<path fill="#A8A3B9" d="M15.1,27.8c-1.7,0.3-3.3,0.4-5.1,0.6L4.7,12.9v16.2c-1.7,0.2-3.2,0.4-4.7,0.6V0h4.4l6,16.9V0h4.7V27.8z
	 M24.3,10.9c1.8,0,4.6-0.1,6.2-0.1v4.6c-2.1,0-4.5,0-6.2,0.1v6.9c2.7-0.2,5.5-0.4,8.2-0.5v4.5l-12.9,1V0h12.9v4.6h-8.2V10.9z
	 M56.9,10.9c1.8,0,4.6-0.1,6.2-0.1v4.6c-2.1,0-4.5,0-6.2,0.1v6.9c2.7-0.2,5.5-0.4,8.2-0.5v3.7l-12.9,0.6V0h12.9v4.6h-8.2V10.9z
	 M49.8,4.7h-4.8V26c-1.6,0-3.1,0-4.6,0.1V4.7h-4.8V0h14.3L49.8,4.7z M73.3,21.7c2.6,0.1,5.3,0.3,7.9,0.4v4.6
	c-4.2-0.3-8.3-0.5-12.5-0.6V0h4.6V21.7z M85.1,27c1.5,0.1,3,0.2,4.6,0.3V0h-4.6V27z M110,0l-5.9,14.1l5.9,15.6
	c-1.7-0.2-3.5-0.6-5.2-0.8l-3.3-8.6L98,28.2c-1.7-0.3-3.3-0.4-5-0.6L99,14L93.6,0h5l3,7.8l3.3-7.8H110z"/>
</svg>
