<svg width="120" height="34" version="1.1" id="Layer_1" xmlns="http://www.w3.org/2000/svg" xmlns:xlink="http://www.w3.org/1999/xlink" x="0px" y="0px" viewBox="0 0 120 34" style="enable-background:new 0 0 120 34;" xml:space="preserve">
<path fill="#A8A3B9" d="M9.9,24.1H6.7V3.7c-1.3,0.4-2.4,1-3.1,1.9C2.8,6.5,2.5,7.6,2.5,9c0,0.5,0,1,0.1,1.3c0.1,0.4,0.2,0.7,0.3,0.9
	C3,11.6,3.1,11.8,3.3,12s0.3,0.4,0.5,0.5c-1.2,0-2.1-0.3-2.8-0.8s-1-1.5-1-2.8C0,8,0.2,7.1,0.7,6.3s1.1-1.6,2-2.2
	C3.5,3.5,4.4,3,5.5,2.6C6.5,2.2,7.6,2,8.7,2c0.2,0,0.4,0,0.6,0c0.2,0,0.4,0,0.6,0L9.9,24.1L9.9,24.1z M15.6,9.4v2.2
	c0.3-0.5,0.6-1,0.9-1.3s0.6-0.6,0.9-0.7c0.3-0.2,0.6-0.3,0.9-0.3s0.6-0.1,0.8-0.1c0.9,0,1.6,0.2,2.1,0.5s0.9,0.8,1.2,1.3
	c0.3,0.5,0.5,1.1,0.5,1.7c0.1,0.6,0.1,1.2,0.1,1.8c0,0.4,0,0.7,0,1.2c0,0.4,0,0.9-0.1,1.3c0,0.4,0,0.9-0.1,1.3s0,0.8,0,1.2
	c0,0.2,0,0.4,0,0.7c0,0.3,0.1,0.6,0.1,0.8c0.1,0.3,0.2,0.5,0.4,0.7c0.2,0.2,0.4,0.3,0.8,0.3c0.5,0,0.9-0.3,1.2-0.8
	c0.4-0.5,0.7-1.3,0.9-2.4h1.1c0,1.2-0.3,2.2-0.6,2.9S26,23,25.6,23.3c-0.4,0.4-0.7,0.6-1.1,0.7s-0.7,0.2-1,0.2
	c-0.6,0-1.2-0.1-1.6-0.4c-0.4-0.2-0.8-0.6-1.1-1c-0.3-0.4-0.5-0.9-0.6-1.4c-0.1-0.6-0.2-1.1-0.2-1.7c0-0.2,0-0.5,0-1s0-1,0-1.5
	c0-0.6,0-1.1,0-1.6s0-0.8,0-1c0-0.6,0-1.1-0.1-1.6s-0.2-0.7-0.4-1c-0.2-0.2-0.4-0.4-0.6-0.5s-0.5-0.1-0.7-0.1
	c-0.6,0-1.1,0.2-1.6,0.7c-0.4,0.5-0.8,1.3-1.1,2.5V24h-2.9V9.4H15.6z M37.7,18.8c-0.6,0.8-1.2,1.4-1.7,2c-0.6,0.5-1.2,1-1.7,1.4
	c-0.2,0.4-0.5,0.7-0.8,1s-0.7,0.5-1.1,0.6c-0.4,0.2-0.8,0.3-1.1,0.4c-0.4,0.1-0.7,0.1-1,0.1c-0.9,0-1.6-0.1-2.1-0.4
	c-0.6-0.3-1-0.6-1.3-1s-0.6-0.9-0.7-1.4S26,20.5,26,20s0.1-1,0.3-1.3c0.2-0.4,0.5-0.7,0.7-0.8c0.5-1.5,1-2.9,1.5-4.4
	c0.5-1.4,0.8-2.9,1-4.3l3-0.6c0.5,1.9,0.9,3.4,1.2,4.6s0.5,2.2,0.7,3s0.3,1.5,0.4,2.2c0.1,0.6,0.1,1.3,0.1,2
	c0.3-0.2,0.6-0.4,0.9-0.7c0.3-0.2,0.6-0.5,0.9-0.7L37.7,18.8L37.7,18.8L37.7,18.8z M31.6,20c0-0.6,0-1.1-0.1-1.6s-0.2-1-0.3-1.6
	c-0.1-0.6-0.3-1.3-0.5-2.1c-0.2-0.8-0.4-1.9-0.7-3.1c-0.1,1.1-0.4,2.2-0.7,3.2c-0.4,1-0.7,2-1,3.1c0.2,0.1,0.3,0.3,0.5,0.5
	c0.1,0.2,0.2,0.5,0.2,0.8c0,0.4-0.1,0.7-0.3,0.9c-0.2,0.2-0.4,0.3-0.6,0.3c-0.3,0-0.6-0.1-0.8-0.4c0.2,0.7,0.4,1.2,0.8,1.6
	s0.9,0.6,1.6,0.6c0.6,0,1.1-0.2,1.5-0.5C31.4,21.2,31.6,20.7,31.6,20z M39.5,4.9v4.5h2.3v1.1h-2.3v9c0,0.2,0,0.5,0,0.8
	s0.1,0.6,0.2,0.9c0.1,0.3,0.2,0.5,0.4,0.7s0.4,0.3,0.8,0.3c0.5,0,1-0.3,1.5-0.8s0.9-1.3,1.1-2.4h1.1c-0.3,1.2-0.7,2.2-1.1,2.9
	c-0.4,0.7-0.8,1.3-1.2,1.6c-0.4,0.4-0.8,0.6-1.2,0.7s-0.8,0.2-1.1,0.2c-0.7,0-1.3-0.1-1.7-0.4s-0.8-0.6-1.1-1s-0.4-0.9-0.5-1.4
	s-0.1-1-0.1-1.5v-9.6h-1V9.4h1V5.3L39.5,4.9z M54.3,9.4v10c0,0.2,0,0.4,0,0.7c0,0.3,0.1,0.6,0.2,0.9s0.2,0.5,0.4,0.7
	s0.4,0.3,0.7,0.3c1,0,1.7-1.1,2.1-3.2h1.1C58.6,20,58.3,21,58,21.7s-0.7,1.3-1.1,1.6c-0.4,0.4-0.8,0.6-1.1,0.7
	c-0.4,0.1-0.7,0.2-1.1,0.2c-0.5,0-0.8-0.1-1.2-0.2c-0.3-0.2-0.6-0.4-0.8-0.6c-0.2-0.3-0.4-0.6-0.5-0.9s-0.2-0.7-0.3-1.1
	c-0.3,0.8-0.8,1.4-1.4,2c-0.7,0.6-1.5,0.8-2.4,0.8c-0.6,0-1.2-0.1-1.8-0.4c-0.6-0.2-1.1-0.6-1.6-1.2s-0.9-1.2-1.2-2.1
	S43,18.6,43,17.4c0-0.9,0.1-1.8,0.3-2.8s0.5-1.9,1-2.7s1-1.5,1.7-2s1.6-0.8,2.6-0.8c0.2,0,0.5,0,0.7,0.1c0.3,0,0.5,0.1,0.8,0.2
	c0.2,0.1,0.5,0.3,0.7,0.5s0.4,0.4,0.5,0.7V9.2L54.3,9.4L54.3,9.4z M48.8,22c0.3,0,0.6-0.1,0.9-0.3c0.3-0.2,0.6-0.4,0.8-0.7
	c0.2-0.3,0.4-0.6,0.6-1c0.2-0.4,0.2-0.8,0.2-1.3V12c-0.1-0.3-0.3-0.6-0.6-0.9c-0.3-0.3-0.7-0.4-1.1-0.4c-0.6,0-1.2,0.2-1.6,0.6
	c-0.5,0.4-0.8,1-1.1,1.6s-0.5,1.3-0.6,2.1s-0.2,1.5-0.2,2.2c0,1.7,0.2,2.9,0.7,3.6S47.9,22,48.8,22z M68.6,9.4v14.1
	c0.5-0.2,0.9-0.3,1.3-0.5s0.7-0.5,1-0.8s0.5-0.8,0.7-1.3s0.3-1.2,0.4-2h1.1c-0.2,1-0.4,1.9-0.6,2.5c-0.2,0.7-0.5,1.2-0.9,1.6
	s-0.8,0.7-1.3,0.9s-1.1,0.4-1.7,0.6v1.9c0,0.9-0.1,1.7-0.3,2.3c-0.2,0.6-0.5,1.2-0.8,1.6s-0.7,0.7-1.2,0.9c-0.4,0.2-0.9,0.3-1.4,0.3
	c-1,0-1.7-0.3-2.3-0.8c-0.5-0.6-0.8-1.2-0.8-2c0-0.5,0.1-1,0.3-1.4s0.5-0.8,0.9-1.1c0.4-0.3,0.8-0.6,1.2-0.9
	c0.5-0.3,0.9-0.5,1.4-0.7v-2.5c-0.4,0.5-0.8,0.9-1.4,1.3c-0.6,0.3-1.2,0.5-1.9,0.5c-0.6,0-1.2-0.1-1.8-0.3c-0.6-0.2-1.1-0.6-1.6-1.1
	s-0.9-1.2-1.2-2s-0.5-1.8-0.5-3c0-0.9,0.1-1.8,0.3-2.7c0.2-0.9,0.5-1.8,1-2.6c0.5-0.8,1-1.4,1.7-1.9s1.6-0.8,2.6-0.8
	c0.2,0,0.5,0,0.7,0.1c0.3,0,0.5,0.1,0.8,0.2c0.2,0.1,0.5,0.3,0.7,0.5s0.4,0.4,0.5,0.7V9.6L68.6,9.4L68.6,9.4z M63.1,21.4
	c0.3,0,0.6-0.1,0.9-0.2s0.6-0.4,0.8-0.6s0.4-0.6,0.6-1s0.2-0.8,0.2-1.2v-6.3c-0.1-0.3-0.3-0.6-0.6-0.9c-0.3-0.3-0.7-0.4-1.1-0.4
	c-0.6,0-1.2,0.2-1.6,0.6s-0.8,0.9-1.1,1.5s-0.5,1.3-0.6,2s-0.2,1.4-0.2,2.1c0,1.6,0.2,2.7,0.7,3.4S62.2,21.4,63.1,21.4z M64.3,29.9
	c0.5,0,0.9-0.2,1-0.6c0.2-0.4,0.2-0.9,0.2-1.6v-2.1c-1,0.5-1.7,0.9-2.1,1.3c-0.4,0.4-0.6,0.9-0.6,1.5c0,0.5,0.1,0.8,0.4,1.1
	C63.5,29.8,63.9,29.9,64.3,29.9z M71.5,5.1c0-0.5,0.2-1,0.6-1.4s0.8-0.6,1.4-0.6c0.5,0,1,0.2,1.4,0.6s0.6,0.9,0.6,1.4
	c0,0.6-0.2,1-0.6,1.4S74,7.1,73.5,7.1s-1-0.2-1.4-0.6C71.7,6.1,71.5,5.7,71.5,5.1z M74.9,9.4v10c0,0.2,0,0.4,0,0.7
	c0,0.3,0.1,0.6,0.2,0.9s0.2,0.5,0.4,0.7c0.2,0.2,0.4,0.3,0.7,0.3c1,0,1.7-1.1,2.1-3.2h1.1C79.2,20,79,21,78.6,21.7
	c-0.3,0.7-0.7,1.3-1.1,1.6c-0.4,0.4-0.8,0.6-1.1,0.7c-0.4,0.1-0.7,0.2-1.1,0.2c-0.7,0-1.2-0.1-1.7-0.4c-0.4-0.3-0.8-0.6-1-1
	c-0.3-0.4-0.4-0.9-0.5-1.4C72,20.9,72,20.5,72,20V9.4H74.9z M81.3,9.4v2.5c0.2-0.4,0.5-0.7,0.7-1s0.5-0.6,0.7-0.8
	c0.3-0.2,0.6-0.4,0.9-0.6c0.3-0.1,0.7-0.2,1.1-0.2c0.7,0,1.2,0.2,1.5,0.5s0.5,0.8,0.5,1.2c0,0.3,0,0.5-0.1,0.7s-0.2,0.4-0.4,0.5
	c-0.1,0.1-0.3,0.2-0.4,0.2c-0.2,0-0.3,0.1-0.4,0.1c-0.2,0-0.3,0-0.4-0.1s-0.2-0.2-0.3-0.2c-0.1-0.1-0.2-0.2-0.4-0.2
	c-0.1-0.1-0.3-0.1-0.5-0.1c-0.5,0-0.9,0.2-1.3,0.5s-0.8,0.6-1.1,1v10.8h-2.9V9.4H81.3z M93.6,9.2c0.8,0,1.4,0.1,2,0.4
	c0.5,0.2,1,0.6,1.4,1s0.6,0.9,0.8,1.5c0.2,0.6,0.4,1.2,0.5,1.8h0.2c0.8,0,1.6-0.2,2.3-0.5c0.7-0.3,1.3-0.8,1.8-1.3l0.4,0.8
	c-0.4,0.6-1,1.1-1.9,1.6c-0.9,0.4-1.7,0.7-2.6,0.9c0,0.2,0,0.4,0,0.6s0,0.4,0,0.6c0,2.4-0.4,4.3-1.3,5.7c-0.9,1.4-2.1,2.1-3.7,2.1
	c-0.6,0-1.3-0.1-2-0.4c-0.7-0.2-1.2-0.6-1.8-1.2c-0.5-0.6-1-1.3-1.3-2.1c-0.3-0.9-0.5-1.9-0.5-3.2c0-0.9,0.1-1.8,0.3-2.7
	c0.2-1,0.5-1.8,0.9-2.7c0.4-0.8,1-1.5,1.8-2C91.6,9.5,92.5,9.2,93.6,9.2z M93.9,22c1,0,1.8-0.5,2.3-1.5s0.7-2.5,0.7-4.4
	c0-0.1,0-0.2,0-0.4c0-0.1,0-0.2,0-0.4c-0.6,0-1-0.2-1.2-0.4c-0.2-0.2-0.4-0.6-0.4-1.1s0.1-0.8,0.3-1c0.2-0.2,0.5-0.3,0.9-0.3
	c-0.2-0.7-0.5-1.2-0.9-1.5s-0.8-0.4-1.2-0.4c-0.6,0-1.1,0.2-1.5,0.6c-0.4,0.4-0.8,0.9-1,1.6c-0.3,0.6-0.5,1.3-0.6,2.1
	s-0.2,1.5-0.2,2.2c0,1,0.1,1.7,0.3,2.4c0.2,0.6,0.4,1.1,0.7,1.4c0.3,0.4,0.6,0.6,0.9,0.7C93.3,21.9,93.6,22,93.9,22z M103.5,9.4v2
	c0.5-0.9,1-1.5,1.6-1.8s1.1-0.4,1.6-0.4s1,0.1,1.3,0.2c0.4,0.1,0.7,0.3,1,0.6c0.3,0.2,0.5,0.5,0.7,0.8s0.3,0.7,0.5,1
	c0.3-0.6,0.6-1.1,0.9-1.4c0.3-0.3,0.6-0.6,0.9-0.8s0.6-0.3,0.9-0.4c0.3,0,0.5-0.1,0.8-0.1c0.9,0,1.6,0.2,2.1,0.5s0.9,0.8,1.2,1.3
	c0.3,0.5,0.5,1.1,0.5,1.7c0.1,0.6,0.1,1.2,0.1,1.8c0,0.4,0,0.7,0,1.2c0,0.4,0,0.9-0.1,1.3c0,0.4,0,0.9-0.1,1.3s0,0.8,0,1.2
	c0,0.2,0,0.4,0,0.7c0,0.3,0.1,0.6,0.1,0.8c0.1,0.3,0.2,0.5,0.4,0.7c0.2,0.2,0.4,0.3,0.8,0.3c0.5,0,0.9-0.1,1.2-0.3V22
	c0,0.5-0.1,0.9-0.2,1.2c-0.1,0.3-0.3,0.5-0.5,0.7s-0.4,0.3-0.7,0.3s-0.5,0.1-0.7,0.1c-0.6,0-1.2-0.1-1.6-0.4c-0.4-0.2-0.8-0.6-1.1-1
	c-0.3-0.4-0.5-0.9-0.6-1.4c-0.1-0.6-0.2-1.1-0.2-1.7c0-0.2,0-0.5,0-1s0-1,0-1.5c0-0.6,0-1.1,0-1.6s0-0.8,0-1c0-0.6,0-1.1-0.1-1.6
	s-0.2-0.7-0.4-1c-0.2-0.2-0.4-0.4-0.6-0.5s-0.5-0.1-0.7-0.1c-0.6,0-1.1,0.2-1.5,0.7s-0.7,1.3-0.8,2.5v9.4h-2.9v-9.8c0-0.4,0-0.7,0-1
	s-0.1-0.6-0.2-0.9c-0.1-0.3-0.3-0.5-0.5-0.6c-0.2-0.2-0.5-0.2-0.9-0.2c-0.6,0-1.1,0.3-1.4,0.8s-0.6,1.3-0.9,2.4v9.4h-2.9V9.4H103.5z
	"/>
</svg>
