<svg width="120" height="31" version="1.1" id="Layer_1" xmlns="http://www.w3.org/2000/svg" xmlns:xlink="http://www.w3.org/1999/xlink" x="0px" y="0px" viewBox="0 0 120 31" style="enable-background:new 0 0 120 31;" xml:space="preserve">
	<path d="M40.9,19.9V11c0-0.5,0.4-1,1-1c0.5,0,1,0.4,1,1v8.9c0,0.5-0.4,1-1,1C41.4,20.9,40.9,20.4,40.9,19.9z M52.2,20.2l-4.3-6.9
		v6.5c0,0.5-0.4,1-1,1c-0.5,0-1-0.4-1-1v-8.6c0-0.7,0.6-1.3,1.3-1.3h0.1c0.4,0,0.9,0.2,1.1,0.6l4.3,6.8v-6.4c0-0.5,0.4-1,1-1
		c0.5,0,1,0.4,1,1v8.6c0,0.7-0.6,1.3-1.3,1.3C52.9,20.9,52.5,20.6,52.2,20.2z M61.7,11.8V20c0,0.5-0.4,0.9-0.9,0.9h-0.1
		c-0.5,0-0.9-0.4-0.9-0.9v-8.1h-2.3c-0.5,0-0.9-0.4-0.9-0.9s0.4-0.9,0.9-0.9H64c0.5,0,0.9,0.4,0.9,0.9s-0.4,0.9-0.9,0.9H61.7z
		 M66.5,20v-9.1c0-0.5,0.4-0.9,0.9-0.9h6c0.5,0,0.9,0.4,0.9,0.9c0,0.5-0.4,0.9-0.9,0.9h-4.9v2.5h4.2c0.5,0,0.9,0.4,0.9,0.9
		c0,0.5-0.4,0.9-0.9,0.9h-4.2v3h4.9c0.5,0,0.9,0.4,0.9,0.9c0,0.5-0.4,0.9-0.9,0.9h-6C66.9,20.9,66.5,20.5,66.5,20z M82.6,20.3
		l-1.6-3.5h-2.4v3.1c0,0.5-0.4,1-1,1h0c-0.5,0-1-0.4-1-1V11c0-0.5,0.4-1,1-1h3.6c2.6,0,3.8,1.6,3.8,3.4c0,1.5-0.8,2.6-2,3l1.4,3.1
		c0.3,0.7-0.2,1.4-0.9,1.4C83.2,20.9,82.8,20.6,82.6,20.3z M81.3,11.7h-2.6v3.3h2.6c1.1,0,1.8-0.6,1.8-1.6
		C83.1,12.5,82.4,11.7,81.3,11.7z M105.1,19.8c-0.8,0.8-2,1.2-3.1,1.2c-1.2,0-2.3-0.4-3.2-1.2c-1.2-1.2-1.4-2.6-1.4-4.4
		s0.2-3.3,1.4-4.4c0.8-0.8,2-1.2,3.2-1.2c1.2,0,2.3,0.4,3.1,1.2c1.2,1.2,1.4,2.6,1.4,4.4C106.5,17.2,106.3,18.7,105.1,19.8z
		 M103.7,12.3c-0.4-0.4-1.1-0.7-1.7-0.7c-0.6,0-1.3,0.3-1.7,0.7c-0.8,0.8-0.8,2.1-0.8,3.1c0,1,0,2.3,0.8,3.1
		c0.4,0.4,1.1,0.7,1.7,0.7c0.6,0,1.3-0.3,1.7-0.7c0.8-0.8,0.8-2.1,0.8-3.1C104.5,14.4,104.5,13,103.7,12.3z M94.9,19.8
		c-0.8,0.8-2,1.2-3.1,1.2c-1.2,0-2.3-0.4-3.2-1.2c-1.2-1.2-1.4-2.6-1.4-4.4s0.2-3.3,1.4-4.4c0.8-0.8,2-1.2,3.2-1.2
		c1.2,0,2.3,0.4,3.1,1.2c1.2,1.2,1.4,2.6,1.4,4.4C96.3,17.2,96.1,18.7,94.9,19.8z M93.5,12.3c-0.4-0.4-1.1-0.7-1.7-0.7
		c-0.6,0-1.3,0.3-1.7,0.7c-0.8,0.8-0.8,2.1-0.8,3.1c0,1,0,2.3,0.8,3.1c0.4,0.4,1.1,0.7,1.7,0.7c0.6,0,1.3-0.3,1.7-0.7
		c0.8-0.8,0.8-2.1,0.8-3.1C94.3,14.4,94.3,13,93.5,12.3z M118.1,19.9v-6.8l-2.6,7c-0.1,0.4-0.5,0.7-1,0.7s-0.8-0.3-1-0.7l-2.6-7.1
		v6.9c0,0.5-0.4,1-1,1c-0.5,0-1-0.4-1-1v-8.5c0-0.8,0.7-1.5,1.5-1.5h0.1c0.6,0,1.2,0.4,1.4,1l2.5,6.8l2.5-6.8c0.2-0.6,0.8-1,1.4-1
		c0.8,0,1.5,0.7,1.5,1.5v8.5c0,0.5-0.4,1-1,1C118.5,20.9,118.1,20.4,118.1,19.9z M27,0H3.9C1.7,0,0,1.7,0,3.8v23.1
		c0,2.2,1.7,3.9,3.9,3.9H27c2.1,0,3.8-1.7,3.8-3.8V3.9C30.8,1.7,29.1,0,27,0z M19.5,23.4V5.6c0-0.6,0.4-1,1-1c0.6,0,1,0.4,1,1v17.7
		 M14.4,24V5.1c0-0.6,0.4-1,1-1c0.6,0,1,0.4,1,1V24 M9.3,23.4V5.6c0-0.6,0.4-1,1-1c0.6,0,1,0.4,1,1v17.7 M4.1,20.9V7.7
		c0-0.6,0.4-1,1-1s1,0.4,1,1v13.2 M24.7,20.9V7.7c0-0.6,0.4-1,1-1c0.6,0,1,0.4,1,1v13.2"/>
</svg>
