<svg width="110" height="35" version="1.1" id="Layer_1" xmlns="http://www.w3.org/2000/svg" xmlns:xlink="http://www.w3.org/1999/xlink" x="0px" y="0px" viewBox="0 0 110 35" style="enable-background:new 0 0 110 35;" xml:space="preserve">
<path fill="#A8A3B9" class="st0" d="M55,10.6c0,1.2-1,2.2-2.2,2.2c-1.2,0-2.2-1-2.2-2.2c0-1.2,1-2.2,2.2-2.2C54,8.4,55,9.4,55,10.6z M45.8,15.1v0.5
	c0,0-1.1-1.4-3.3-1.4c-3.7,0-6.7,2.9-6.7,6.8c0,3.9,2.9,6.8,6.7,6.8c2.3,0,3.3-1.4,3.3-1.4v0.6c0,0.3,0.2,0.5,0.5,0.5H49V14.6h-2.8
	C46,14.6,45.8,14.9,45.8,15.1z M45.8,23.4c-0.5,0.8-1.5,1.4-2.8,1.4c-2.2,0-3.9-1.4-3.9-3.7c0-2.3,1.7-3.7,3.9-3.7
	c1.2,0,2.3,0.7,2.8,1.4V23.4z M51.1,14.6h3.3v12.9h-3.3V14.6z M61.2,10.6c0,1.2-1,2.2-2.2,2.2c-1.2,0-2.2-1-2.2-2.2
	c0-1.2,1-2.2,2.2-2.2C60.3,8.4,61.2,9.4,61.2,10.6z M57.4,14.6h3.3v12.9h-3.3V14.6z M84.6,14.3c-2.3,0-3.3,1.4-3.3,1.4V8.4h-3.3
	v19.1h2.8c0.3,0,0.5-0.2,0.5-0.5v-0.6c0,0,1.1,1.4,3.3,1.4c3.7,0,6.7-2.9,6.7-6.8S88.3,14.3,84.6,14.3z M84,24.8
	c-1.3,0-2.3-0.7-2.8-1.4v-4.6c0.5-0.7,1.6-1.4,2.8-1.4c2.2,0,3.9,1.4,3.9,3.7S86.2,24.8,84,24.8z M103.9,20v7.7h-3.3v-7.3
	c0-2.1-0.7-3-2.5-3c-1,0-2,0.5-2.7,1.3v9h-3.3V14.7h2.6c0.3,0,0.5,0.2,0.5,0.5v0.5c1-1,2.2-1.4,3.5-1.4c1.4,0,2.6,0.4,3.6,1.2
	C103.5,16.6,103.9,17.8,103.9,20z M70.2,14.3c-2.3,0-3.3,1.4-3.3,1.4V8.4h-3.3v19.1h2.8c0.3,0,0.5-0.2,0.5-0.5v-0.6
	c0,0,1.1,1.4,3.3,1.4c3.7,0,6.7-2.9,6.7-6.8C76.8,17.2,73.9,14.3,70.2,14.3z M69.6,24.8c-1.3,0-2.3-0.7-2.8-1.4v-4.6
	c0.5-0.7,1.6-1.4,2.8-1.4c2.2,0,3.9,1.4,3.9,3.7S71.8,24.8,69.6,24.8z M29.3,33.3l-13-18.7l-13,18.7l13-30.8"/>
</svg>
