<svg width="120" height="29" version="1.1" id="Layer_1" xmlns="http://www.w3.org/2000/svg" xmlns:xlink="http://www.w3.org/1999/xlink" x="0px" y="0px" viewBox="0 0 120 29" style="enable-background:new 0 0 120 29;" xml:space="preserve">
<g>
	<g class="st0">
		<path fill="#7289DA" d="M23.6,11.8c-0.8,0-1.4,0.7-1.4,1.6c0,0.9,0.7,1.6,1.4,1.6c0.8,0,1.4-0.7,1.4-1.6C25,12.5,24.4,11.8,23.6,11.8
			z M18.4,11.8c-0.8,0-1.4,0.7-1.4,1.6c0,0.9,0.7,1.6,1.4,1.6c0.8,0,1.4-0.7,1.4-1.6C19.8,12.5,19.2,11.8,18.4,11.8z"/>
		<path fill="#7289DA" d="M30.5,0h-19C9.8,0,8.5,1.3,8.5,2.9v19c0,1.6,1.3,2.9,2.9,2.9h18.8l-3.4-2.6l1.8,1.7l1.7,1.6l3.1,2.7V2.9
			C33.4,1.3,32.1,0,30.5,0z M17.1,18.4c-3.1-0.1-4.3-2.1-4.3-2.1c0-4.5,2-8.2,2-8.2c2-1.5,6.1-2.1,6.1-2.1l-1.4,1.5l-4.3,1.1
			c0,0,0.3-0.2,0.8-0.4c1.5-0.7,2.7-0.8,3.2-0.9c0.1,0,0.2,0,0.2,0c0.9-0.1,1.8-0.1,2.9,0c1.3,0.2,2.8,0.6,4.3,1.3
			c0,0-4.1-0.9-3.9-1l-1.8-1.7c0,0,4.3,0.6,6.3,2.1c0,0,2,3.7,2,8.2c0,0-1.2,2-4.3,2.1 M26.6,15.6c-0.6,0.4-1.1,0.7-1.6,0.8
			c-0.7,0.3-1.4,0.5-2.1,0.6c-1.4,0.3-2.6,0.2-3.7,0c-0.8-0.2-1.5-0.4-2.1-0.6c-0.3-0.1-0.7-0.3-1-0.5c0,0-0.1,0-0.1-0.1
			c0,0,0,0-0.1,0c-0.3-0.1-0.4-0.2-0.4-0.2 M46.4,6.1h-4.7v9.7l3.1-1.6V9h1.7c1.1,0,1.6,0.5,1.6,1.3v3.9c0,0.8-0.5,1.4-1.6,1.4h-4.8
			v3h4.7c2.5,0,4.9-1.2,4.9-4.1v-4.2C51.3,7.4,48.9,6.1,46.4,6.1z M62.5,10.8c-1-0.2-1.6-0.6-1.7-1.2c0.1-1.5,2.3-1.5,3.6-0.1
			l2.1-1.6c-1.3-1.6-2.8-2-4.3-2c-2.3,0-4.6,1.3-4.6,3.8c0,2.4,1.8,3.7,3.9,4c1,0.1,2.2,0.6,2.2,1.3c-0.1,1.3-2.9,1.3-4.1-0.3
			l-2,1.9c1.2,1.5,2.8,2.3,4.3,2.3c2.3,0,4.9-1.3,5-3.8C67,12,64.7,11.2,62.5,10.8z M53,18.7h3.2V6.1H53V18.7z M106.6,6.1h-4.7v10.1
			l3.1-2V9h1.7c1.1,0,1.6,0.5,1.6,1.3v3.9c0,0.8-0.5,1.4-1.6,1.4h-4.8v3h4.7c2.5,0,4.9-1.2,4.9-4.1v-4.2
			C111.5,7.4,109.1,6.1,106.6,6.1z M83.5,5.9c-2.6,0-5.2,1.4-5.2,4.3v4.3c0,2.9,2.6,4.3,5.2,4.3c2.6,0,5.2-1.4,5.2-4.3v-4.3
			C88.7,7.3,86.1,5.9,83.5,5.9z M85.5,14.5c0,0.9-1,1.4-2,1.4c-1,0-2-0.4-2-1.4v-4.3c0-0.9,1-1.4,2-1.4c1,0,2.1,0.4,2.1,1.4V14.5z
			 M72.6,5.9c-2.6,0-5.2,1.4-5.2,4.3v4.3c0,2.9,2.6,4.3,5.2,4.3c2.6,0,5.2-1.4,5.2-4.3v-4.3C77.8,7.3,75.2,5.9,72.6,5.9z M74.6,14.5
			c0,0.9-1,1.4-2,1.4c-1,0-2-0.4-2-1.4v-4.3c0-0.9,1-1.4,2-1.4c1,0,2.1,0.4,2.1,1.4V14.5z M100.1,10.2c-0.1-3-2.1-4.1-4.7-4.1h-5
			v12.6h3.2v-4h0.6l2.9,4h4l-3.4-4.3C99.2,13.9,100.1,12.6,100.1,10.2z M95.5,11.9h-1.9V9h1.9C97.5,9,97.5,11.9,95.5,11.9z"/>
	</g>
</g>
</svg>
