<svg width="120" height="39" version="1.1" id="Layer_1" xmlns="http://www.w3.org/2000/svg" xmlns:xlink="http://www.w3.org/1999/xlink" x="0px" y="0px" viewBox="0 0 120 39" style="enable-background:new 0 0 120 39;" xml:space="preserve">
<style type="text/css">
	.st0{fill:#A8A3B9;}
	.st1{fill:#A8A3B9;}
	.st2{fill:#A8A3B9;stroke:#A8A3B9;}
	.st3{fill:#A8A3B9;stroke:#A8A3B9;}
</style>
<path class="st0" d="M22.5,7.5h-8.1v8.6H9.5v4.4h4.8V30H20v-9.5h0.7h1.6c4.5,0,7.1-2.5,7.1-6.8C29.6,9.8,27,7.5,22.5,7.5z
	 M22.2,16.1h-1.4h-0.7v-4.2h2.1c1.2,0,2,0.7,2,2.1S23.5,16.1,22.2,16.1z"/>
<polygon class="st1" points="14.4,16.1 14.4,7.5 12.3,9.6 12.3,16.1 "/>
<path class="st1" d="M22.2,16.1c1.2,0,2-0.7,2-2.1s-0.7-2.1-2-2.1h-2.1V14h0.1C21.4,14,22.1,14.7,22.2,16.1
	C22.1,16.1,22.1,16.1,22.2,16.1L22.2,16.1z"/>
<path class="st1" d="M22.5,20.5h-1.6h-0.7v2.1h0.4c2.5,0,4.4-0.9,5.8-2.1c0.6-0.6,1.4-1.4,2-2.2C27,19.8,25.1,20.5,22.5,20.5z"/>
<polygon class="st1" points="14.4,20.5 9.5,20.5 9.5,16.1 7.5,18.2 7.5,22.6 12.3,22.6 12.3,32 18.1,32 20.1,30 14.4,30 "/>
<path class="st2" d="M37,7.5h4c1.8,0,3.2,0.2,4.1,0.9c0.7,0.5,1.4,1.1,1.8,2c0.5,0.9,0.6,1.8,0.6,2.8c0,1.5-0.4,2.7-1.2,3.8
	c-1.2,1.6-3.1,2.5-5.8,2.5h-2.2l-1,8.1h-2.8L37,7.5z M39.7,10.2l-0.9,6.5h2c1.2,0,2.2-0.4,2.8-1s1-1.5,1-2.7c0-2-1.2-2.8-3.7-2.8
	C40.9,10.2,39.7,10.2,39.7,10.2z"/>
<path class="st2" d="M60.8,15.4l-1.5,12.2h-2.9l0.1-1.4c-1.2,1.1-2.6,1.6-3.8,1.6c-1.6,0-2.9-0.5-4.1-1.6c-1-1.1-1.6-2.6-1.6-4.3
	c0-2,0.6-3.7,1.7-4.9c1.2-1.2,2.7-2,4.7-2c0.9,0,1.6,0.1,2.2,0.4c0.6,0.2,1.2,0.7,2,1.5l0.2-1.6h2.9L60.8,15.4L60.8,15.4z M57.2,21
	c0-1.1-0.4-2-1-2.6c-0.6-0.7-1.5-1-2.5-1c-1.1,0-2,0.4-2.7,1.2c-0.7,0.9-1.1,1.8-1.1,3.1c0,1.1,0.2,2,0.9,2.6c0.6,0.7,1.4,1,2.3,1
	c1.1,0,2-0.4,2.8-1.2C56.8,23.3,57.2,22.2,57.2,21z"/>
<path class="st2" d="M75.6,15.4L64.4,34.5h-3.3l5-8.5l-4.4-10.7h3.1l3.1,7.9l4.4-7.9C72.3,15.4,75.6,15.4,75.6,15.4z"/>
<path class="st3" d="M80.4,7.5h4.1c1.8,0,3.2,0.2,4.1,0.9c0.7,0.5,1.4,1.1,1.8,2s0.6,1.8,0.6,2.8c0,1.5-0.4,2.7-1.2,3.8
	c-1.2,1.6-3.1,2.5-5.8,2.5h-2.2l-1,8.1h-2.9L80.4,7.5z M83,10.2l-0.9,6.5h2c1.2,0,2.2-0.4,2.8-1c0.6-0.6,1-1.5,1-2.7
	c0-2-1.2-2.8-3.7-2.8C84.2,10.2,83,10.2,83,10.2z"/>
<path class="st3" d="M104.1,15.4l-1.5,12.2h-2.9l0.1-1.4c-1.2,1.1-2.6,1.6-3.8,1.6c-1.6,0-2.9-0.5-4.1-1.6c-1-1.1-1.6-2.6-1.6-4.3
	c0-2,0.6-3.7,1.7-4.9c1.2-1.2,2.7-2,4.7-2c0.9,0,1.6,0.1,2.2,0.4c0.6,0.2,1.2,0.7,2,1.5l0.2-1.6h2.9v0.1H104.1z M100.5,21
	c0-1.1-0.4-2-1-2.6c-0.6-0.7-1.5-1-2.5-1c-1.1,0-2,0.4-2.7,1.2c-0.7,0.9-1.1,1.8-1.1,3.1c0,1.1,0.2,2,0.9,2.6c0.6,0.7,1.4,1,2.3,1
	c1.1,0,2-0.4,2.8-1.2C100.2,23.3,100.5,22.2,100.5,21z"/>
<path class="st3" d="M109.7,15.4l-1.6,12.2h-2.9l1.5-12.2C106.7,15.4,109.7,15.4,109.7,15.4z M110.6,9.5c0,0.4-0.1,0.7-0.5,1.1
	c-0.2,0.2-0.6,0.5-1.1,0.5c-0.4,0-0.9-0.1-1.1-0.5s-0.5-0.7-0.5-1.1c0-0.4,0.1-0.7,0.5-1.1c0.2-0.2,0.6-0.5,1.1-0.5
	c0.4,0,0.9,0.1,1.1,0.5C110.5,8.7,110.6,9.1,110.6,9.5z"/>
</svg>
