<svg width="120" height="24" version="1.1" id="Layer_1" xmlns="http://www.w3.org/2000/svg" xmlns:xlink="http://www.w3.org/1999/xlink" x="0px" y="0px" viewBox="0 0 120 24" style="enable-background:new 0 0 120 24;" xml:space="preserve">
<style type="text/css">
	.st0{fill:#3A3B3A;}
	.st1{fill:#1A7D3E;}
</style>
<path class="st0" d="M94.5,8.2l8.7,11.8h1.6V5.3h-1.6v12.1L94.3,5.3h-1.5V20h1.6L94.5,8.2L94.5,8.2z"/>
<path class="st0" d="M84.3,4.9c-4.1,0-7,3.2-7,7.7s2.9,7.7,7,7.7s7-3.2,7-7.7C91.4,8.1,88.5,4.9,84.3,4.9z M84.3,18.8
	c-3.2,0-5.4-2.5-5.4-6.1s2.2-6.1,5.4-6.1c3.2,0,5.3,2.5,5.3,6.1C89.7,16.3,87.5,18.8,84.3,18.8z"/>
<path class="st0" d="M117,6.7V5.3h-10.3V20h10.4v-1.4h-8.8v-5.5h8.1v-1.4h-8.1v-5C108.3,6.7,117,6.7,117,6.7z"/>
<path class="st1" d="M39.1,5.3l4.2,5.7l4.2-5.7h1.9l-5.2,7L50,20h-2l-4.7-6.4L38.6,20h-1.9l5.7-7.7l-5.2-7H39.1z"/>
<path class="st1" d="M75.5,12.9L75.5,12.9c-0.3-0.3-0.6-0.5-1-0.6c1.1-0.6,1.8-1.7,1.8-3c0-0.9-0.3-4-4.8-4h-6v6.4h-2
	c-0.3,0.3-0.8,1.1-1.1,1.5h3.1V20h6c3.2,0,5.3-1.6,5.3-4.3C76.8,14.6,76.3,13.6,75.5,12.9z M67.2,6.8h4.3c1.2,0,3.1,0.3,3.1,2.3
	c0,1.6-1.1,2.5-3.1,2.5h-4.3V6.8z M71.5,18.5h-4.3v-5.4h4.3c1.6,0,3.6,0.5,3.6,2.6C75.1,18.1,72.9,18.5,71.5,18.5z"/>
<path class="st1" d="M55.1,4.9c-4.1,0-7,3.2-7,7.7s2.9,7.7,7,7.7s7-3.2,7-7.7S59.2,4.9,55.1,4.9z M55.1,18.8c-3.2,0-5.4-2.5-5.4-6.1
	s2.2-6.1,5.4-6.1c3.1,0,5.3,2.5,5.3,6.1C60.5,16.3,58.3,18.8,55.1,18.8z"/>
<path class="st1" d="M23.2,5.3l5.2,7L22.7,20h1.9l4.7-6.4L34,20h2l-5.7-7.7l5.2-7h-1.9L29.3,11l-4.2-5.7H23.2z"/>
<path class="st1" d="M21.3,12.3c0,5.3-4.3,9.6-9.6,9.6s-9.6-4.3-9.6-9.6s4.3-9.6,9.6-9.6S21.3,7,21.3,12.3z"/>
</svg>
