<svg xmlns="http://www.w3.org/2000/svg" width="38" height="16" viewBox="0 0 38 16" fill="none">
<path fill-rule="evenodd" clip-rule="evenodd" d="M4.98416 2.96865C5.68423 3.02954 6.3843 2.60328 6.82184 2.06283C7.25209 1.50716 7.5365 0.761192 7.46357 0C6.84372 0.0304477 6.07802 0.426268 5.64048 0.981938C5.23939 1.46149 4.89665 2.2379 4.98416 2.96865ZM13.3125 12.7732V0.906255H17.5785C19.7808 0.906255 21.3195 2.48953 21.3195 4.80355C21.3195 7.11757 19.7516 8.71608 17.5202 8.71608H15.0772V12.7732H13.3125ZM7.45572 3.11335C6.83897 3.0763 6.27621 3.30696 5.82166 3.49327C5.52914 3.61316 5.28144 3.71469 5.09298 3.71469C4.8815 3.71469 4.62357 3.60773 4.33397 3.48764C3.9545 3.33029 3.52065 3.15038 3.0657 3.15902C2.02289 3.17424 1.053 3.79081 0.520655 4.77274C-0.573204 6.73662 0.236252 9.64437 1.29365 11.2429C1.81141 12.0345 2.43126 12.9023 3.24801 12.8718C3.60733 12.8577 3.8658 12.7432 4.1333 12.6247C4.44126 12.4883 4.76118 12.3466 5.26071 12.3466C5.74292 12.3466 6.04885 12.4846 6.34252 12.6171C6.62176 12.743 6.88991 12.864 7.28799 12.8566C8.13391 12.8414 8.66625 12.065 9.18401 11.2733C9.74276 10.4237 9.9883 9.59446 10.0256 9.46863L10.0299 9.45407C10.029 9.45314 10.0221 9.44984 10.01 9.44403L10.01 9.44402C9.82316 9.35476 8.39554 8.67255 8.38185 6.84318C8.3681 5.30769 9.51421 4.52972 9.69463 4.40725L9.69465 4.40723C9.70562 4.39979 9.71301 4.39477 9.71636 4.39215C8.98712 3.26559 7.84951 3.1438 7.45572 3.11335ZM24.5461 12.8641C25.6546 12.8641 26.6828 12.278 27.1495 11.3493H27.186V12.7728H28.8195V6.86591C28.8195 5.15323 27.5068 4.0495 25.4868 4.0495C23.6127 4.0495 22.2271 5.16845 22.1761 6.70606H23.7658C23.8971 5.97531 24.5461 5.49576 25.4358 5.49576C26.5151 5.49576 27.1203 6.02099 27.1203 6.9877V7.64232L24.918 7.77934C22.8689 7.90874 21.7604 8.78411 21.7604 10.3065C21.7604 11.8441 22.9053 12.8641 24.5461 12.8641ZM25.0144 11.4557C24.0737 11.4557 23.4757 10.9837 23.4757 10.2606C23.4757 9.51465 24.0518 9.08077 25.1529 9.01226L27.1146 8.88286V9.55271C27.1146 10.664 26.2103 11.4557 25.0144 11.4557ZM34.2345 13.2375C33.5272 15.3155 32.7177 16.0006 30.9967 16.0006C30.8654 16.0006 30.4279 15.9854 30.3258 15.9549V14.5315C30.4352 14.5467 30.705 14.562 30.8436 14.562C31.6239 14.562 32.0614 14.2194 32.3312 13.3288L32.4917 12.8036L29.5018 4.16408H31.3467L33.4251 11.1747H33.4615L35.5399 4.16408H37.3338L34.2345 13.2375ZM15.0746 2.45921H17.1092C18.6406 2.45921 19.5157 3.31175 19.5157 4.8113C19.5157 6.31084 18.6406 7.17099 17.1019 7.17099H15.0746V2.45921Z" fill="white"/>
</svg>