<svg xmlns="http://www.w3.org/2000/svg" width="16" height="16" viewBox="0 0 16 16" fill="none">
<path fill-rule="evenodd" clip-rule="evenodd" d="M2.66699 8.00004C2.66699 7.63185 2.96547 7.33337 3.33366 7.33337H12.667C13.0352 7.33337 13.3337 7.63185 13.3337 8.00004C13.3337 8.36823 13.0352 8.66671 12.667 8.66671H3.33366C2.96547 8.66671 2.66699 8.36823 2.66699 8.00004Z" fill="#1D293D"/>
<path fill-rule="evenodd" clip-rule="evenodd" d="M7.52827 2.86189C7.78862 2.60154 8.21073 2.60154 8.47108 2.86189L13.1377 7.52855C13.3981 7.7889 13.3981 8.21101 13.1377 8.47136L8.47108 13.138C8.21073 13.3984 7.78862 13.3984 7.52827 13.138C7.26792 12.8777 7.26792 12.4556 7.52827 12.1952L11.7235 7.99996L7.52827 3.8047C7.26792 3.54435 7.26792 3.12224 7.52827 2.86189Z" fill="#1D293D"/>
</svg>