<svg width="16" height="16" viewBox="0 0 16 16" fill="none" xmlns="http://www.w3.org/2000/svg">
<g clip-path="url(#clip0_12494_1726)">
<path fill-rule="evenodd" clip-rule="evenodd" d="M7.99984 2.00002C4.68613 2.00002 1.99984 4.68631 1.99984 8.00002C1.99984 11.3137 4.68613 14 7.99984 14C11.3135 14 13.9998 11.3137 13.9998 8.00002C13.9998 4.68631 11.3135 2.00002 7.99984 2.00002ZM0.666504 8.00002C0.666504 3.94993 3.94975 0.666687 7.99984 0.666687C12.0499 0.666687 15.3332 3.94993 15.3332 8.00002C15.3332 12.0501 12.0499 15.3334 7.99984 15.3334C3.94975 15.3334 0.666504 12.0501 0.666504 8.00002Z" fill="white"/>
<path fill-rule="evenodd" clip-rule="evenodd" d="M8.00016 3.33331C8.36835 3.33331 8.66683 3.63179 8.66683 3.99998V7.58796L10.965 8.73703C11.2943 8.90169 11.4278 9.30214 11.2631 9.63146C11.0985 9.96077 10.698 10.0943 10.3687 9.9296L7.70202 8.59626C7.47616 8.48334 7.3335 8.25249 7.3335 7.99998V3.99998C7.3335 3.63179 7.63197 3.33331 8.00016 3.33331Z" fill="white"/>
</g>
<defs>
<clipPath id="clip0_12494_1726">
<rect width="16" height="16" fill="white"/>
</clipPath>
</defs>
</svg>
