<svg xmlns="http://www.w3.org/2000/svg" width="40" height="16" viewBox="0 0 40 16" fill="none">
<path d="M35.9949 10.2792H36.0232L38.3582 4.58486H39.9988L34.9539 15.9999H33.3972L35.2732 12.0067L31.9626 4.58486H33.6042L35.9949 10.2792ZM28.0916 4.32705C29.2074 4.32705 30.0891 4.62271 30.7361 5.20498C31.3831 5.78727 31.7019 6.60092 31.7019 7.62685V12.5155H30.2576V11.4159H30.1921C29.5639 12.3216 28.7388 12.7743 27.698 12.7743C26.8166 12.7743 26.0661 12.5155 25.4753 11.9979C24.8943 11.5174 24.5661 10.8059 24.5847 10.0575C24.5847 9.23492 24.9037 8.58742 25.532 8.09756C26.1602 7.60776 27.0043 7.36806 28.0544 7.36806C28.9546 7.36807 29.686 7.53429 30.2673 7.84853V7.50674C30.2673 6.99839 30.042 6.51721 29.6482 6.18447C29.245 5.83338 28.7295 5.63955 28.1951 5.63955C27.3511 5.63955 26.6856 5.99082 26.198 6.69326L24.866 5.87002C25.5786 4.84423 26.6571 4.32714 28.0916 4.32705ZM21.1248 0.924706C22.0262 0.951424 22.8911 1.30757 23.533 1.93154C24.9018 3.18857 24.9855 5.30535 23.7009 6.66396L23.533 6.82998C22.8297 7.48621 21.9662 7.81924 20.9441 7.81924H18.45V12.5145H16.9402V0.924706H21.1248ZM28.2859 8.57021C27.6763 8.57021 27.1604 8.71829 26.7478 9.00478C26.3446 9.29127 26.1385 9.6515 26.1384 10.0858C26.1384 10.474 26.326 10.8347 26.6355 11.0565C26.9731 11.3152 27.3855 11.4535 27.8074 11.4442C28.445 11.4442 29.0545 11.1953 29.5046 10.7519C30.0017 10.2897 30.2556 9.74364 30.2556 9.11514C29.7867 8.74546 29.1299 8.56101 28.2859 8.57021ZM18.4529 6.39639H20.9851C21.5477 6.41477 22.0919 6.19316 22.4763 5.7958C23.2641 4.9917 23.2453 3.69717 22.4294 2.9208C22.045 2.55117 21.5289 2.34764 20.9851 2.34756H18.4529V6.39639Z" fill="white"/>
<path d="M13.233 6.80345C13.233 6.35056 13.1955 5.89767 13.1205 5.45403H6.75342V8.01424H10.4011C10.2511 8.83684 9.76346 9.57625 9.0508 10.0384V11.7021H11.2263C12.5016 10.5467 13.233 8.83684 13.233 6.80345Z" fill="#3B82F6"/>
<path d="M6.75163 13.3098C8.57079 13.3098 10.1086 12.7183 11.2245 11.7016L9.04902 10.0379C8.43951 10.4446 7.66121 10.6757 6.75163 10.6757C4.98874 10.6757 3.49778 9.50185 2.96329 7.9306H0.722168V9.64973C1.86617 11.8957 4.20107 13.3098 6.75163 13.3098Z" fill="#22C55E"/>
<path d="M2.96597 7.93103C2.68462 7.10843 2.68462 6.21189 2.96597 5.38005V3.67016H0.724495C-0.241498 5.54642 -0.241498 7.76466 0.724495 9.64092L2.96597 7.93103Z" fill="#FBBF24"/>
<path d="M6.75163 2.63456C7.71747 2.61608 8.6458 2.97654 9.33971 3.63277L11.2714 1.72878C10.043 0.601176 8.43013 -0.0180831 6.75163 0.00040225C4.20107 0.00040225 1.86617 1.42377 0.722168 3.66974L2.96329 5.38888C3.49778 3.80838 4.98874 2.63456 6.75163 2.63456Z" fill="#EF4444"/>
</svg>