<svg width="16" height="16" viewBox="0 0 16 16" fill="none" xmlns="http://www.w3.org/2000/svg">
<path fill-rule="evenodd" clip-rule="evenodd" d="M8 2.00002C6.76232 2.00002 5.57534 2.49169 4.70017 3.36686C3.825 4.24202 3.33333 5.42901 3.33333 6.66669C3.33333 8.10623 4.14445 9.65779 5.19849 11.0427C6.21735 12.3813 7.38646 13.4654 8 13.9978C8.61354 13.4654 9.78265 12.3813 10.8015 11.0427C11.8555 9.65779 12.6667 8.10623 12.6667 6.66669C12.6667 5.42901 12.175 4.24202 11.2998 3.36686C10.4247 2.49169 9.23768 2.00002 8 2.00002ZM3.75736 2.42405C4.88258 1.29883 6.4087 0.666687 8 0.666687C9.5913 0.666687 11.1174 1.29883 12.2426 2.42405C13.3679 3.54926 14 5.07539 14 6.66669C14 8.55581 12.9648 10.4019 11.8625 11.8502C10.7448 13.3188 9.47315 14.4875 8.83636 15.0373C8.825 15.0471 8.81332 15.0565 8.80133 15.0655C8.5703 15.2392 8.28906 15.3332 8 15.3332C7.71094 15.3332 7.4297 15.2392 7.19867 15.0655C7.18668 15.0565 7.175 15.0471 7.16364 15.0373C6.52685 14.4875 5.25525 13.3188 4.13751 11.8502C3.03522 10.4019 2 8.55581 2 6.66669C2 5.07539 2.63214 3.54926 3.75736 2.42405Z" fill="white"/>
<path fill-rule="evenodd" clip-rule="evenodd" d="M8.00016 5.33333C7.26378 5.33333 6.66683 5.93029 6.66683 6.66667C6.66683 7.40305 7.26378 8 8.00016 8C8.73654 8 9.3335 7.40305 9.3335 6.66667C9.3335 5.93029 8.73654 5.33333 8.00016 5.33333ZM5.3335 6.66667C5.3335 5.19391 6.5274 4 8.00016 4C9.47292 4 10.6668 5.19391 10.6668 6.66667C10.6668 8.13943 9.47292 9.33333 8.00016 9.33333C6.5274 9.33333 5.3335 8.13943 5.3335 6.66667Z" fill="white"/>
</svg>
