<svg xmlns="http://www.w3.org/2000/svg" width="26" height="16" viewBox="0 0 26 16" fill="none">
<path d="M17.96 0C22.2782 0 25.7792 3.5817 25.7793 8C25.7793 12.4184 22.2783 16 17.96 16C16.0247 16 14.255 15.2796 12.8896 14.0879C11.5243 15.2795 9.75458 16 7.81934 16C3.50106 16 0 12.4184 0 8C0.000116352 3.58172 3.50114 2.42443e-05 7.81934 0C9.75448 0 11.5243 0.720576 12.8896 1.91211C14.2549 0.720554 16.0248 2.41054e-05 17.96 0Z" fill="#DC2626"/>
<path d="M17.9601 0C22.2783 0 25.7793 3.5817 25.7794 8C25.7794 12.4184 22.2784 16 17.9601 16C16.0251 16 14.256 15.2793 12.8907 14.0879C14.5723 12.6205 15.6398 10.4385 15.6398 8C15.6397 5.56125 14.5726 3.37849 12.8907 1.91113C14.2559 0.720119 16.0254 2.40993e-05 17.9601 0Z" fill="#F59E0B"/>
<path d="M12.8922 1.91234C14.5737 3.37969 15.6412 5.56177 15.6412 8.00023C15.6412 10.4387 14.5737 12.6207 12.8922 14.0881C11.2112 12.6207 10.1442 10.4383 10.1442 8.00023C10.1442 5.56211 11.2111 3.37968 12.8922 1.91234Z" fill="#EA580C"/>
</svg>