<svg width="16" height="16" viewBox="0 0 16 16" fill="none" xmlns="http://www.w3.org/2000/svg">
<g clip-path="url(#clip0_12494_1722)">
<path fill-rule="evenodd" clip-rule="evenodd" d="M5.18777 2.16117C5.06511 2.05568 4.90829 1.9984 4.74652 1.99999C4.74433 2.00001 4.74214 2.00002 4.73996 2.00002H2.74032C2.64785 2.00015 2.55643 2.0195 2.47185 2.05686C2.38719 2.09426 2.31124 2.14887 2.24884 2.21723C2.18644 2.28559 2.13896 2.36619 2.10942 2.4539C2.08034 2.54022 2.06927 2.63157 2.07687 2.72231C2.28537 4.67669 2.95082 6.5546 4.01948 8.20422C4.02053 8.20586 4.02159 8.2075 4.02263 8.20914C4.9937 9.73732 6.28933 11.0329 7.8175 12.004C7.81857 12.0047 7.81963 12.0054 7.8207 12.0061L7.82269 12.0073C9.46458 13.0721 11.3331 13.7374 13.2784 13.9498C13.3692 13.9573 13.4605 13.9462 13.5469 13.917C13.6348 13.8872 13.7156 13.8394 13.784 13.7767C13.8524 13.7139 13.9069 13.6376 13.9441 13.5525C13.9813 13.4675 14.0003 13.3756 14 13.2827C14 13.2818 14 13.2809 14 13.28V11.28C14 11.2745 14 11.269 14.0002 11.2635C14.0042 11.1 13.948 10.9407 13.8423 10.816C13.7372 10.6918 13.5902 10.6105 13.4292 10.5872C12.7406 10.4961 12.0644 10.3275 11.4136 10.0846L11.412 10.0841C11.2927 10.0392 11.1631 10.0295 11.0384 10.0561C10.9143 10.0826 10.8003 10.1439 10.7098 10.233C10.7094 10.2333 10.7091 10.2337 10.7087 10.2341L9.86469 11.0781C9.65248 11.2903 9.32464 11.3346 9.06376 11.1862C7.29041 10.1779 5.82211 8.70957 4.81376 6.93622C4.66542 6.67534 4.70968 6.3475 4.92188 6.13529L5.76702 5.29015C5.85605 5.19969 5.91741 5.0857 5.94389 4.96156C5.97048 4.8369 5.96077 4.70724 5.91592 4.58793L5.91536 4.58643C5.67251 3.93562 5.50393 3.25947 5.41283 2.57084C5.38971 2.41163 5.30979 2.26611 5.18777 2.16117ZM4.73701 0.666691C5.22104 0.6628 5.6901 0.834587 6.05716 1.15026C6.42513 1.46671 6.66547 1.90617 6.73339 2.38672C6.73368 2.38876 6.73396 2.39081 6.73423 2.39285C6.81205 2.98285 6.95634 3.56216 7.16435 4.11973C7.29859 4.47739 7.32758 4.86603 7.2479 5.23966C7.16814 5.61363 6.98285 5.95689 6.71399 6.22878C6.71312 6.22967 6.71224 6.23055 6.71136 6.23143L6.2333 6.70949C7.0172 7.93926 8.06072 8.98278 9.29049 9.76668L9.76855 9.28862C9.76943 9.28774 9.77031 9.28686 9.7712 9.28599C10.0431 9.01713 10.3863 8.83184 10.7603 8.75208C11.134 8.67239 11.5227 8.7014 11.8804 8.83569C12.4379 9.04367 13.0172 9.18794 13.6071 9.26575C13.6091 9.26601 13.6111 9.26628 13.6131 9.26656C14.0988 9.33509 14.5425 9.57977 14.8596 9.95406C15.1748 10.326 15.3432 10.8002 15.3333 11.2875V13.2791C15.3342 13.557 15.2771 13.832 15.1658 14.0867C15.0542 14.3418 14.8906 14.5709 14.6854 14.7592C14.4801 14.9475 14.2379 15.0908 13.974 15.18C13.7102 15.2692 13.4307 15.3024 13.1533 15.2773C13.1493 15.277 13.1453 15.2766 13.1413 15.2761C10.9872 15.0421 8.91799 14.3062 7.0998 13.1277C5.40837 12.0524 3.97416 10.6181 2.89884 8.9267C1.71616 7.10021 0.980133 5.02091 0.75035 2.85709C0.749982 2.85363 0.749641 2.85016 0.749328 2.84669C0.724338 2.57016 0.757203 2.29145 0.845828 2.02832C0.934453 1.76518 1.0769 1.52338 1.26409 1.31831C1.45129 1.11324 1.67913 0.9494 1.93312 0.837213C2.1871 0.725025 2.46167 0.666952 2.73933 0.666691L4.73701 0.666691Z" fill="white"/>
</g>
<defs>
<clipPath id="clip0_12494_1722">
<rect width="16" height="16" fill="white"/>
</clipPath>
</defs>
</svg>
