<svg xmlns="http://www.w3.org/2000/svg" width="34" height="12" viewBox="0 0 34 12" fill="none">
  <path fill-rule="evenodd" clip-rule="evenodd" d="M8.44411 11.4656H5.5211L3.32919 2.50112C3.22515 2.08875 3.00425 1.72419 2.67931 1.55237C1.86839 1.12058 0.974814 0.77694 0 0.603626V0.258492H4.70875C5.35863 0.258492 5.84603 0.77694 5.92727 1.37906L7.06455 7.84546L9.98614 0.258492H12.8279L8.44411 11.4656ZM14.4529 11.4656H11.6924L13.9655 0.258492H16.7261L14.4529 11.4656ZM20.296 3.36319C20.3772 2.75958 20.8646 2.41444 21.4332 2.41444C22.3268 2.32779 23.3002 2.5011 24.1126 2.9314L24.6 0.518448C23.7876 0.173314 22.894 0 22.0831 0C19.4038 0 17.4542 1.55236 17.4542 3.70683C17.4542 5.34584 18.8352 6.20643 19.81 6.72488C20.8646 7.24184 21.2708 7.58697 21.1895 8.10393C21.1895 8.87936 20.3772 9.22449 19.5663 9.22449C18.5915 9.22449 17.6167 8.96601 16.7245 8.53422L16.2371 10.9487C17.2119 11.379 18.2665 11.5523 19.2413 11.5523C22.2456 11.6374 24.1126 10.0866 24.1126 7.75879C24.1126 4.82739 20.296 4.65557 20.296 3.36319ZM33.778 11.4656L31.586 0.258492H29.2317C28.7443 0.258492 28.2569 0.603626 28.0944 1.12058L24.0355 11.4656H26.8773L27.4445 9.82811H30.9362L31.2611 11.4656H33.778ZM29.6401 3.27647L30.451 7.50025H28.1779L29.6401 3.27647Z" fill="white"/>
</svg>