
<svg version="1.1" id="Capa_1" xmlns="http://www.w3.org/2000/svg" xmlns:xlink="http://www.w3.org/1999/xlink" x="0px" y="0px"
	 width="32px" height="32px" viewBox="0 0 32 32" style="enable-background:new 0 0 32 32;"
	 xml:space="preserve">
<g>
	<g>
		<path d="M259.815,79.138c-26.6-74.3-90.1-79.1-156.6-71.2c-2.4-3.5-7-5.7-11.8-3.4c-70.9,33.8-117.2,123.2-75.8,195.9
			c32.1,56.4,108.9,76.4,168.2,60.9C264.815,240.238,285.016,149.338,259.815,79.138z M200.815,235.038
			c-49.1,29.899-116.8,11.5-155.8-26c-62.5-60-10-157.8,55.5-189c0.2-0.1,0.3-0.3,0.5-0.4c2.9,0.4,5.9,0.5,9,0.6
			c30.2,0.8,62.6-3.1,91,9.2c38,16.4,51.9,74.1,53.3,110.2C255.716,179.938,234.216,214.638,200.815,235.038z"/>
		<path d="M145.115,39.838c0-0.2,0-0.3-0.1-0.5c0-0.2,0-0.3-0.1-0.5c-0.2-0.7-0.5-1.1-0.801-1.6v-0.1c-1.3-2.2-3.399-3.1-5.699-3
			c-2.2-0.1-4.4,0.8-5.701,3v0.1c-0.3,0.5-0.6,1-0.8,1.6c0,0.2,0,0.3-0.1,0.5c0,0.2,0,0.3-0.1,0.5c-0.7,3.2-0.8,6.5-0.2,9.8
			c0.3,1.8,1.4,3.1,2.7,3.9c2,2.3,6.201,2.3,8.201,0c1.399-0.8,2.399-2.1,2.699-3.9C145.916,46.338,145.815,43.038,145.115,39.838z"
			/>
		<path d="M239.416,111.938c-4.9-3.9-9.7-5.7-16-5.9c-4.601-0.1-7,3.2-7.301,6.8c-2.399,2-2,6.8,1.4,7.4c0.7,0.1,1.4,0.1,2.1,0.2
			c1,0.6,2.2,1,3.7,1c1.7,0,3.3-0.1,4.9-0.1c1.8,0.1,3.6,0.2,5.3,0.5C238.716,122.638,244.716,116.138,239.416,111.938z"/>
		<path d="M133.916,205.838c-0.3-7.9-12.3-10.1-14.2-1.9c-0.6,2.601-1.4,5.5-1.7,8.4c-1.1,3.9-2.1,7.8-0.7,12
			c2.5,7.3,11.4,6.6,14.1,0c0.4-1.1,0.6-2.3,0.8-3.4c0.4-0.3,0.5-0.8,0.3-1.3c0.2-1.7,0.3-3.399,0.6-5.1
			C133.615,211.638,134.016,208.838,133.916,205.838z"/>
		<path d="M54.615,122.938c-0.5-0.4-1-0.6-1.6-0.8c-0.1,0-0.1-0.1-0.2-0.1s-0.1,0-0.2,0c-0.2-0.1-0.4-0.1-0.6-0.1
			c-4.4-1.1-12.5-2.6-16.2,0.1c-0.8,0.5-1.5,1.3-2.1,2.1c-4.1,1.2-4.1,6.8,0,8c3.4,4.8,10.1,5.3,15.5,2.9c0.3-0.101,0.4-0.4,0.6-0.5
			c0.6-0.1,1.3-0.1,1.9-0.3c0.4,0,0.7-0.1,1-0.2h0.1c0.1,0,0.1-0.1,0.2-0.1c0.6-0.2,1.2-0.5,1.6-0.8c1.7-1.2,2.5-3.1,2.4-5
			C57.115,126.038,56.416,124.138,54.615,122.938z"/>
		<path d="M183.315,164.338c-13.1-9.8-27.8-21.7-43.5-27c-0.1,0-0.1,0-0.2,0c1.4-5.7,2-14.3-1.8-18c-1.3-1.3-2.6-1.9-3.8-2.2
			c1.1-8.8,2-17.6,2.9-26.3c0.8-7.6,4.6-21.9-1.601-28.1c-2.2-2.2-5.7-2.1-7.9,0c-5.6,5.3-3.8,18-3.8,25c0,10.9-0.2,21.8,0.9,32.7
			c-4,0.7-7.1,3.2-8.5,7.3c-2,5.6-2.2,11.5,3.3,15c2,1.3,4.5,1.8,7,2.1c0.9,0.3,1.9,0.4,2.9,0.3c0.2,0,0.4,0,0.6,0
			c1.6,0.3,3.1,0,4.5-0.6c0.4,0.8,0.8,1.5,1.6,2c13.8,10.2,27.3,20.399,40.5,31.3c4.8,4,19.899,20.4,26.1,9.8
			C208.016,178.238,188.716,168.438,183.315,164.338z"/>
	</g>
</g>
<g>
</g>
<g>
</g>
<g>
</g>
<g>
</g>
<g>
</g>
<g>
</g>
<g>
</g>
<g>
</g>
<g>
</g>
<g>
</g>
<g>
</g>
<g>
</g>
<g>
</g>
<g>
</g>
<g>
</g>
</svg>
