<svg viewBox="0 0 2761 991" xmlns="http://www.w3.org/2000/svg">
<path fill="currentColor" fill-rule="nonzero" d="M1054.6,735.1h-22.5L995.9,685c-8.9,8-18.3,15.4-28.2,22.4c-9.9,6.9-20.3,13-31.2,18.1c-10.9,5.1-22.1,9.2-33.6,12.1
	c-11.5,3-23.2,4.4-35,4.4c-25.7,0-49.9-4.3-72.5-13c-22.6-8.6-42.4-21.2-59.4-37.7s-30.3-36.7-40.1-60.6
	c-9.8-23.9-14.7-51.1-14.7-81.6c0-28.4,4.9-54.5,14.7-78.3c9.8-23.8,23.1-44.2,40.1-61.3c16.9-17.1,36.7-30.3,59.4-39.8
	c22.6-9.4,46.8-14.2,72.5-14.2c11.8,0,23.5,1.5,35.2,4.4c11.6,3,22.9,7.1,33.8,12.3c10.9,5.2,21.3,11.4,31.2,18.4
	c9.9,7.1,19.2,14.7,27.8,22.9l36.2-43.3h22.5V735.1z M960.7,549c0-12.7-2.4-25.1-7.3-37c-4.9-11.9-11.6-22.5-20-31.7
	s-18.3-16.6-29.5-22.2c-11.3-5.6-23.3-8.4-36-8.4c-12.7,0-24.7,2.2-36,6.5c-11.3,4.3-21,10.7-29.4,19.1
	c-8.3,8.4-14.8,18.8-19.6,31.2s-7.2,26.6-7.2,42.5s2.4,30.1,7.2,42.5s11.3,22.8,19.6,31.2c8.3,8.4,18.1,14.8,29.4,19.1
	c11.3,4.3,23.3,6.5,36,6.5c12.7,0,24.7-2.8,36-8.4c11.3-5.6,21.1-13,29.5-22.2c8.4-9.2,15.1-19.8,20-31.7
	C958.3,574.1,960.7,561.8,960.7,549z M1207.6,270.1c0,8.6-1.7,16.7-4.9,24.2c-3.3,7.5-7.8,14.1-13.5,19.6c-5.7,5.6-12.3,10-20,13.3
	c-7.6,3.3-15.8,4.9-24.4,4.9c-8.6,0-16.8-1.6-24.4-4.9c-7.6-3.3-14.2-7.7-19.8-13.3c-5.6-5.6-10-12.1-13.3-19.6
	c-3.3-7.5-4.9-15.6-4.9-24.2c0-8.4,1.6-16.4,4.9-24.1c3.3-7.6,7.7-14.2,13.3-19.8c5.6-5.6,12.2-10,19.8-13.3
	c7.6-3.3,15.8-4.9,24.4-4.9c8.6,0,16.8,1.7,24.4,4.9c7.6,3.3,14.3,7.7,20,13.3c5.7,5.6,10.2,12.2,13.5,19.8
	C1205.9,253.7,1207.6,261.7,1207.6,270.1z M1191.4,735.1h-93.9V369.5h93.9V735.1z M1327.8,735.1h-93.2V369.5h22.5l30.7,43.3
	c15-13.7,32.1-24.2,51.2-31.6s38.9-11.1,59.4-11.1h82.3v92.8h-82.3c-9.8,0-19,1.8-27.6,5.5c-8.6,3.6-16.2,8.6-22.5,15
	c-6.4,6.4-11.4,13.9-15,22.5c-3.6,8.6-5.5,17.9-5.5,27.6V735.1z M1842.7,735.1h-22.5l-36.2-50.2c-8.9,8-18.3,15.4-28.2,22.4
	c-9.9,6.9-20.3,13-31.2,18.1s-22.1,9.2-33.6,12.1c-11.5,3-23.2,4.4-35,4.4c-25.7,0-49.9-4.8-72.5-14.5
	c-22.6-9.7-42.4-23.1-59.4-40.3c-17-17.2-30.3-37.5-40.1-61.1c-9.8-23.5-14.7-49.2-14.7-77c0-27.5,4.9-53.1,14.7-76.8
	c9.8-23.7,23.1-44.1,40.1-61.4c16.9-17.3,36.7-30.8,59.4-40.6c22.6-9.8,46.8-14.7,72.5-14.7c8.2,0,16.7,0.7,25.4,2
	c8.8,1.4,17.3,3.6,25.6,6.7c8.3,3.1,16.1,7.1,23.4,12.1c7.3,5,13.4,11.2,18.4,18.4V224h93.9L1842.7,735.1L1842.7,735.1z M1748.7,549
	c0-12.7-2.4-25.1-7.3-37c-4.9-11.9-11.6-22.5-20-31.7s-18.3-16.6-29.5-22.2c-11.3-5.6-23.3-8.4-36-8.4c-12.7,0-24.7,2.3-36,6.8
	c-11.3,4.6-21,11.1-29.4,19.6c-8.3,8.5-14.8,18.9-19.6,31.2s-7.2,26.2-7.2,41.6c0,13.4,2.4,26.2,7.2,38.2
	c4.8,12.1,11.3,22.6,19.6,31.7s18.1,16.3,29.4,21.5c11.3,5.2,23.3,7.8,36,7.8c12.7,0,24.7-2.8,36-8.4c11.3-5.6,21.1-13,29.5-22.2
	c8.4-9.2,15.1-19.8,20-31.7C1746.3,574.1,1748.7,561.8,1748.7,549z M1978.9,735.1h-93.2V369.5h22.5l30.7,35.5
	c15-13.7,32-24.2,51-31.6s38.8-11.1,59.6-11.1c22.3,0,43.3,4.3,63.1,12.8s37.1,20.3,51.9,35.2c14.8,14.9,26.5,32.3,35,52.2
	c8.5,19.9,12.8,41.1,12.8,63.7v209h-93.2v-209c0-9.6-1.8-18.6-5.5-27.1c-3.6-8.5-8.7-16-15-22.4c-6.4-6.4-13.8-11.4-22.2-15
	s-17.4-5.5-27-5.5c-9.8,0-19,1.8-27.6,5.5c-8.6,3.6-16.2,8.6-22.5,15c-6.4,6.4-11.4,13.8-15,22.4c-3.6,8.5-5.5,17.6-5.5,27.1
	L1978.9,735.1L1978.9,735.1z M2604,735.1h-22.5l-36.2-50.2c-8.9,8-18.3,15.4-28.2,22.4c-9.9,6.9-20.3,13-31.2,18.1
	s-22.1,9.2-33.6,12.1c-11.5,3-23.2,4.4-35,4.4c-25.7,0-49.9-4.8-72.5-14.5c-22.6-9.7-42.4-23.1-59.4-40.3s-30.3-37.5-40.1-61.1
	c-9.8-23.5-14.7-49.2-14.7-77c0-27.5,4.9-53.1,14.7-76.8c9.8-23.7,23.1-44.1,40.1-61.4c16.9-17.3,36.7-30.8,59.4-40.6
	c22.6-9.8,46.8-14.7,72.5-14.7c8.2,0,16.7,0.7,25.4,2c8.8,1.4,17.3,3.6,25.6,6.7s16.1,7.1,23.4,12.1c7.3,5,13.4,11.2,18.4,18.4V224
	h93.9L2604,735.1L2604,735.1z M2510.1,549c0-12.7-2.4-25.1-7.3-37c-4.9-11.9-11.6-22.5-20-31.7s-18.3-16.6-29.5-22.2
	c-11.3-5.6-23.3-8.4-36-8.4s-24.7,2.3-36,6.8c-11.3,4.6-21,11.1-29.4,19.6c-8.3,8.5-14.8,18.9-19.6,31.2
	c-4.8,12.3-7.2,26.2-7.2,41.6c0,13.4,2.4,26.2,7.2,38.2c4.8,12.1,11.3,22.6,19.6,31.7s18.1,16.3,29.4,21.5c11.3,5.2,23.3,7.8,36,7.8
	s24.7-2.8,36-8.4s21.1-13,29.5-22.2c8.4-9.2,15.1-19.8,20-31.7C2507.7,574.1,2510.1,561.8,2510.1,549z M476.7,610L359.8,407.6
	L242.9,610l116.8-332.4 M242.9,610l116.8-332.4L106,717.3l253.9-141.2L242.9,610z M476.7,610l-116.8-33.8l253.9,141.2l-254-439.8
	 M359.8,576.1L106,717.3l253.9-73.4l253.9,73.4L359.8,576.1z"/>
</svg>
