<svg viewBox="0 0 2761 991" xmlns="http://www.w3.org/2000/svg">
<path fill="currentColor" fill-rule="nonzero" d="M100,566.5c0-41.5,8.3-76.5,25-104.9c16.7-28.4,40.1-50,70.4-64.6c30.2-14.7,65.6-22,106.2-22c32.9,0,60.7,4.7,83.2,14.2
	v64.3h-5.4c-9-4.5-19.9-8.1-32.5-10.8c-12.6-2.7-26.6-4.1-41.9-4.1c-39.2,0-70.4,10.7-93.4,32.1s-34.5,53.3-34.5,95.7
	c0,41.9,11.5,73.7,34.5,95.4c23,21.7,54.1,32.5,93.4,32.5c15.3,0,29.3-1.6,41.9-4.7c12.6-3.2,23.4-6.8,32.5-10.8h5.4v65
	c-22.6,9.5-50.3,14.2-83.2,14.2c-41.5,0-77.4-7.4-107.6-22.3c-30.2-14.9-53.5-36.5-69.7-65S100,607.5,100,566.5z M391.5,566.5
	c0-41,7.3-75.8,22-104.2c14.7-28.4,35.2-50.1,61.6-65s56.7-22.3,91-22.3s64.5,7.4,90.7,22.3s46.6,36.5,61.2,65
	c14.7,28.4,22,63.2,22,104.2c0,41.1-7.3,75.8-22,104.2c-14.7,28.4-35.1,50.1-61.2,65C630.5,750.6,600.3,758,566,758
	c-35.2,0-65.9-7.4-92-22.3c-26.2-14.9-46.5-36.5-60.9-65C398.7,642.3,391.5,607.5,391.5,566.5z M468.6,566.5
	c0,42.4,8.3,74.5,25,96.4c16.7,21.9,40.8,32.8,72.4,32.8c31.1,0,55-10.9,71.7-32.8c16.7-21.9,25-54,25-96.4c0-43.3-8.4-75.8-25-97.4
	c-16.7-21.7-40.6-32.5-71.7-32.5c-31.6,0-55.7,10.8-72.4,32.5C476.9,490.6,468.6,523.2,468.6,566.5z M818.2,320.8
	c-12.6,0-23.5-4.1-32.5-12.2c-9-8.1-13.5-19.2-13.5-33.2c0-14,4.5-25,13.5-33.2c9-8.1,19.8-12.2,32.5-12.2
	c13.5,0,24.6,4.1,33.2,12.2c8.6,8.1,12.9,19.2,12.9,33.2c0,14-4.3,25-12.9,33.2C842.8,316.7,831.7,320.8,818.2,320.8z M780.4,751.9
	v-253c0-9-0.1-20.6-0.3-34.8c-0.2-14.2-0.7-28.3-1.4-42.3c-0.7-14-1.9-25-3.7-33.2l1.4-5.4h79.8v368.8L780.4,751.9L780.4,751.9z
	 M925.8,751.9V519.8c0-9-0.1-20.6-0.3-34.8s-0.7-28.3-1.4-42.3c-0.7-14-1.9-25-3.7-33.2l1.4-5.4c12.6-5,28.1-9.7,46.3-14.2
	c18.3-4.5,37-8.1,56.2-10.8c19.2-2.7,36.4-4.1,51.8-4.1c23,0,44.4,2.4,64.3,7.1c19.8,4.7,37.7,13.1,53.5,25
	c15.8,12,28.1,28.4,36.9,49.4c8.8,21,13.2,47.7,13.2,80.2v215.2h-75.8V541.4c0-27.5-4-48.7-11.8-63.6c-7.9-14.9-19.4-25.1-34.5-30.8
	c-15.1-5.6-33-8.5-53.8-8.5c-14,0-28.6,1.6-44,4.7c-15.3,3.2-28.9,6.8-40.6,10.8l12.2-21c2.3,6.8,3.8,15.3,4.7,25.7
	c0.9,10.4,1.4,21.7,1.4,33.8v259.1h-76V751.9z M1440.4,760c-23.5,0-47.1-2.4-71-7.1s-44.7-10.5-62.2-17.3l-2-5.4
	c1.8-8.1,3-19.1,3.7-32.8c0.7-13.8,1.1-27.8,1.4-42.3c0.2-14.4,0.3-26.2,0.3-35.2V360c0-6.8,0-15.4,0-26c0-10.6-0.2-21.8-0.7-33.5
	c-0.5-11.7-1-22.8-1.7-33.2s-1.7-18.5-3-24.4l1.4-5.4h79.8v409.4c0,13.5-0.5,25.3-1.4,35.2c-0.9,9.9-2,18.3-3.4,25l-12.9-20.3
	c9.5,2.7,20.9,5.3,34.2,7.8c13.3,2.5,27.2,3.7,41.6,3.7c40.6,0,70.6-11.5,90-34.5c19.4-23,29.1-55.9,29.1-98.8
	c0-39.7-10-70.9-30.1-93.7c-20.1-22.8-49.7-34.2-89-34.2c-10.4,0-19.6,0.5-27.7,1.4c-8.1,0.9-16.2,2.5-24.4,4.7
	c-8.1,2.3-17.4,5.2-27.7,8.8v-58.2c16.2-6.8,32.1-11.6,47.7-14.5s30.3-4.4,44.3-4.4c38.8,0,71.9,7.7,99.5,23
	c27.5,15.3,48.5,37.2,62.9,65.6c14.4,28.4,21.7,62,21.7,100.8c0,41.9-8.2,77.5-24.7,106.6c-16.5,29.1-39.6,51.2-69.4,66.3
	C1516.9,752.4,1481.5,760,1440.4,760z M1847.7,760c-23.5,0-45.7-2.4-66.6-7.1c-21-4.7-39.4-13.2-55.1-25.4
	c-15.8-12.2-28.2-28.8-37.2-49.7c-9-21-13.5-47.5-13.5-79.5v-99.5c0-9-0.2-20.6-0.7-34.8c-0.5-14.2-1-28.3-1.7-42.3
	c-0.7-14-1.9-25-3.7-33.2l1.4-5.4h80.5v209.7c0,28,4.1,49.4,12.2,64.3c8.1,14.9,20.1,25.1,35.9,30.8c15.8,5.6,34.5,8.5,56.2,8.5
	c14,0,28.1-1.4,42.3-4.1c14.2-2.7,26.7-5.4,37.6-8.1l-12.9,18.3c-1.8-6.3-3-14.4-3.7-24.4c-0.7-9.9-1-20.5-1-31.8V498.8
	c0-9-0.2-20.6-0.7-34.8c-0.5-14.2-1-28.3-1.7-42.3c-0.7-14-1.9-25-3.7-33.2l1.4-5.4h80.5v234.1c0,9,0.1,20.6,0.3,34.8
	c0.2,14.2,0.7,28.3,1.4,42.3c0.7,14,1.9,25,3.7,33.2l-1.4,5.4c-12.6,5-28,9.5-46,13.5c-18,4.1-36.3,7.3-54.8,9.8
	C1877.9,758.7,1861.6,760,1847.7,760z M2099.9,320.8c-12.6,0-23.5-4.1-32.5-12.2s-13.5-19.2-13.5-33.2c0-14,4.5-25,13.5-33.2
	c9-8.1,19.8-12.2,32.5-12.2c13.5,0,24.6,4.1,33.2,12.2c8.6,8.1,12.9,19.2,12.9,33.2c0,14-4.3,25-12.9,33.2
	C2124.5,316.7,2113.5,320.8,2099.9,320.8z M2062,751.9v-253c0-9-0.1-20.6-0.3-34.8c-0.2-14.2-0.7-28.3-1.4-42.3
	c-0.7-14-1.9-25-3.7-33.2l1.4-5.4h79.8v368.8L2062,751.9L2062,751.9z M2207.5,751.9V353.3c0-9-0.1-20.7-0.3-35.2
	c-0.2-14.4-0.7-28.5-1.4-42.3s-1.9-24.7-3.7-32.8l1.4-5.4h79.8v514.3H2207.5z M2519.2,760c-41.1,0-76.1-7.4-105.2-22.3
	c-29.1-14.9-51.3-36.8-66.6-65.6c-15.3-28.9-23-64-23-105.5c0-40.1,8.1-74.5,24.4-103.2c16.2-28.6,39-50.5,68.3-65.6
	c29.3-15.1,63.6-22.7,102.8-22.7c15.8,0,29.9,1.1,42.3,3.4c12.4,2.3,22,5,28.8,8.1l-12.2,18.3v-48.7c0-9.5-0.2-21.7-0.7-36.5
	c-0.5-14.9-1-29.4-1.7-43.6c-0.7-14.2-1.9-25.1-3.7-32.8l1.4-5.4h80.5v379.7c0,9,0.1,20.8,0.3,35.2c0.2,14.4,0.7,28.5,1.4,42.3
	s1.9,24.7,3.7,32.8l-2,5.4c-18.9,7.2-39.8,13.5-62.6,18.9C2572.6,757.3,2547.2,760,2519.2,760z M2584.8,705.2
	c-2.3-7.7-3.8-16.8-4.7-27.4c-0.9-10.6-1.4-21.8-1.4-33.5V419.6l10.1,29.1c-5.4-2.3-13.2-4.7-23.3-7.4s-22.9-4.1-38.2-4.1
	c-41.1,0-72.3,11.2-93.7,33.5c-21.4,22.3-32.1,54.2-32.1,95.7c0,29.3,4.6,53.7,13.9,73.1c9.2,19.4,23,33.9,41.3,43.6
	c18.3,9.7,40.7,14.5,67.3,14.5c15.3,0,28.8-1.4,40.3-4.1c11.5-2.7,21.8-6.1,30.8-10.1L2584.8,705.2z"/>
</svg>
