<svg viewBox="0 0 2761 991" xmlns="http://www.w3.org/2000/svg">
<path fill="currentColor" fill-rule="nonzero" d="M619.1,525.6c0.3-26.7-4.3-54-14.3-78.6c-10.3-24.5-23.8-46.9-40.7-64.5c1.8-9.7,1.4-25.3-10.7-40.6
	c-16.1-21-39.1-43.3-65.2-57.8c-25.8-15.1-54.7-19.8-75-14.4c-7.3-5.1-15.9-8.7-23.8-10.7c-8-1.7-15.4-1.3-20.4-0.1
	c-7.6,1.6-15.2,3.5-22.9,5.3c-5.5,1.1-10.8,2.1-16.1,3.1c-0.8,0-1.7,0-2.6-0.1c-12.8-0.1-25.9-0.5-38.9,0
	c-6.5,0.3-12.7,0.6-19.3,1.5c-7.8,1.2-15.4,2.9-22.7,5c0.4,0.1,0.9,0.2,1.5,0.2c-3.3,0.3-6.6,0.6-9.9,1.1
	c-16.6,2.3-33,6.4-48.1,12.7c-33.5,17.1-70,38.5-86.3,62.9c-9.7,16.4-18.9,30.3-26.9,44c-0.3,0.4-0.7,0.8-1,1.3
	c-2,1.8-3.9,3.8-5.7,6c-0.1,0.1-0.2,0.2-0.2,0.2l0,0c-2,2.5-3.8,5.3-5.2,8.5c1.8-3.2,3.6-5.9,5.5-8.3l1.7,1.3
	c-1.7,3.3-3.2,6.6-4.7,10c-12.5,16.8-22,41.6-29.8,47.1c5.6,10.5,9.3-6.2,14-20.2c-2.3,7.4-4,15.8-6,24.2
	c-1.4,8.6-2.9,17.3-4.3,25.7c-0.1,1-0.3,1.9-0.4,2.8c-0.5-7.3-2.6-12.8,2.9-20c-1.9-4.6-4.2-3.6-7.2,1.3c-2.4,16.5-8.4,47.7-2,49.6
	c-1.1,3.4-2.3,6.5-3.9,9.2l5.6,8.2c-0.5,1.2-0.8,2.4-1.1,3.7c0.8-1,1.5-2.1,2.2-3.2c2.2,21.3,4.7,44.3,14.9,58.1
	c2.1,1.2,3.8,1.9,5.3,2.5c-1.2,6.4-4.1-2-7.6-3.2c4,14.4,9,24.7,15.3,26.8c-2.3-7.8-4.8-15.4-6.6-23.2c2.2,0.7,3.7,0.7,4.9,0.4
	c6,6.5,11.1,11.5,11.1,14.2c2.3,10,3.9,19.1,5.4,27.7c0,0,0,0,0-0.1c0,0,0,0.1,0.1,0.1c1.2,7.2,2.4,14.1,3.7,20.7
	c-0.6-0.1-1.3-0.3-1.8-0.4c-4.3-9.3-11.5-21.9-13-27.2c0.4,6.3,1.2,12.6,2.4,18.9l6.1,3.6c1.1,2.5,1.1,4,0.6,5
	c-0.1,0.1-0.3,0.4-0.4,0.5c-0.5,0.6-1.2,1-1.7,1.2c0.2,0.3,0.5,0.6,0.8,0.9c-0.2,0.7-0.4,1.3-0.5,2.3l2.1-0.4
	c1.8,2.1,3.6,4.1,5.4,6.1c0.6,0.1,0.8-0.4,1.1-0.8c0.4,9.3,0.3,18.9,10.7,33.1c0.2,0,0.6,0.1,0.9,0.1c3.9,8.1,8.9,16.3,15.9,24.7
	c1.2,2.1,8.5,5.2,15.9,7.4c0.5,0.4,0.9,0.8,1.4,1.2c5.7,1.5,9.2,1.6,11.2,1c2.6,0.1,4.6,0,5.1-0.5c-0.9-6.9-7.6-17.5-14.4-28.4
	c0.8,0.7,1.4,1.4,2.2,2.1l-0.9-1.7c-0.6-0.2-0.9-0.4-1.4-0.5c-5.5-8.8-10.9-17.7-13.4-25c0.8-6.8,0.9-10.6,1.1-17
	c0.6-10,13.9,0.8,18,2.6c-0.2-9.7-3.5-20-7.9-31.2c8.3,11.1,17.6,21.4,28,30.6l-3.7,3.2c10,7,7.4,14.2,19.9,20.8l0.4,0.2l0-0.1
	c0.8-7.1-4.7-11.7-8.9-17.8c29.3,23.6,65.2,39.5,104.8,44.1l59.7,6.9c9.9,1.1,19.6,1.3,29.3,1.1c-9.8,4.9-20,8.9-30.7,11.1
	c1.3,10.4,2.6,21.7,10,31.5c7.4,10,21.7,18.4,48.5,18.5c8.1-0.2,16.2-1.4,24.2-3.2c12,0.7,25.3,0.2,39.5-2.3
	c3.1-2.7,6.6-5.4,10.4-8.1c3.7-3,7.6-6.1,11.7-9.1c8.3-5.8,16.8-12.6,25.2-19.3c3.1-2.5,6.2-5,9.2-7.6c1.9-0.5,3.8-1.1,5.8-1.6
	c3.1-4.5,8.3-10.1,13.2-15.8c0,0,0.1-0.1,0.1-0.1c5.2-5.1,10-10.1,13.8-14.5c29.1-23.8,50.4-54.8,63.3-87.8
	c3.1-8.3,5.6-16.8,8.2-25.2c2.3-8.5,3.6-17.1,5.2-25.6c1.6-8.5,1.7-17.2,2.5-25.8C619.4,538,619.1,533.6,619.1,525.6z M83.3,669.4
	l0.8-0.2c0.1,1,0.2,2,0.3,2.9C84.2,671.4,83.7,670.3,83.3,669.4z M302.9,790.4l8.9,1.8c-0.8,5,5.6,8,9.1,11.9l-20.7-3l7-3.1
	c-2.3,3.1,4.9,4.8,9.5,4.8C313,798.7,311.1,794.3,302.9,790.4z M316.4,792.5c6.4-6.4-13-3.5-4.9-5.7c7.2,1.7,12.8,3.9,8.8,7.5
	C319.7,793,318.3,792.8,316.4,792.5z M316,793l-4.2-0.8c0-0.2-0.1-0.3,0-0.5c1.8,0.5,3.3,0.7,4.6,0.9
	C316.2,792.7,316.2,792.8,316,793z M269.9,793.2c-2.2-1.5-3.1-2.7-3.3-3.9C268.5,790.8,270.2,792.1,269.9,793.2z M266.6,789.3
	c-2.9-2.1-6.3-4.4-5.1-6.3l4.6,1.4c2-3.2-0.9-5.5-6.3-8.6C275.3,782,265.7,784.9,266.6,789.3z M304.9,782.4l-20.3-10.5l3.3-0.9
	C295.1,778.9,304,774,304.9,782.4z M53.6,645.3c0.7,0.6,1.6,1.4,2.2,1.9L55,649C54.4,647.6,54,646.4,53.6,645.3z M53.6,645.3
	c-1.1-1-2-2-3.4-3c-1.2-6.4-1.9-12.9-2.4-19.4C55.3,635.5,49.5,633.4,53.6,645.3z M57.2,644.2c6.5,12.2,14.8,27.2,21.1,43.7
	c-8.1-8.5-10.9-15.9-12.9-22.5c-2.1-6.6-4-12-9.7-18.1L57.2,644.2z M788.7,753.1V308.7H897v444.4H788.7z M1008.7,708.1
	c-32.7-32.9-49.1-76.8-49.1-131.7c0-54.9,16.4-98.6,49.1-131.4c32.7-32.7,75-49.1,126.9-49.1c43,0,79.5,10.7,109.5,32
	c30,21.3,49.8,51.8,59.5,91.5h-117.1c-10.1-21.1-26.7-31.6-49.7-31.6c-23,0-40.1,8.1-51.3,24.4c-11.2,16.2-16.8,37.7-16.8,64.3
	c0,26.6,5.6,48,16.8,64.3c11.2,16.3,27.5,24.4,49.1,24.4c13.5,0,24.1-2.3,31.7-7c7.6-4.6,14.3-12.9,20.3-24.7h117.1
	c-9.7,38-29.8,68.2-60.1,90.5c-30.4,22.4-66.7,33.6-108.9,33.6C1083.7,757.5,1041.4,741.1,1008.7,708.1z M1387.3,707.5
	c-35.7-33.3-53.5-77.2-53.5-131.7c0-54.4,17.7-98,53.2-130.7c35.4-32.7,79.3-49.1,131.7-49.1c52.3,0,96.1,16.4,131.4,49.1
	c35.2,32.7,52.9,76.3,52.9,130.7c0,54.4-17.5,98.3-52.5,131.7c-35,33.3-78.7,50-131,50C1467,757.5,1423,740.9,1387.3,707.5z
	 M1571.2,642.3c14.3-15.2,21.5-37.1,21.5-65.8c0-28.7-7.4-50.5-22.2-65.5c-14.8-15-32.3-22.5-52.5-22.5c-20.3,0-37.7,7.5-52.2,22.5
	c-14.6,15-21.8,36.8-21.8,65.5c0,28.7,7.5,50.7,22.5,65.8c15,15.2,32.6,22.8,52.9,22.8C1539.6,665.1,1556.9,657.5,1571.2,642.3z
	 M1874.4,399.8v51.9c22.4-37.1,58-55.7,107-55.7c40.5,0,73.3,13.5,98.4,40.5c25.1,27,37.7,63.7,37.7,110.2v206.4h-107.6V561.3
	c0-22.8-6-40.4-18-52.9c-12-12.4-28.6-18.7-49.7-18.7c-21.1,0-37.7,6.2-49.7,18.7c-12,12.5-18,30.1-18,52.9v191.8h-108.3V399.8
	H1874.4z M2301.8,360c-12.2,12.3-27.2,18.4-44.9,18.4c-17.7,0-32.7-6.1-45-18.4c-12.2-12.2-18.4-27.3-18.4-45.3
	c0-17.9,6.1-33,18.4-45.3c12.2-12.2,27.2-18.4,45-18.4c17.7,0,32.7,6.1,44.9,18.4c12.2,12.2,18.4,27.3,18.4,45.3
	C2320.1,332.6,2314,347.7,2301.8,360z M2203,753.1V399.8h108.3v353.2H2203z M2423,708.1c-32.7-32.9-49.1-76.8-49.1-131.7
	c0-54.9,16.3-98.6,49.1-131.4c32.7-32.7,75-49.1,126.9-49.1c43,0,79.5,10.7,109.5,32c30,21.3,49.8,51.8,59.5,91.5h-117.1
	c-10.1-21.1-26.7-31.6-49.7-31.6c-23,0-40.1,8.1-51.3,24.4c-11.2,16.2-16.8,37.7-16.8,64.3c0,26.6,5.6,48,16.8,64.3
	c11.2,16.3,27.5,24.4,49.1,24.4c13.5,0,24.1-2.3,31.7-7c7.6-4.6,14.3-12.9,20.3-24.7h117.1c-9.7,38-29.8,68.2-60.1,90.5
	c-30.4,22.4-66.7,33.6-108.9,33.6C2498,757.5,2455.7,741.1,2423,708.1z"/>
</svg>
