<svg viewBox="0 0 2761 991" xmlns="http://www.w3.org/2000/svg">
<path fill="currentColor" fill-rule="nonzero" d="M840.4,537.8c0,17.2-2.2,33.7-6.6,49.4c-4.4,15.9-10.7,30.7-18.9,44.4c-8.1,13.8-17.9,26.4-29.1,37.6
	c-11.3,11.4-23.8,21.1-37.7,29.3c-13.9,8.1-28.7,14.4-44.6,18.9c-15.9,4.4-32.4,6.6-49.5,6.6H541.7V351.6H654
	c17.2,0,33.7,2.2,49.5,6.6c15.9,4.4,30.7,10.7,44.6,18.9c13.9,8.1,26.4,17.9,37.7,29.3c11.3,11.4,21,23.9,29.1,37.6
	c8.1,13.8,14.4,28.6,18.9,44.4C838.2,504.1,840.4,520.6,840.4,537.8z M765.7,537.8c0-15.4-2.9-29.9-8.7-43.3
	c-5.8-13.5-13.8-25.4-23.9-35.4c-10.1-10.1-22-18.2-35.6-24.1c-13.6-5.9-28.1-8.8-43.6-8.8h-37.2v223.3H654
	c15.4,0,29.9-2.9,43.6-8.7c13.6-5.8,25.5-13.8,35.6-23.9s18.1-22,23.9-35.5C762.8,567.7,765.7,553.2,765.7,537.8z M964.4,723.9
	h-74.6V351.6h74.6V723.9z M1011.7,463.3c0-15.4,2.9-29.9,8.8-43.3c5.9-13.5,13.9-25.4,24.1-35.4c10.1-10.1,22-18.2,35.5-24.1
	s28-8.8,43.4-8.8h171.1v74.5h-171.1c-5.2,0-10.1,1-14.6,2.9s-8.5,4.6-11.8,7.9c-3.4,3.4-6,7.3-7.9,11.8c-1.9,4.5-2.9,9.4-2.9,14.6
	c0,5.2,1,10.1,2.9,14.7c1.9,4.6,4.6,8.6,7.9,12c3.3,3.4,7.3,6,11.8,7.9c4.5,1.9,9.4,2.9,14.6,2.9h74.6c15.4,0,29.9,2.9,43.6,8.7
	c13.6,5.8,25.5,13.8,35.6,23.9c10.1,10.1,18.1,22,23.9,35.5c5.8,13.6,8.7,28.1,8.7,43.5c0,15.4-2.9,29.9-8.7,43.3
	c-5.8,13.5-13.8,25.4-23.9,35.4c-10.1,10.1-22,18.2-35.6,24.1c-13.6,5.9-28.1,8.8-43.6,8.8h-165.6v-74.5H1198c5.2,0,10.1-1,14.6-2.9
	c4.5-1.9,8.4-4.6,11.8-7.9c3.4-3.4,6-7.3,7.9-11.8c1.9-4.5,2.9-9.4,2.9-14.6c0-5.2-1-10.1-2.9-14.6c-1.9-4.5-4.5-8.5-7.9-11.8
	c-3.4-3.4-7.3-6-11.8-7.9c-4.5-1.9-9.4-2.9-14.6-2.9h-74.6c-15.4,0-29.9-2.9-43.4-8.8c-13.5-5.9-25.4-13.9-35.5-24
	c-10.1-10.1-18.2-22-24.1-35.5C1014.7,493.1,1011.7,478.7,1011.7,463.3z M1656.3,685.8c-17.3,14.9-36.7,26.3-58.2,34.3
	c-21.5,8-43.8,12-66.8,12c-17.7,0-34.7-2.3-51.1-6.9s-31.7-11.1-46-19.5s-27.3-18.5-39.1-30.3c-11.8-11.8-21.9-24.8-30.3-39
	c-8.4-14.3-14.9-29.6-19.5-45.9c-4.6-16.4-6.9-33.4-6.9-51c0-17.7,2.3-34.7,6.9-51.1c4.6-16.5,11.1-31.9,19.5-46.1
	c8.4-14.3,18.5-27.3,30.3-39c11.8-11.8,24.8-21.9,39.1-30.3c14.3-8.4,29.6-14.9,46-19.5s33.4-6.9,51.1-6.9
	c23.1,0,45.3,3.9,66.8,11.8c21.5,7.9,40.9,19.4,58.2,34.5l-39.5,64.9c-10.9-11.8-23.8-20.8-38.7-27.2c-14.9-6.3-30.5-9.5-46.8-9.5
	c-16.5,0-31.9,3.1-46.3,9.4c-14.4,6.2-27,14.7-37.7,25.4c-10.7,10.7-19.2,23.2-25.5,37.6c-6.2,14.5-9.4,29.9-9.4,46.1
	c0,16.3,3.1,31.6,9.4,45.8c6.2,14.3,14.7,26.8,25.5,37.5c10.7,10.7,23.3,19.2,37.7,25.5c14.4,6.2,29.8,9.4,46.3,9.4
	c16.3,0,31.9-3.2,46.8-9.5c14.9-6.3,27.8-15.4,38.7-27.2L1656.3,685.8z M1993.6,723.9H1919v-74.5h-149.2v74.5h-74.4V500.6
	c0-20.6,3.9-39.9,11.7-58c7.8-18.1,18.4-33.9,31.9-47.4c13.4-13.5,29.2-24.2,47.3-32c18.1-7.8,37.5-11.7,58.1-11.7s40,3.9,58.1,11.7
	c18.1,7.8,33.9,18.5,47.5,32c13.5,13.5,24.2,29.3,32,47.4c7.8,18.1,11.7,37.4,11.7,58L1993.6,723.9L1993.6,723.9z M1918.9,575.1
	v-74.5c0-10.2-1.9-19.9-5.8-29c-3.9-9.1-9.2-17-16-23.8c-6.8-6.8-14.7-12.1-23.8-16c-9.1-3.9-18.8-5.9-29-5.9s-19.9,1.9-29,5.9
	c-9.1,3.9-17,9.2-23.8,16c-6.8,6.8-12.1,14.7-16,23.8c-3.9,9.1-5.8,18.8-5.8,29v74.5H1918.9z M2132.8,723.9h-74.6V351.6h149.2
	c13.7,0,26.9,1.8,39.5,5.3c12.7,3.6,24.5,8.6,35.5,15.1c11,6.5,21.1,14.3,30.2,23.4c9.1,9.1,16.9,19.2,23.4,30.3
	c6.5,11.1,11.5,23,15.1,35.5c3.6,12.7,5.3,25.8,5.3,39.4c0,12.8-1.6,25.3-4.8,37.3c-3.2,12.1-7.8,23.7-13.8,34.6
	c-6,10.9-13.3,21-22,30.2s-18.4,17.2-29.1,23.9l41.4,97.4h-79.3l-32.5-75l-83.5,0.5V723.9z M2132.8,426.1v149h74.6
	c10.2,0,19.8-1.9,28.9-5.8c9-3.9,16.9-9.2,23.7-16c6.8-6.8,12.1-14.7,16-23.8s5.9-18.8,5.9-29c0-10.2-1.9-19.9-5.9-29
	c-3.9-9.1-9.2-17-16-23.8s-14.6-12.1-23.7-16c-9-3.9-18.6-5.9-28.9-5.9L2132.8,426.1L2132.8,426.1z M2704,537.8
	c0,17.2-2.2,33.7-6.6,49.4c-4.4,15.9-10.7,30.7-18.8,44.4c-8.2,13.8-17.9,26.4-29.1,37.6c-11.3,11.4-23.8,21.1-37.7,29.3
	c-13.9,8.1-28.7,14.4-44.6,18.9c-15.9,4.4-32.4,6.6-49.5,6.6h-112.3V351.6h112.3c17.2,0,33.7,2.2,49.5,6.6
	c15.9,4.4,30.7,10.7,44.6,18.9c13.9,8.1,26.4,17.9,37.7,29.3s21,23.9,29.1,37.6c8.1,13.8,14.4,28.6,18.8,44.4
	C2701.7,504.1,2704,520.6,2704,537.8z M2629.3,537.8c0-15.4-2.9-29.9-8.7-43.3c-5.8-13.5-13.8-25.4-23.9-35.4
	c-10.1-10.1-22-18.2-35.6-24.1c-13.6-5.9-28.1-8.8-43.6-8.8h-37.2v223.3h37.2c15.4,0,29.9-2.9,43.6-8.7
	c13.6-5.8,25.5-13.8,35.6-23.9c10.1-10.1,18.1-22,23.9-35.5C2626.4,567.7,2629.3,553.2,2629.3,537.8z M325.5,553.4
	c-9-37.5-42.6-63.9-81.2-63.9H243h-14.7c-38.6,0-72.2,26.5-81.2,63.9l-4.7,19.4c-2,8.4,2.1,17.2,9.8,21c27.8,13.7,47,33.5,60.1,51.8
	c3.6-2.8,9-6.1,15.6-7.9L155,547.6c24.5-47.7,71.8-52.6,81.4-53.2v-0.1c0,0,0.3,0,0.9,0c0.6,0,0.9,0,0.9,0v0.1
	c9.6,0.5,56.8,5.5,81.4,53.2L246.4,638c4.5,1.4,9.1,4,13.8,8c13.1-18.5,32.4-38.5,60.5-52.3c7.8-3.8,11.9-12.6,9.8-21L325.5,553.4z
	 M330.4,516c-26.1-51.5-3.8-119.3-3.8-119.3L276,470.3C305.3,481.2,322.8,503.9,330.4,516z M196.4,470.3l-50.6-73.5
	c0,0,22.2,67.8-3.8,119.3C149.7,503.9,167.2,481.2,196.4,470.3z M305.5,533.5l-9,3.8c-23.4,6.9-36,24.8-42.8,43.7l13-4.9
	c0,0,16.6-2.8,27-9C304.1,560.8,305.5,533.5,305.5,533.5z M236.3,316C121.3,316,28,409.2,28,524s93.3,208,208.3,208
	s208.3-93.2,208.3-208S351.2,316,236.3,316z M357.6,602.5c-29.6,11.4-88.9,39.2-121.5,90.4l-4.6-6.9
	c-33.3-46.7-88.6-72.7-116.8-83.5c-8.7-3.3-12.2-13.8-7.4-21.8c57.7-96.5,23.7-225.6,23.7-225.6l72.1,96.3
	c5.9,7.9,15.2,12.5,25,12.5h14.7h1.4c9.8,0,19.1-4.6,25-12.5l72.1-96.3c0,0-34,129.2,23.7,225.6
	C369.8,588.7,366.4,599.1,357.6,602.5z M166.9,533.5c0,0,1.4,27.5,11.8,33.6c10.4,6.2,27,9,27,9l13,4.9
	c-6.8-18.9-19.5-36.8-42.8-43.7L166.9,533.5z"/>
</svg>
