<svg viewBox="0 0 2761 991" xmlns="http://www.w3.org/2000/svg">
<path fill="currentColor" fill-rule="nonzero" d="M597,677.7c3.5,5.6,5.3,13.4,5.3,23.2c0,18.8-4.5,33.4-13.4,43.7c-19.2,23.5-40.3,43.6-63.3,60.2c-23,16.7-45.7,25-68.2,25
	c-35.6,0-62.8-20.9-81.6-62.7c-19.7,24.9-36.9,41.6-51.7,50s-32,12.7-51.7,12.7c-28.6,0-52.2-10.7-70.7-32
	c-18.5-21.3-27.8-49.2-27.8-83.5c0-37.6,8-72.4,23.9-104.7c15.9-32.1,37.9-58.5,65.8-78.9s59.2-32.5,93.9-36.3
	c8.9-91.1,25.9-169,51-233.6c25.1-64.6,58-96.8,98.8-96.8c20.2,0,36.9,9.1,50.3,27.4c13.4,18.3,20,46.1,20,83.1
	c0,52.6-12.9,114.1-38.7,184.6c-25.8,70.4-60.3,142.8-103.4,216.9c1.9,27.2,6,46.8,12.3,58.5c6.3,11.7,14.4,17.6,24.3,17.6
	c12.7,0,25.6-5.6,38.7-16.9c13.1-11.3,30.7-30,52.8-56.4c5.6-6.6,12-9.8,19-9.8C588.7,669.3,593.5,672.1,597,677.7z M323.8,747.8
	c8.9-7.3,20.2-20.8,33.8-40.5c-4.7-25.3-7-53.8-7-85.2c0-11.3,0.5-29.5,1.4-55c-25.8,8-47.2,25.2-64.4,51.8
	c-17.1,26.5-25.7,56-25.7,88.4c0,34.3,11.7,51.4,35.2,51.4C306,758.7,314.9,755.1,323.8,747.8z M472.8,280.8
	c-8.9,31.7-16.5,73.1-22.9,124.3c-6.3,51.2-10.9,104.8-13.7,160.6C488.7,451.1,515,359.1,515,289.6c0-17.8-1.5-31.7-4.6-41.6
	c-3.1-9.8-6.7-14.8-10.9-14.8C490.7,233.2,481.8,249,472.8,280.8z M565.3,797.5c-13.8-21.6-20.7-50.3-20.7-85.9
	c0-21.1,2.7-48.3,8.1-81.3c5.4-33.1,12.3-64,20.8-92.6c4.2-15,9.8-25.3,16.9-30.9s18.3-8.4,33.8-8.4c23.9,0,35.9,8,35.9,23.9
	c0,11.7-4.5,39-13.4,81.7c-11.3,51.7-16.9,86.6-16.9,105c0,14.1,1.9,24.9,5.6,32.4c3.7,7.5,10.1,11.3,19,11.3
	c8.4,0,19-5.9,31.7-17.6c12.7-11.7,29.5-30.2,50.6-55.7c5.6-6.6,12-9.8,19-9.8c6.1,0,10.9,2.8,14.4,8.4c3.5,5.6,5.3,13.4,5.3,23.2
	c0,18.8-4.5,33.4-13.4,43.7c-46.4,56.8-89.8,85.2-130.1,85.2C601.3,829.9,579.2,819.1,565.3,797.5z M593.1,437.8
	c-9.8-9.1-14.8-21.9-14.8-38.4c0-16.4,6.4-30.1,19.3-41.2s28.9-16.5,48.2-16.5c17.3,0,31.4,4.2,42.2,12.7
	c10.8,8.4,16.2,20.4,16.2,36c0,18.8-6.1,33.8-18.3,44.8s-28.4,16.5-48.5,16.5C617.7,451.5,603,447,593.1,437.8z M730.6,801.7
	c-7.3-18.8-10.9-48.9-10.9-90.1c0-61.1,8.7-119.1,26-174c4.2-13.6,11.1-23.6,20.7-29.9c9.6-6.3,23.1-9.5,40.4-9.5
	c9.4,0,15.9,1.2,19.7,3.5c3.7,2.4,5.6,6.8,5.6,13.4c0,7.5-3.5,24.4-10.6,50.7c-4.7,18.8-8.4,35.3-11.3,49.3c-2.9,14-5.2,31.4-7,52.2
	c15.5-40.4,32.8-73.3,52.1-98.6c19.2-25.3,38.1-43.5,56.6-54.3c18.5-10.8,35.5-16.2,51-16.2c30.5,0,45.7,15.2,45.7,45.8
	c0,6.1-2.1,20.9-6.3,44.4c-3.8,18.8-5.6,30.5-5.6,35.3c0,16.4,5.9,24.6,17.6,24.6c13.1,0,30-10.3,50.6-30.9c6.1-6.1,12.4-9.1,19-9.1
	c6.1,0,10.9,2.7,14.4,8.1c3.5,5.4,5.3,12.6,5.3,21.5c0,17.4-4.7,30.9-14.1,40.9c-13.1,13.6-28.5,25.2-46.1,34.9
	c-17.6,9.6-36.2,14.4-55.9,14.4c-24.9,0-43.7-6.3-56.6-19c-12.9-12.7-19.3-29.8-19.3-51.4c0-7,0.7-14.1,2.1-21.1
	c0.9-9.4,1.4-15.7,1.4-19c0-7.5-2.6-11.3-7.7-11.3c-7,0-16.3,7.9-27.8,23.6c-11.5,15.7-22.9,36.6-34.1,62.3
	c-11.3,25.8-20.4,53.1-27.4,81.7c-5.2,22-11.1,37-17.9,44.8c-6.8,7.7-17.5,11.6-32,11.6C750.4,829.9,737.9,820.5,730.6,801.7z
	 M1050.6,801.7c-7.3-18.8-10.9-48.9-10.9-90.1c0-61.1,8.7-119.1,26-174c4.2-13.6,11.1-23.6,20.7-29.9c9.6-6.3,23.1-9.5,40.4-9.5
	c9.4,0,15.9,1.2,19.7,3.5c3.7,2.4,5.6,6.8,5.6,13.4c0,7.5-3.5,24.4-10.6,50.7c-4.7,18.8-8.4,35.3-11.3,49.3
	c-2.8,14.1-5.2,31.4-7,52.2c15.5-40.4,32.8-73.3,52.1-98.6c19.2-25.3,38.1-43.5,56.6-54.3s35.5-16.2,51-16.2
	c30.5,0,45.7,15.2,45.7,45.8c0,6.1-2.1,20.9-6.3,44.4c-3.8,18.8-5.6,30.5-5.6,35.3c0,16.4,5.9,24.6,17.6,24.6
	c13.1,0,30-10.3,50.6-30.9c6.1-6.1,12.4-9.1,19-9.1c6.1,0,10.9,2.7,14.4,8.1c3.5,5.4,5.3,12.6,5.3,21.5c0,17.4-4.7,30.9-14.1,40.9
	c-13.1,13.6-28.5,25.2-46.1,34.9c-17.6,9.6-36.2,14.4-55.9,14.4c-24.9,0-43.7-6.3-56.6-19c-12.9-12.7-19.3-29.8-19.3-51.4
	c0-7,0.7-14.1,2.1-21.1c0.9-9.4,1.4-15.7,1.4-19c0-7.5-2.6-11.3-7.7-11.3c-7,0-16.3,7.9-27.8,23.6c-11.5,15.7-22.9,36.6-34.1,62.3
	c-11.3,25.8-20.4,53.1-27.4,81.7c-5.2,22-11.1,37-17.9,44.8c-6.8,7.7-17.5,11.6-32,11.6C1070.4,829.9,1057.8,820.5,1050.6,801.7z
	 M1746.4,619.2c3.3,6.1,4.9,13.8,4.9,23.2c0,11.7-1.6,20.8-4.9,27.1c-3.3,6.3-8.4,10.7-15.5,13c-28.1,9.8-59.1,15.5-92.8,16.9
	c-9.4,39-27.1,70.4-53.1,94.4c-26,23.9-54.8,36-86.2,36c-47.4,0-81.8-18-103.4-54.3c-21.6-36.2-32.4-88.5-32.4-157.1
	c0-60.6,7.5-126.5,22.5-197.6c15-71.1,36.9-131.7,65.8-181.8c28.8-50,63.2-75,103-75c21.6,0,38.9,9.3,52.1,27.8
	c13.1,18.5,19.7,42.7,19.7,72.2c0,38.6-7.3,76.8-21.8,114.9c-14.5,38.1-38.7,77.9-72.4,119.8c31.4,2.4,57,15.4,76.7,39.1
	c19.7,23.7,31.4,53,35.2,87.7c22-1.4,48.3-6.1,78.8-14.1c2.8-0.9,6.1-1.4,9.8-1.4C1738.4,610.1,1743.1,613.1,1746.4,619.2z
	 M1540.4,736.9c11.3-12.2,18.8-29.8,22.5-52.9c-14.5-9.8-25.7-22.7-33.4-38.8c-7.7-15.9-11.6-32.8-11.6-50.7
	c0-6.6,0.9-15.5,2.8-26.7h-2.1c-19.2,0-35.3,9.5-48.2,28.5c-12.9,19-19.3,44.5-19.3,76.4c0,26.7,5,47.2,15.1,61.3
	c10.1,14.1,21.9,21.1,35.5,21.1C1516.2,755.2,1529.1,749.1,1540.4,736.9z M1507.7,275.8c-11,27.9-21.2,65.9-30.6,113.8
	s-16.4,100.3-21.1,157.1c30.9-56.8,55.7-107,74.2-150.4s27.8-82,27.8-115.9c0-15-1.8-26.5-5.3-34.6c-3.5-8-8.3-12-14.4-12
	C1528.9,233.9,1518.7,247.8,1507.7,275.8z M2079,619.2c3.3,6.1,4.9,13.8,4.9,23.2c0,11.7-1.6,20.8-4.9,27.1
	c-3.3,6.3-8.4,10.7-15.5,13c-28.1,9.8-59.1,15.5-92.8,16.9c-9.4,39-27.1,70.4-53.1,94.4c-26,23.9-54.8,36-86.2,36
	c-47.4,0-81.8-18-103.4-54.3c-21.6-36.2-32.4-88.5-32.4-157.1c0-60.6,7.5-126.5,22.5-197.6c15-71.1,36.9-131.7,65.8-181.8
	c28.8-50,63.2-75,103-75c21.6,0,38.9,9.3,52.1,27.8c13.1,18.5,19.7,42.7,19.7,72.2c0,38.6-7.3,76.8-21.8,114.9
	c-14.5,38.1-38.7,77.9-72.4,119.8c31.4,2.4,57,15.4,76.7,39.1c19.7,23.7,31.4,53,35.2,87.7c22-1.4,48.3-6.1,78.8-14.1
	c2.8-0.9,6.1-1.4,9.8-1.4C2071,610.1,2075.7,613.1,2079,619.2z M1873,736.9c11.3-12.2,18.8-29.8,22.5-52.9
	c-14.5-9.8-25.7-22.7-33.4-38.8c-7.7-15.9-11.6-32.8-11.6-50.7c0-6.6,0.9-15.5,2.8-26.7h-2.1c-19.2,0-35.3,9.5-48.2,28.5
	c-12.9,19-19.3,44.5-19.3,76.4c0,26.7,5,47.2,15.1,61.3c10.1,14.1,21.9,21.1,35.5,21.1C1848.8,755.2,1861.7,749.1,1873,736.9z
	 M1840.3,275.8c-11,27.9-21.2,65.9-30.6,113.8s-16.4,100.3-21.1,157.1c30.9-56.8,55.7-107,74.2-150.4s27.8-82,27.8-115.9
	c0-15-1.8-26.5-5.3-34.6c-3.5-8-8.3-12-14.4-12C1861.5,233.9,1851.3,247.8,1840.3,275.8z M2304.4,677.7c3.5,5.6,5.3,13.4,5.3,23.2
	c0,18.8-4.5,33.4-13.4,43.7c-20.2,24.9-42.1,45.4-65.8,61.3c-23.7,15.9-50.5,23.9-80.5,23.9c-41.3,0-71.9-18.7-91.8-56.4
	c-19.9-37.6-29.9-86.1-29.9-145.8c0-57.3,7.4-122.6,22.2-195.8c14.8-73.3,36.6-136.2,65.4-188.8c28.8-52.6,63.2-78.9,103-78.9
	c22.5,0,40.2,10.4,53.1,31.3c12.9,20.9,19.3,50.9,19.3,89.8c0,55.9-15.5,120.7-46.4,194.4C2214,553.4,2172,626.4,2119,698.8
	c3.3,19.2,8.7,32.9,16.2,41.2c7.5,8.2,17.3,12.3,29.5,12.3c19.2,0,36.1-5.5,50.6-16.5s33.1-29.9,55.6-56.7c5.6-6.6,12-9.8,19-9.8
	C2296.1,669.3,2300.9,672.1,2304.4,677.7z M2166.9,292.4c-13.6,39-25.6,87.3-35.9,145.1c-10.3,57.8-15.9,113.2-16.9,166.2
	c33.3-55,59.8-110,79.5-165.1s29.5-105.6,29.5-151.1c0-35.7-6.6-53.6-19.7-53.6C2192.7,233.9,2180.5,253.3,2166.9,292.4z
	 M2580.7,677.7c3.5,5.6,5.3,13.4,5.3,23.2c0,18.8-4.5,33.4-13.4,43.7c-17.4,21.1-41.9,40.7-73.5,58.5
	c-31.7,17.8-65.5,26.7-101.6,26.7c-49.2,0-87.5-13.4-114.7-40.2c-27.2-26.7-40.8-63.4-40.8-109.9c0-32.4,6.8-62.6,20.4-90.5
	c13.6-27.9,32.5-50.2,56.6-66.6c24.1-16.4,51.5-24.6,81.9-24.6c27.2,0,49,8.1,65.4,24.3c16.4,16.2,24.6,38.2,24.6,65.9
	c0,32.4-11.6,60.2-34.8,83.5c-23.2,23.2-62.5,41.7-117.8,55.3c11.7,21.6,34,32.4,66.8,32.4c21.1,0,45.1-7.4,72.1-22.2
	c27-14.8,50.3-34.2,70-58.1c5.6-6.6,12-9.8,19-9.8C2572.4,669.3,2577.2,672.1,2580.7,677.7z M2345.2,597.4
	c-12,20.2-17.9,44.7-17.9,73.3v1.4c27.7-6.6,49.5-16.4,65.4-29.5s23.9-28.4,23.9-45.8c0-8.9-2.5-16.1-7.4-21.5
	c-4.9-5.4-11.6-8.1-20-8.1C2371.8,567.1,2357.1,577.2,2345.2,597.4z"/>
</svg>
