<svg viewBox="0 0 1000 1000" xmlns="http://www.w3.org/2000/svg">
<path fill="#0062FF" fill-rule="nonzero" d="M500.8,67.7l164.3,94.8l-164.3,94.8l-164.3-94.8L500.8,67.7z M482.9,472.9l0-189.7l-164.3-94.9l0,189.7
	L482.9,472.9z M682.7,378.7l0-189.7l-164.3,94.9l0,189.7L682.7,378.7z M135.4,496l164.3,94.8L463.9,496l-164.3-94.8L135.4,496z
	 M281.7,806.5l0-189.7l-164.3-94.9l0,189.7L281.7,806.5z M481.6,712.2l0-189.7l-164.3,94.9l0,189.7L481.6,712.2z M535.1,501.3
	l164.3,94.8l164.3-94.8l-164.3-94.8L535.1,501.3z M681.4,811.8l0-189.7l-164.2-94.9l0,189.7L681.4,811.8z M881.3,717.5l0-189.7
	l-164.3,94.9l0,189.7L881.3,717.5z M882.6,475.6l0-189.7L718.3,191l0,189.7L882.6,475.6z M285.7,381.3l0-189.7l-164.3,94.9l0,189.7
	L285.7,381.3z M336.6,837.5l164.3,94.8l164.3-94.8l-164.3-94.8L336.6,837.5z"/>
</svg>
