<svg viewBox="0 0 2761 991" xmlns="http://www.w3.org/2000/svg">
<path fill="currentColor" fill-rule="nonzero" d="M267.4,412.3H222v-78h45.4v-21.6c0-46.7,4-80,11.9-100c7.9-19.9,21.7-32.7,41.5-38.3c19.7-5.5,53.1-8.3,100.2-8.3v69.3
	c-19.2,0-32.8,1.1-40.7,3.2c-7.9,2.2-13.2,7-15.9,14.4c-2.6,7.5-4,20.3-4,38.7v42.6H421v78h-60.6v290.3h-93V412.3z M464.2,681.4
	c-13-18-19.5-46.4-19.5-84.8c0-28.4,2.9-50.7,8.7-66.8c5.8-16.1,15.5-27.9,29.2-35.4c13.7-7.4,32.8-11.2,57.3-11.2
	c17.3,0,40.4,1,69.2,2.9v-16.6c0-20.2-1.6-34.6-4.7-43c-3.1-8.4-8.9-13.8-17.3-16.2c-8.4-2.4-23-3.6-43.6-3.6
	c-20.2,0-47.1,1.7-80.8,5v-72.3c36.1-7.2,72.4-10.8,108.9-10.8c36.1,0,63.5,4.8,82.2,14.4c18.8,9.6,31.5,24.8,38.2,45.5
	c6.7,20.7,10.1,50.3,10.1,88.8v225.3h-88.7l-2.9-43.4h-5c-6.3,17.8-16.4,30.4-30.3,38c-13.9,7.4-29.6,11.2-46.9,11.2
	C498.6,708.4,477.2,699.4,464.2,681.4z M588.6,624.7c5-1.9,9.3-5.5,12.6-10.8c5.3-8.2,7.9-24.8,7.9-49.9v-18h-43.3
	c-12.5,0-20.8,2.6-24.9,7.9s-6.1,16.8-6.1,34.7c0,15.4,2,25.7,6.1,31c4.1,5.3,13.3,7.9,27.8,7.9C577,627.5,583.6,626.6,588.6,624.7z
	 M880.4,708.4c-35.6,0-62-6.7-79.3-20.2c-17.3-13.5-28.7-33.2-34.3-59.2c-5.5-26-8.3-62.8-8.3-110.5s3-84.7,9-111.3
	c6-26.4,17.7-46.3,35-59.2c17.3-13,43-19.5,77.2-19.5c32.7,0,59.1,3.4,79.3,10.1v72.2c-22.1-2.9-39.7-4.3-52.6-4.3
	c-17.3,0-29.6,2.4-36.8,7.2c-7.2,4.8-12,14.7-14.4,29.6c-2.4,14.9-3.6,40-3.6,75.1c0,35.7,1.3,60.9,4,75.8
	c2.6,14.9,7.6,24.6,14.8,29.2c7.2,4.6,19.5,6.9,36.8,6.9c12,0,30-1.4,54.1-4.3v71.5C936.7,704.8,909.8,708.4,880.4,708.4z
	 M1261.2,547.4h-163.7c0,27.4,1.2,46.5,3.6,57.1c2.4,10.6,7.9,17.6,16.6,20.9c8.7,3.4,24.3,5,46.9,5c18.3,0,47.6-1.4,88-4.3v71.5
	c-13,2.9-29.8,5.4-50.5,7.6c-20.7,2.2-40.4,3.2-59.1,3.2c-42.8,0-73.9-6.4-93.4-19.1c-19.5-12.7-31.9-31.6-37.1-56.7
	c-5.3-25-7.9-62.8-7.9-113.4c0-49.6,2.6-87.1,7.9-112.7c5.3-25.5,17.3-44.9,36.1-58.2c18.8-13.2,48.3-19.8,88.7-19.8
	c39.4,0,67.9,6.1,85.5,18.4c17.5,12.3,28.4,30.6,32.5,55.3c4.1,24.5,6.1,63.6,6.1,117v28.1H1261.2z M1110.8,410.9
	c-5,3.4-8.5,10.3-10.5,20.9c-1.9,10.6-2.9,28.1-2.9,52.7h76.4c0-24.5-1-42.3-2.9-53.1c-1.9-10.8-5.3-17.8-10.1-20.9
	c-4.8-3.1-13-4.7-24.5-4.7C1124.4,405.8,1115.9,407.5,1110.8,410.9z M1482,662.9h-5c-6.3,15.9-15.6,27.4-28.1,34.7
	c-12.5,7.2-28.1,10.8-46.9,10.8c-24,0-42.5-5.9-55.5-17.7c-13-11.8-22.1-31.1-27.4-58.2c-5.3-26.9-7.9-65-7.9-114.1
	c0-50.6,2.9-89.3,8.7-116.3c5.8-26.9,15.1-46,28.1-57.1c13-11.1,31.5-16.6,55.5-16.6c39.9,0,64.9,16.3,75,49.1h5.8l2.9-43.4h88V844
	h-93V662.9H1482z M1466.8,619.2c5.3-3.6,9.1-10.5,11.5-20.6c2.4-11.5,3.6-38.3,3.6-80.1c0-25.5-0.2-44.1-0.7-55.6
	c-0.5-11.5-1.9-20.9-4.3-28.1c-1.9-8.7-5.4-14.5-10.5-17.7c-5-3.1-12.6-4.7-22.7-4.7c-13,0-22,1.9-27,5.8c-5,3.9-8.4,12.6-10.1,26.3
	c-1.7,13.7-2.5,38.4-2.5,74c0,35.7,0.8,60.3,2.5,74c1.7,13.7,5,22.5,10.1,26.3c5,3.9,14.1,5.8,27,5.8
	C1453.8,624.7,1461.5,622.8,1466.8,619.2z M1675.9,692.5c-18.3-10.6-30.1-28.4-35.3-53.5c-5.3-25-7.9-65.2-7.9-120.6
	s2.6-95.5,7.9-120.6s17.1-42.9,35.3-53.5c18.3-10.6,48.1-15.9,89.4-15.9c41.3,0,71.1,5.3,89.4,15.9c18.3,10.6,30,28.4,35.3,53.5
	c5.3,25,7.9,65.3,7.9,120.6c0,55.4-2.6,95.5-7.9,120.6c-5.3,25-17.1,42.9-35.3,53.5c-18.3,10.6-48.1,15.9-89.4,15.9
	C1724,708.4,1694.2,703.1,1675.9,692.5z M1793.9,623.9c5-4.3,8.2-13.3,9.4-27c1.2-13.7,1.8-39.9,1.8-78.3c0-38.6-0.6-64.6-1.8-78.3
	c-1.2-13.7-4.3-22.7-9.4-27c-5-4.3-14.5-6.5-28.5-6.5c-14,0-23.4,2.2-28.5,6.5c-5,4.3-8.2,13.3-9.4,27c-1.2,13.7-1.8,39.9-1.8,78.3
	c0,38.6,0.6,64.6,1.8,78.3c1.2,13.7,4.3,22.7,9.4,27c5,4.3,14.5,6.5,28.5,6.5C1779.3,630.4,1788.8,628.3,1793.9,623.9z
	 M1990.4,692.5c-18.3-10.6-30.1-28.4-35.3-53.5c-5.3-25-7.9-65.2-7.9-120.6s2.6-95.5,7.9-120.6c5.3-25,17.1-42.9,35.3-53.5
	c18.3-10.6,48.1-15.9,89.4-15.9s71.1,5.3,89.4,15.9c18.3,10.6,30,28.4,35.3,53.5s7.9,65.3,7.9,120.6c0,55.4-2.6,95.5-7.9,120.6
	c-5.3,25-17.1,42.9-35.3,53.5c-18.3,10.6-48.1,15.9-89.4,15.9C2038.4,708.4,2008.6,703.1,1990.4,692.5z M2108.3,623.9
	c5-4.3,8.2-13.3,9.4-27c1.2-13.7,1.8-39.9,1.8-78.3c0-38.6-0.6-64.6-1.8-78.3c-1.2-13.7-4.3-22.7-9.4-27c-5-4.3-14.5-6.5-28.5-6.5
	s-23.4,2.2-28.5,6.5c-5,4.3-8.2,13.3-9.4,27c-1.2,13.7-1.8,39.9-1.8,78.3c0,38.6,0.6,64.6,1.8,78.3c1.2,13.7,4.3,22.7,9.4,27
	c5,4.3,14.5,6.5,28.5,6.5C2093.7,630.4,2103.2,628.3,2108.3,623.9z M2441.9,702.6l-59.1-143.7h-19.5v143.7h-93V166h93v314.2h19.5
	l61.3-145.9h95.2L2460,509.7l80,192.8h-98.1V702.6z"/>
</svg>
