<svg viewBox="0 0 322 83" fill="none" xmlns="http://www.w3.org/2000/svg">

    <path fill="currentColor" d="M42.7,37.6h40c0.2,0.9,0.4,2,0.6,3.2c0.2,1.3,0.2,2.5,0.2,3.8c0,5.1-0.8,9.9-2.4,14.4s-4.1,8.5-7.5,12.1
    	c-3.6,3.8-8,6.7-13.1,8.8C55.4,82,49.6,83,43.1,83c-5.9,0-11.5-1-16.7-3.1s-9.8-5-13.7-8.7s-6.9-8.1-9.2-13.1C1.1,53,0,47.5,0,41.5
    	S1.1,30,3.4,24.9s5.4-9.4,9.2-13.1c3.9-3.7,8.4-6.6,13.7-8.7C31.5,1,37.1,0,43.1,0c6.6,0,12.5,1.1,17.7,3.3s9.7,5.3,13.4,9.2
    	L63.6,22.6c-2.7-2.7-5.6-4.8-8.9-6.3c-3.3-1.4-7.2-2.2-11.7-2.2c-3.7,0-7.3,0.6-10.6,1.9c-3.3,1.3-6.3,3.1-8.8,5.5s-4.5,5.2-6,8.6
    	s-2.2,7.1-2.2,11.3c0,4.1,0.7,7.9,2.2,11.3c1.5,3.4,3.5,6.2,6,8.6s5.5,4.2,8.8,5.5s6.9,1.9,10.7,1.9c4.3,0,8-0.6,11-1.8
    	c3-1.2,5.6-2.8,7.7-4.7c1.5-1.3,2.8-3,3.9-5s2-4.3,2.6-6.8H42.7V37.6z M133.3,83c-6,0-11.6-1.1-16.8-3.2c-5.2-2.1-9.6-5.1-13.4-8.8
    	c-3.8-3.7-6.7-8.1-8.9-13.2C92.1,52.7,91,47.3,91,41.5s1.1-11.2,3.2-16.3s5.1-9.5,8.9-13.2s8.2-6.7,13.4-8.8
    	c5.2-2.1,10.7-3.2,16.8-3.2c6,0,11.6,1.1,16.8,3.2s9.6,5.1,13.4,8.8c3.8,3.7,6.7,8.1,8.9,13.2c2.1,5.1,3.2,10.5,3.2,16.3
    	s-1.1,11.2-3.2,16.3c-2.1,5.1-5.1,9.5-8.9,13.2c-3.8,3.7-8.2,6.7-13.4,8.8C144.9,81.9,139.3,83,133.3,83z M133.3,68.8
    	c3.8,0,7.3-0.7,10.6-2s6.1-3.2,8.6-5.5c2.4-2.4,4.4-5.2,5.8-8.6c1.4-3.4,2.1-7.1,2.1-11.2s-0.7-7.8-2.1-11.2
    	c-1.4-3.4-3.3-6.2-5.8-8.6c-2.4-2.4-5.3-4.2-8.6-5.5s-6.8-2-10.6-2s-7.3,0.7-10.6,2s-6.1,3.2-8.6,5.5c-2.4,2.4-4.4,5.2-5.8,8.6
    	s-2.1,7.1-2.1,11.2s0.7,7.8,2.1,11.2s3.3,6.2,5.8,8.6c2.4,2.4,5.3,4.2,8.6,5.5C126,68.1,129.5,68.8,133.3,68.8z M203.2,14.8V34h33.9
    	v14.8h-33.9V68h37.7v15h-53.6V0h53.6v14.8H203.2z M277,44.4L248,0h19.4l17.2,27.5h1L302.2,0h19.6l-28.5,44.4V83H277V44.4z M133.5,83
    	c-6,0-11.6-1.1-16.8-3.2c-5.2-2.1-9.6-5.1-13.4-8.8c-3.8-3.7-6.7-8.1-8.9-13.2c-2.1-5.1-3.2-10.5-3.2-16.3s1.1-11.2,3.2-16.3
    	s5.1-9.5,8.9-13.2s8.2-6.7,13.4-8.8c5.2-2.1,10.7-3.2,16.8-3.2c6,0,11.6,1.1,16.8,3.2s9.6,5.1,13.4,8.8c3.8,3.7,6.7,8.1,8.9,13.2
    	c2.1,5.1,3.2,10.5,3.2,16.3s-1.1,11.2-3.2,16.3c-2.1,5.1-5.1,9.5-8.9,13.2c-3.8,3.7-8.2,6.7-13.4,8.8C145.1,81.9,139.5,83,133.5,83z
    	 M133.5,68.8c3.8,0,7.3-0.7,10.6-2s6.1-3.2,8.6-5.5c2.4-2.4,4.4-5.2,5.8-8.6c1.4-3.4,2.1-7.1,2.1-11.2s-0.7-7.8-2.1-11.2
    	c-1.4-3.4-3.3-6.2-5.8-8.6c-2.4-2.4-5.3-4.2-8.6-5.5s-6.8-2-10.6-2s-7.3,0.7-10.6,2s-6.1,3.2-8.6,5.5c-2.4,2.4-4.4,5.2-5.8,8.6
    	s-2.1,7.1-2.1,11.2s0.7,7.8,2.1,11.2s3.3,6.2,5.8,8.6c2.4,2.4,5.3,4.2,8.6,5.5C126.2,68.1,129.7,68.8,133.5,68.8z M203.4,14.8V34
    	h33.9v14.8h-33.9V68h37.7v15h-53.6V0h53.6v14.8H203.4z M277.2,44.4L248.2,0h19.4l17.2,27.5h1L302.4,0H322l-28.5,44.4V83h-16.3V44.4z
    	"/>
</svg>
