<svg viewBox="0 0 1000 1000" xmlns="http://www.w3.org/2000/svg">
	<path fill="#FBBC04" d="M610.5,159L175,594.5L67.5,487L503,51.5L610.5,159z"/>
	<path fill="#34A853" d="M770.2,319.6L516.4,573.4L409,465.9l253.8-253.8L770.2,319.6z"/>
	<path fill="#FBBC04" d="M594,495.9L335.6,754.2L228.2,646.7l258.4-258.4L594,495.9z"/>
	<path fill="#3B80EF" d="M502.1,267.3L394.7,159.9L502.9,51.7l107.4,107.4L502.1,267.3z"/>
	<path fill="#34A853" d="M933.4,481.9L497.9,917.4L390.4,810L826,374.4L933.4,481.9z"/>
	<path fill="#FBBC04" d="M497.2,918.3L389.6,810.8l108.2-108.2l107.5,107.5L497.2,918.3z"/>
	<path fill="#3B80EF" d="M498.7,591.1L391.3,483.7l108.2-108.2l107.4,107.4L498.7,591.1z"/>
</svg>
