<svg viewBox="0 0 2761 991" xmlns="http://www.w3.org/2000/svg">
<path fill="currentColor" fill-rule="nonzero" d="M370.9,689.5h-64.7V279c-26.5,7.5-47.5,20.4-63,38.6c-15.4,18.2-23.2,41-23.2,68.3c0,10.7,0.8,19.7,2.4,27
	c1.6,7.3,3.5,13.7,5.9,19c2.4,5.3,5.2,9.9,8.5,13.7c3.3,3.8,6.8,7.2,10.3,10.4c-23.7,0-42.4-5.4-56.3-16.3
	c-13.8-10.9-20.7-29.4-20.7-55.5c0-19,4.9-36.9,14.8-53.8c9.9-16.8,23-31.7,39.4-44.5c16.4-12.9,35.1-23.1,56.3-30.6
	c21.1-7.5,42.9-11.3,65.4-11.3c4.3,0,8.6,0.1,12.7,0.3c4.1,0.2,8.2,0.5,12.1,0.9v444.3H370.9z M485.6,392.4v45.1
	c5.9-10.7,12-19.3,18.1-25.8c6.1-6.5,12.4-11.4,18.7-14.6c6.3-3.2,12.4-5.2,18.1-6.2c5.7-1,11.2-1.5,16.3-1.5
	c17.8,0,32.2,3.4,43.1,10.1c10.9,6.7,19.1,15.4,24.7,25.8c5.5,10.5,9.2,22,11,34.5c1.8,12.5,2.7,24.5,2.7,35.9
	c0,7.1-0.2,15-0.6,23.5c-0.4,8.5-0.8,17.2-1.2,26.1c-0.4,8.9-0.8,17.8-1.2,26.7c-0.4,8.9-0.6,17.1-0.6,24.7c0,3.2,0.2,7.6,0.6,13.4
	c0.4,5.7,1.4,11.4,3,16.9c1.6,5.6,4.2,10.4,7.7,14.6c3.6,4.2,8.7,6.2,15.4,6.2c9.1,0,17.3-5.1,24.7-15.4
	c7.3-10.3,13.4-26.7,18.1-49.3h22c-4.4,24.9-9.9,44.7-16.6,59.1c-6.7,14.5-13.9,25.4-21.4,33c-7.5,7.5-15.1,12.4-22.6,14.6
	c-7.5,2.2-14.5,3.3-20.8,3.3c-12.7,0-23.4-2.5-32.1-7.4c-8.7-4.9-15.8-11.6-21.4-19.9c-5.6-8.3-9.6-18-12.2-29.1
	c-2.6-11.1-3.9-22.6-3.9-34.5c0-3.6,0.1-10.2,0.3-19.9c0.2-9.7,0.4-20.1,0.6-31.2c0.2-11.1,0.4-21.6,0.6-31.5
	c0.2-9.9,0.3-16.8,0.3-20.8c0-12.7-1-23.2-3-31.5s-4.8-14.9-8.3-19.6c-3.6-4.8-7.6-8.1-12.2-10.1c-4.6-2-9.4-3-14.6-3
	c-12.3,0-22.9,5-31.8,14.8c-8.9,9.9-16.1,26.5-21.7,49.9v190.1H426V392.4H485.6z M932.5,583.2c-11.5,15.8-23.3,29-35.3,39.5
	c-12.1,10.5-23.9,19.7-35.3,27.6c-4.4,7.9-9.9,14.6-16.6,19.9c-6.7,5.3-14,9.7-21.7,13.1c-7.7,3.4-15.4,5.8-23.2,7.4
	c-7.7,1.6-14.8,2.4-21.1,2.4c-17.4,0-31.8-2.8-43.1-8.3s-20.3-12.6-27-21.1c-6.7-8.5-11.5-18-14.3-28.5c-2.8-10.5-4.2-20.5-4.2-30
	c0-10.3,2.1-19.3,6.2-27c4.2-7.7,9.2-13.2,15.1-16.3c10.3-29.7,20.4-59.1,30.3-88.2c9.9-29.1,16.4-58.3,19.6-87.6l60-11.9
	c9.5,37.6,17.3,68.3,23.5,92.1c6.1,23.8,11.1,43.9,14.9,60.3c3.8,16.4,6.5,30.9,8.3,43.4c1.8,12.5,2.7,26.2,2.7,41.3
	c6.7-4.4,13.1-9,19-14c5.9-4.9,11.7-9.6,17.2-14h25V583.2z M808.3,606.9c0-12.3-0.7-23.2-2.1-32.7c-1.4-9.5-3.5-20-6.2-31.5
	c-2.8-11.5-6.2-25.4-10.4-41.9c-4.2-16.4-9-37.5-14.6-63.3c-2.4,22.2-7.2,43.4-14.6,63.6c-7.3,20.2-14,41-19.9,62.4
	c3.6,2.4,6.6,5.6,9.2,9.8c2.6,4.2,3.9,9.6,3.9,16.3c0,7.5-2,13.3-5.9,17.2c-4,4-8.3,5.9-13.1,5.9c-6.3,0-11.7-2.8-16-8.3
	c3.2,13.9,8.7,24.7,16.6,32.4s18.4,11.6,31.5,11.6c12.7,0,22.8-3.3,30.3-9.8C804.5,632.2,808.3,621.6,808.3,606.9z M967,302.1v90.3
	h45.7v21.4H967v180.7c0,4.7,0.2,10.2,0.6,16.3c0.4,6.1,1.5,11.9,3.3,17.5c1.8,5.5,4.5,10.2,8.3,13.9c3.8,3.7,9,5.6,15.7,5.6
	c10.7,0,20.9-5.3,30.6-16c9.7-10.7,17.3-26.9,22.9-48.7h22c-6.7,24.9-14,44.7-21.7,59.1c-7.7,14.5-15.7,25.4-24.1,33
	c-8.3,7.5-16.5,12.4-24.7,14.6c-8.1,2.2-15.5,3.3-22.3,3.3c-14.3,0-25.9-2.7-35-8c-9.1-5.3-16.2-12.1-21.4-20.4
	c-5.2-8.3-8.7-17.5-10.7-27.6c-2-10.1-3-20.1-3-29.9V413.8h-20.1v-21.4h20.2v-82L967,302.1z M1266.5,392.4v202c0,4,0.2,8.9,0.6,14.9
	c0.4,5.9,1.5,11.8,3.3,17.5c1.8,5.7,4.5,10.7,8,14.8c3.6,4.2,8.5,6.2,14.9,6.2c19.4,0,33.7-21.6,42.8-64.7h22
	c-4.4,24.9-9.9,44.7-16.6,59.1c-6.7,14.5-13.9,25.4-21.4,33c-7.5,7.5-15.2,12.4-23.2,14.6c-7.9,2.2-15.1,3.3-21.4,3.3
	c-9.1,0-16.9-1.6-23.5-4.8c-6.5-3.2-12.1-7.3-16.6-12.5c-4.6-5.1-8.2-11.1-11-17.8c-2.8-6.7-5-13.9-6.5-21.4
	c-5.9,15.4-15.5,28.7-28.8,39.8c-13.3,11.1-29.4,16.6-48.4,16.6c-11.9,0-23.9-2.4-35.9-7.1c-12.1-4.8-23-12.6-32.7-23.5
	s-17.6-24.9-23.8-42.2c-6.1-17.2-9.2-38.3-9.2-63.3c0-18.2,2.1-37.2,6.2-57c4.2-19.8,10.8-37.8,19.9-54.1
	c9.1-16.2,20.8-29.7,35-40.4c14.3-10.7,31.5-16,51.7-16c4.8,0,9.8,0.5,15.1,1.5c5.3,1,10.5,2.6,15.4,5c4.9,2.3,9.6,5.5,14,9.6
	c4.4,4.1,7.9,9,10.7,14.9v-28H1266.5z M1155.3,647.9c5.9,0,12-1.7,18.1-5.1c6.1-3.4,11.7-7.9,16.6-13.7s9-12.6,12.2-20.5
	s4.8-16.5,4.8-25.6V447.1c-2.8-6.3-7-12.2-12.8-17.6c-5.7-5.4-13.2-8-22.3-8c-12.7,0-23.6,4.3-32.7,12.8s-16.4,19.3-22,32.2
	c-5.6,12.9-9.6,27-12.2,42.3s-3.9,29.9-3.9,43.8c0,34.2,4.6,58.6,14,73.3C1124.5,640.6,1137.9,647.9,1155.3,647.9z M1554.7,392.4
	V677c9.9-3.2,18.7-6.7,26.4-10.7c7.7-4,14.5-9.3,20.2-16c5.7-6.7,10.5-15.4,14.3-26.1s6.6-24.4,8.6-41h22
	c-3.2,21-7.2,38.1-12.2,51.4c-5,13.3-11.1,24-18.4,32.1c-7.3,8.1-16,14.5-26.1,19c-10.1,4.5-21.7,8.8-34.7,12.8v38
	c0,18.6-2,34.3-5.9,47.2c-4,12.9-9.4,23.4-16.3,31.5c-6.9,8.1-14.8,14-23.8,17.5c-8.9,3.6-18.3,5.3-28.2,5.3
	c-19.8,0-35.2-5.6-46.3-16.9c-11.1-11.3-16.6-25.1-16.6-41.3c0-10.3,2.3-19.6,6.8-27.9c4.5-8.3,10.5-15.9,17.8-22.9
	c7.3-6.9,15.6-13.1,24.9-18.4c9.3-5.3,18.7-10,28.2-14v-51.1c-7.5,10.3-16.9,18.8-28.2,25.5c-11.3,6.7-24.1,10.1-38.3,10.1
	c-11.9,0-23.9-2.3-35.9-6.8c-12.1-4.5-23-12-32.7-22.3c-9.7-10.3-17.6-23.8-23.8-40.4c-6.1-16.6-9.2-36.8-9.2-60.6
	c0-17.8,2.1-36.2,6.2-55.2c4.2-19,10.8-36.3,19.9-52c9.1-15.6,20.8-28.6,35-38.9c14.3-10.3,31.5-15.4,51.7-15.4
	c4.8,0,9.8,0.5,15.1,1.5c5.3,1,10.5,2.6,15.4,5c4.9,2.3,9.6,5.5,14,9.6c4.4,4.1,7.9,9,10.7,14.9v-28H1554.7z M1443.6,636
	c5.9,0,12-1.6,18.1-4.8c6.1-3.2,11.7-7.5,16.6-13.1c4.9-5.6,9-12.1,12.2-19.7c3.2-7.5,4.8-15.7,4.8-24.4V447.1
	c-2.8-6.3-7-12.2-12.8-17.6c-5.7-5.4-13.2-8-22.3-8c-12.7,0-23.6,4.1-32.7,12.2c-9.1,8.1-16.4,18.4-22,30.7
	c-5.6,12.3-9.6,25.8-12.2,40.5s-3.9,28.6-3.9,41.7c0,32.2,4.6,55.1,14,68.8S1426.1,636,1443.6,636z M1469.1,807.1
	c10.7,0,17.7-4.1,21.1-12.2c3.4-8.1,5-19.1,5-33v-41.6c-19.8,9.1-33.9,18.1-42.2,27c-8.3,8.9-12.5,18.9-12.5,30
	c0,9.1,2.5,16.3,7.4,21.7C1453,804.4,1460,807.1,1469.1,807.1z M1613.6,306.9c0-10.7,3.8-20,11.3-27.9c7.5-7.9,16.8-11.9,27.9-11.9
	c10.7,0,20,4,27.9,11.9c7.9,7.9,11.9,17.2,11.9,27.9c0,11.1-4,20.4-11.9,27.9c-7.9,7.5-17.2,11.3-27.9,11.3
	c-11.1,0-20.4-3.8-27.9-11.3C1617.3,327.3,1613.6,318,1613.6,306.9z M1683.6,392.4v202c0,4,0.2,8.9,0.6,14.9
	c0.4,5.9,1.5,11.8,3.3,17.5c1.8,5.7,4.5,10.7,8,14.8c3.6,4.2,8.5,6.2,14.8,6.2c19.4,0,33.7-21.6,42.8-64.7h22
	c-4.4,24.9-9.9,44.7-16.6,59.1c-6.7,14.5-13.9,25.4-21.4,33c-7.5,7.5-15.2,12.4-23.2,14.6c-7.9,2.2-15.1,3.3-21.4,3.3
	c-13.9,0-25.2-2.7-33.9-8c-8.7-5.3-15.6-12.2-20.8-20.5c-5.2-8.3-8.7-17.6-10.7-27.9c-2-10.3-3-20.2-3-29.7V392.4H1683.6z
	 M1811.9,392.4v49.9c4.8-7.1,9.4-13.9,14-20.2c4.5-6.3,9.6-11.9,15.1-16.6c5.5-4.8,11.7-8.6,18.4-11.6c6.7-3,14.3-4.5,22.6-4.5
	c13.5,0,23.4,3.5,29.7,10.4s9.5,15.4,9.5,25.2c0,5.9-1,10.9-3,14.9c-2,4-4.4,7.1-7.1,9.5c-2.8,2.4-5.7,4.1-8.9,5
	c-3.2,1-5.9,1.5-8.3,1.5c-3.6,0-6.4-0.8-8.6-2.4c-2.2-1.6-4.4-3.3-6.5-5c-2.2-1.8-4.7-3.5-7.4-5c-2.8-1.6-6.3-2.4-10.7-2.4
	c-9.1,0-17.8,3.2-26.1,9.5c-8.3,6.3-15.8,13.1-22.6,20.2v218.6h-59.4V392.4H1811.9z M2061,389.4c15.4,0,28.7,2.4,39.8,7.1
	c11.1,4.8,20.2,11.4,27.3,19.9c7.1,8.5,12.8,18.5,16.9,30c4.2,11.5,7.2,23.8,9.2,36.8h3.6c16.6,0,31.9-3.4,45.7-10.1
	c13.9-6.7,25.7-15.2,35.6-25.5l8.9,16c-7.9,12.7-20.5,23.2-37.7,31.5s-35,14.1-53.2,17.2c0,4,0.1,7.9,0.3,11.9s0.3,8.1,0.3,12.5
	c0,48.7-8.9,86.9-26.7,114.6c-17.8,27.7-42.8,41.6-74.8,41.6c-13.1,0-26.2-2.4-39.5-7.1c-13.3-4.8-25.2-12.7-35.9-23.8
	c-10.7-11.1-19.3-25.3-25.8-42.8c-6.5-17.4-9.8-39-9.8-64.7c0-17.4,1.9-35.8,5.6-55.2c3.8-19.4,10.1-37.2,19-53.5
	c8.9-16.2,20.8-29.7,35.6-40.4C2020.2,394.8,2038.7,389.4,2061,389.4z M2067.3,647.9c20.9,0,36.2-10.4,46.1-31.2
	c9.8-20.8,14.8-50.2,14.8-88.2c0-2.4,0-4.8,0-7.1c0-2.3-0.2-4.8-0.6-7.1c-11.5-0.8-19.7-3.4-24.7-7.7c-5-4.4-7.4-11.7-7.4-22
	c0-9.1,2-15.5,5.9-19.3c4-3.8,9.9-5.8,17.8-6.2c-4.7-14.1-10.7-23.8-18-29.3c-7.3-5.4-15.5-8.1-24.5-8.1c-12.2,0-22.6,4.1-31,12.2
	c-8.5,8.1-15.4,18.6-20.7,31.3c-5.3,12.7-9.2,26.7-11.5,42c-2.4,15.3-3.5,30.3-3.5,45c0,19.5,1.8,35.3,5.3,47.7
	c3.5,12.3,8.1,22,13.6,29.2c5.5,7.1,11.6,12.1,18.3,14.9C2053.9,646.5,2060.6,647.9,2067.3,647.9z M2260.6,392.4v41
	c10.3-19,21.2-31.1,32.7-36.2s22.4-7.7,32.7-7.7s19.3,1.4,27,4.2c7.7,2.8,14.3,6.5,19.9,11.3c5.5,4.8,10.2,10.3,14,16.6
	c3.8,6.3,6.8,13.3,9.2,20.8c5.5-11.9,11.3-21.3,17.2-28.2c5.9-6.9,11.9-12.3,17.8-16c5.9-3.8,11.8-6.1,17.5-7.1
	c5.7-1,11-1.5,15.7-1.5c17.8,0,32.2,3.4,43.1,10.1s19.1,15.4,24.7,25.8c5.5,10.5,9.2,22,11,34.5c1.8,12.5,2.7,24.5,2.7,35.9
	c0,7.1-0.2,15-0.6,23.5c-0.4,8.5-0.8,17.2-1.2,26.1c-0.4,8.9-0.8,17.8-1.2,26.7c-0.4,8.9-0.6,17.1-0.6,24.7c0,3.2,0.2,7.6,0.6,13.4
	c0.4,5.7,1.4,11.4,3,16.9c1.6,5.6,4.2,10.4,7.7,14.6c3.6,4.2,8.7,6.2,15.4,6.2c10.7,0,19-1.8,24.9-5.3v4.2c0,9.9-1.4,17.9-4.2,24.1
	c-2.8,6.1-6.2,10.8-10.4,14s-8.7,5.3-13.7,6.5c-5,1.2-9.4,1.8-13.4,1.8c-12.7,0-23.4-2.5-32.1-7.4c-8.7-4.9-15.8-11.6-21.4-19.9
	c-5.6-8.3-9.6-18-12.2-29.1c-2.6-11.1-3.9-22.6-3.9-34.5c0-3.6,0.1-10.2,0.3-19.9c0.2-9.7,0.4-20.1,0.6-31.2
	c0.2-11.1,0.4-21.6,0.6-31.5c0.2-9.9,0.3-16.8,0.3-20.8c0-12.7-1-23.2-3-31.5c-2-8.3-4.8-14.9-8.3-19.6c-3.6-4.8-7.6-8.1-12.2-10.1
	c-4.6-2-9.4-3-14.6-3c-12.3,0-22.3,5-30,14.8c-7.7,9.9-13.2,26.5-16.3,49.9v189.9h-59.4V491c0-7.1-0.3-14.1-0.9-20.8
	c-0.6-6.7-2.1-12.8-4.5-18.1c-2.4-5.3-5.7-9.6-10.1-12.8c-4.4-3.2-10.3-4.8-17.8-4.8c-12.7,0-22.3,5.3-28.8,15.7
	c-6.5,10.5-12.6,26.8-18.1,49v190.2h-59.4V392.4H2260.6z"/>
</svg>
