<svg viewBox="0 0 2761 991" xmlns="http://www.w3.org/2000/svg">
<path fill="currentColor" fill-rule="nonzero" d="M280.8,345.5h15.7c26,0,47.1,21.1,47.1,47.1l0,0c0,91.7-0.3,183.5,0,275.2c0,1.1,0,2.2,0,3.3c0.1,6.2,0.9,12.4,1.2,18.6
	c-0.6-17.4,0.6,1.2,1.9,6.6c1.4,5.8,3.2,11.6,5.2,17.2c0.3,0.8,0.8,2,1.3,3.1c0.4,0.8,0.7,1.6,1.1,2.4c2.8,5.5,5.8,10.9,9.1,16.1
	c1.4,2.1,2.8,4.2,4.2,6.3c0,0.1,0.1,0.1,0.1,0.2c7.8,7.8,15.6,15.6,23.4,23.4c2.2,1.5,4.3,3,6.5,4.4c5,3.2,10.1,6.1,15.4,8.7
	c1.8,0.9,4.4,1.7,6.2,2.8c5.6,2,11.4,3.8,17.2,5.2c5.4,1.3,24,2.5,6.6,1.9c6.8,0.2,13.5,1.1,20.3,1.2c4.5,0,9.1-0.2,13.6-0.5
	c1.1-0.1,2.9-0.5,4.5-0.6c0.1,0,0.2,0,0.3,0c5-1,10-2.2,14.9-3.6c3.1-0.9,6.4-2.4,9.6-3.7c-0.6,0.6,0.6,0.8,3.1-0.5
	c0.9-0.5,1.9-0.9,2.8-1.4c0.5-0.1,1-0.2,1.4-0.3c-0.5,0.1-0.9,0.1-1.3,0.2c1.9-0.9,3.8-1.9,5.7-2.9c4.2-2.3,8.4-4.8,12.4-7.4
	c1.3-0.8,2.5-1.7,3.8-2.6c-0.2,0.3-0.4,0.5-0.6,0.8c0.2-0.3,0.5-0.6,0.8-0.9c0.9-0.6,1.8-1.3,2.7-1.9c2.5-1.7,2.8-2.9,1.5-2.3
	c3.2-2.7,6.7-5.2,9.3-7.7c3.1-3.1,6.1-6.3,8.9-9.6c0,0,0,0,0,0c0.9-1.4,2.3-2.9,2.9-3.8c3-4.4,5.9-9,8.5-13.6
	c2.3-4,3.9-9.9,6.7-13.6c0.7-1.9,1.4-3.9,2-5.9c1.7-5.2,3.1-10.5,4.2-15.9c0.4-1.9,0.7-3.7,1.1-5.6c0.4-5.5,0.8-11,0.8-16.5
	c0.2-26.2,0-52.4,0-78.6V392.6c0-26,21.1-47.1,47.1-47.1H646c26,0,47.1,21.1,47.1,47.1v12.2c0,88.2,0.8,176.4,0,264.6
	c-1.1,124.7-104.2,229.7-229.7,229.7c-1,0-2,0-3-0.1C354,896.6,255.2,818.1,237.8,711c-5.8-35.7-4.1-72-4.1-108V392.6
	C233.7,366.6,254.8,345.5,280.8,345.5z M517.6,648.2V437.8c0-36,1.7-72.3-4.1-108c-17.4-107.2-116.2-185.6-222.7-188.1
	c-1-0.1-2-0.1-3-0.1c-125.5,0-228.6,105-229.7,229.7c-0.8,88.2,0,176.4,0,264.6v12.2c0,26,21.1,47.1,47.1,47.1H121
	c26,0,47.1-21.1,47.1-47.1V450c0-26.2-0.2-52.4,0-78.6c0-5.5,0.4-11,0.8-16.5c0.4-1.9,0.7-3.7,1.1-5.6c1.2-5.4,2.6-10.7,4.2-15.9
	c0.6-2,1.3-3.9,2-5.9c2.8-3.7,4.4-9.6,6.7-13.6c2.6-4.7,5.5-9.2,8.5-13.6c0.6-0.9,2-2.4,2.9-3.8c0,0,0,0,0,0
	c2.9-3.3,5.8-6.5,8.9-9.6c2.6-2.6,6.1-5.1,9.3-7.7c-1.2,0.6-1-0.6,1.5-2.3c0.9-0.6,1.8-1.2,2.7-1.9c0.3-0.3,0.5-0.6,0.8-0.9
	c-0.2,0.3-0.4,0.6-0.6,0.8c1.3-0.9,2.5-1.7,3.8-2.6c4-2.6,8.2-5.1,12.4-7.4c1.9-1,3.8-1.9,5.7-2.9c-0.4,0.1-0.8,0.1-1.3,0.2
	c0.5-0.1,1-0.2,1.4-0.3c0.9-0.5,1.9-0.9,2.8-1.4c2.4-1.3,3.7-1.1,3.1-0.5c3.3-1.3,6.6-2.8,9.6-3.7c4.9-1.4,9.9-2.6,14.9-3.6
	c0.1,0,0.2,0,0.3,0c1.6-0.2,3.4-0.5,4.5-0.6c4.5-0.4,9.1-0.5,13.6-0.5c6.8,0.1,13.5,0.9,20.3,1.2c-17.4-0.6,1.2,0.6,6.6,1.9
	c5.8,1.4,11.6,3.2,17.2,5.2c1.9,1.1,4.4,1.9,6.2,2.8c5.3,2.7,10.4,5.6,15.4,8.7c2.2,1.4,4.3,2.9,6.5,4.4
	c7.8,7.8,15.6,15.6,23.4,23.4c0,0.1,0.1,0.1,0.1,0.2c1.4,2.1,2.8,4.2,4.2,6.3c3.3,5.2,6.4,10.6,9.1,16.1c0.4,0.8,0.7,1.6,1.1,2.4
	c0.5,1.2,1,2.3,1.3,3.1c2,5.7,3.8,11.4,5.2,17.2c1.3,5.4,2.5,24,1.9,6.6c0.2,6.2,1.1,12.4,1.2,18.6c0,1.1,0,2.2,0,3.3
	c0.3,91.7,0,183.5,0,275.2l0,0c0,26,21.1,47.1,47.1,47.1h15.8C496.5,695.3,517.6,674.2,517.6,648.2z M866.6,692.3V473.1h-53.4v219.2
	H866.6z M976.4,473.1v219.2h77.1c35,0,63.7-10.2,86.2-30.6c22.5-20.4,33.7-46.8,33.7-79.1c0-32.4-11.2-58.7-33.7-79
	c-22.5-20.3-51.2-30.4-86.2-30.4H976.4z M1029.8,513.7h23.7c20.4,0,36.4,6.2,48.1,18.7c11.7,12.5,17.5,29.2,17.5,50.3
	c0,21-5.8,37.8-17.5,50.3c-11.7,12.5-27.7,18.7-48.1,18.7h-23.7V513.7z M1270.2,472.5v219.8h132.7v-40.6h-79.3v-50.9h69.9v-40.6
	h-69.9v-47.1h79.3v-40.6H1270.2z M1654.5,610.8l-89.3-138.3h-53.4v219.8h53.4V554l89.3,138.3h53.4V472.5h-53.4V610.8z M1862.5,513.7
	v178.6h53.4V513.7h59.9v-40.6h-173v40.6H1862.5z M2124.1,692.3V473.1h-53.4v219.2H2124.1z M2278.6,513.7v178.6h53.4V513.7h59.9
	v-40.6h-173v40.6H2278.6z M2597.4,621.8l75.9-148.6h-60.6l-41.8,99l-42.1-99h-60.6l75.9,148.6v70.6h53.4V621.8z"/>
</svg>
