<svg viewBox="0 0 222 52" fill="none" xmlns="http://www.w3.org/2000/svg">
<path fill="currentColor" d="M0.3,1.5h6.8v43.9h23.1v6.4H0.3V1.5z M40.7,1.5h7.9l14.8,40.9h0.1L78.8,1.5h7.5L66.4,51.8h-6.4L40.7,1.5z M109.2,1.5h17.7
	c3.2,0,5.9,0.4,8,1.3c2.1,0.9,3.7,2,4.9,3.3c1.2,1.3,2,2.9,2.5,4.5c0.5,1.7,0.7,3.3,0.7,4.9c0,1.6-0.3,3.2-0.9,4.7
	c-0.6,1.5-1.4,2.8-2.5,4c-1.1,1.2-2.4,2.2-3.9,3.1c-1.5,0.8-3.3,1.3-5.1,1.5l14.3,22.9h-8.5l-12.8-22.2H116v22.2h-6.8V1.5z
	 M116,23.7h8.9c1.3,0,2.6-0.1,3.9-0.3s2.5-0.6,3.5-1.2c1-0.6,1.8-1.4,2.4-2.4s0.9-2.4,0.9-4.2s-0.3-3.1-0.9-4.2
	c-0.6-1.1-1.4-1.9-2.4-2.4c-1-0.6-2.2-1-3.5-1.2s-2.6-0.3-3.9-0.3H116V23.7z M221.4,51.8h-29c-3.5,0-6.9-0.6-10.1-1.9
	c-3.2-1.3-5.9-3.1-8.3-5.3c-2.4-2.3-4.2-5-5.6-8.1c-1.4-3.1-2.1-6.6-2.1-10.3c0-3.7,0.7-7.1,2-10.3c1.3-3.1,3.2-5.9,5.5-8.2
	c2.3-2.3,5.1-4.1,8.2-5.4c3.1-1.3,6.6-2,10.3-2c3.5,0,6.9,0.6,10,1.9c3.1,1.3,5.8,3,8.1,5.3c2.3,2.2,4.2,4.9,5.5,8
	c1.3,3.1,2,6.4,2,10c0,2.1-0.2,4.2-0.7,6.3c-0.5,2.1-1.2,4-2.2,5.8c-1,1.8-2.2,3.4-3.6,4.8c-1.4,1.4-3.1,2.6-4.9,3.4v0.1h14.9V51.8z
	 M192.1,45.4c2.7,0,5.3-0.5,7.6-1.5c2.3-1,4.3-2.4,5.9-4.2c1.6-1.8,2.9-3.9,3.8-6.3c0.9-2.4,1.3-5,1.3-7.7c0-2.7-0.5-5.1-1.4-7.5
	c-0.9-2.3-2.2-4.3-3.9-6c-1.7-1.7-3.6-3.1-5.9-4c-2.3-1-4.8-1.5-7.5-1.5c-2.7,0-5.1,0.5-7.3,1.5c-2.2,1-4.2,2.3-5.9,4
	c-1.7,1.7-3,3.7-3.9,6c-0.9,2.3-1.4,4.7-1.4,7.3c0,2.7,0.4,5.3,1.3,7.7c0.9,2.4,2.2,4.5,3.8,6.3s3.6,3.2,5.9,4.3
	C186.9,44.9,189.4,45.4,192.1,45.4z"/>
</svg>
