<svg viewBox="0 0 2761 991" xmlns="http://www.w3.org/2000/svg">
<path fill="currentColor" fill-rule="nonzero" d="M322,286.4v50.9c21.9-36.4,56.9-54.6,104.9-54.6c39.7,0,71.9,13.2,96.5,39.7c24.6,26.5,36.9,62.5,36.9,108v202.3H454.8v-188
	c0-22.3-5.9-39.6-17.7-51.8c-11.8-12.2-28-18.3-48.7-18.3c-20.7,0-36.9,6.1-48.7,18.3C327.9,405,322,422.3,322,444.6v188H216V286.4
	H322z M664.5,587.3c-30.6-33.1-45.9-75.5-45.9-127.2c0-51.7,15.3-94.2,45.9-127.5c30.6-33.3,67.9-49.9,112-49.9
	c44,0,77.9,16.3,101.4,49v-45.3H984v346.2H877.9v-50.3c-25.7,36.4-60,54.6-103,54.6C731.9,636.9,695.1,620.4,664.5,587.3z
	 M855,522.8c15.3-14.9,23-36,23-63.3c0-27.3-7.7-48.3-23-63c-15.3-14.7-32.9-22-52.7-22c-19.8,0-37.4,7.4-52.7,22.3
	c-15.3,14.9-23,36-23,63.3c0,27.3,7.7,48.3,23,63c15.3,14.7,32.9,22,52.7,22C822.1,545.1,839.7,537.7,855,522.8z M1217.9,542.6h37.8
	v90h-54c-38.9,0-69-8.6-90.3-25.7c-21.3-17.2-32-46.6-32-88.4V374.5h-32.3v-88.1h32.3V202h106.1v84.4h69.5v88.1h-69.5v143.9
	C1185.7,534.6,1196.4,542.6,1217.9,542.6z M1557.3,286.4h106.1v346.2h-106.1v-50.9c-21.9,36.4-56.9,54.6-104.9,54.6
	c-39.7,0-71.9-13.2-96.5-39.7c-24.6-26.5-36.9-62.4-36.9-108V286.4h105.5v188c0,22.3,5.9,39.6,17.7,51.8
	c11.8,12.2,28,18.3,48.7,18.3c20.7,0,36.9-6.1,48.7-18.3c11.8-12.2,17.7-29.5,17.7-51.8V286.4z M1856.3,286.4v64.5
	c24.8-45.5,57.9-68.3,99.3-68.3v108h-26.1c-24.4,0-42.7,5.8-54.9,17.4c-12.2,11.6-18.3,31.9-18.3,60.8v163.8h-106.1V286.4H1856.3z
	 M2027.6,587.3c-30.6-33.1-45.9-75.5-45.9-127.2c0-51.7,15.3-94.2,45.9-127.5c30.6-33.3,67.9-49.9,112-49.9c44,0,77.9,16.3,101.4,49
	v-45.3h106.1v346.2H2241v-50.3c-25.6,36.4-60,54.6-103,54.6C2095,636.9,2058.2,620.4,2027.6,587.3z M2218,522.8
	c15.3-14.9,23-36,23-63.3c0-27.3-7.7-48.3-23-63c-15.3-14.7-32.9-22-52.7-22c-19.9,0-37.4,7.4-52.7,22.3c-15.3,14.9-23,36-23,63.3
	c0,27.3,7.6,48.3,23,63c15.3,14.7,32.9,22,52.7,22C2185.2,545.1,2202.7,537.7,2218,522.8z M2434,632.6V173.5H2540v459.1H2434z
	 M330.3,693.2v104.1h-17.1V726l-31.8,71.3h-11.8L237.7,726v71.3h-17.1V693.2h18.4l36.6,81.7l36.4-81.7H330.3z M448.7,797.3V693.2
	h17.1v104.1H448.7z M652.6,693h17.1v104.3h-17.1l-51.4-77.8v77.8h-17.1V693h17.1l51.4,77.6V693z M845.5,693v13.3h-40.5V738h36v13.2
	h-36V784h40.5v13.3H788V693H845.5z M979.4,755.1v42.2h-17.1V693.2h36c11.8,0,20.9,2.9,27.3,8.8c6.4,5.8,9.6,13.3,9.6,22.3
	c0,7-2.1,13.3-6.4,18.9c-4.2,5.6-10.8,9.2-19.6,10.9l27.6,43.3H1016l-26.1-42.2H979.4z M979.4,706.5v35.2h18.9
	c6.5,0,11.3-1.6,14.5-4.6c3.2-3.1,4.8-7.4,4.8-13c0-5.5-1.6-9.9-4.8-13c-3.2-3.1-8.1-4.6-14.5-4.6H979.4z M1223.2,797.3l-7.5-21.3
	h-43.6l-7.5,21.3h-17.8l37.3-104.3h19.8l37.3,104.3H1223.2z M1176.8,762.7h34.3l-17.1-49L1176.8,762.7z M1353.3,693.2h17.1v91.1
	h35.2v13h-52.3V693.2z M1773.8,693.2h18.3l-30.9,104.1h-19.3l-21.9-78.8l-23.2,78.8l-19.2,0.1l-29.5-104.3h18.1l21.6,84.8l23.4-84.8
	h19.2l21.7,84.3L1773.8,693.2z M1972.3,797.3l-7.5-21.3h-43.6l-7.5,21.3h-17.8l37.3-104.3h19.8l37.3,104.3H1972.3z M1925.8,762.7
	h34.3l-17.1-49L1925.8,762.7z M2096.9,706.5v-13.3h72.7v13.3h-27.7v90.8h-17.1v-90.8H2096.9z M2340.2,693v13.3h-40.5V738h36v13.2
	h-36V784h40.5v13.3h-57.5V693H2340.2z M2474.2,755.1v42.2h-17.1V693.2h36c11.8,0,20.9,2.9,27.3,8.8c6.4,5.8,9.6,13.3,9.6,22.3
	c0,7-2.1,13.3-6.4,18.9c-4.2,5.6-10.8,9.2-19.6,10.9l27.6,43.3h-20.8l-26.1-42.2H2474.2z M2474.2,706.5v35.2h18.9
	c6.5,0,11.3-1.6,14.5-4.6c3.2-3.1,4.8-7.4,4.8-13c0-5.5-1.6-9.9-4.8-13c-3.2-3.1-8-4.6-14.5-4.6H2474.2z"/>
</svg>
