<svg viewBox="0 0 1000 1000" xmlns="http://www.w3.org/2000/svg">
	<g fill-rule="nonzero" fill="none">
		<g>
			<g>
				<path fill="#929292" d="M370.4,396.5c-22.8,0-41.3,18.5-41.3,41.3c0,22.8,18.5,41.3,41.3,41.3c22.8,0,41.3-18.5,41.3-41.3
					C411.7,415,393.2,396.5,370.4,396.5z M357.1,445.3c-10.4,0-18.9-8.5-18.9-18.9c0-10.4,8.5-18.9,18.9-18.9
					c10.4,0,18.9,8.5,18.9,18.9C376,436.9,367.5,445.3,357.1,445.3z"/>
				<path fill="#929292" d="M625.6,396.5c-22.8,0-41.3,18.5-41.3,41.3c0,22.8,18.5,41.3,41.3,41.3c22.8,0,41.3-18.5,41.3-41.3
					C666.9,415,648.4,396.5,625.6,396.5z M612.3,445.3c-10.4,0-18.9-8.5-18.9-18.9c0-10.4,8.5-18.9,18.9-18.9
					c10.4,0,18.9,8.5,18.9,18.9C631.2,436.9,622.8,445.3,612.3,445.3z"/>
			</g>
			<path fill="#929292" d="M556.2,665.4c0-32.1-26-78.9-58.2-78.9c-32.1,0-58.2,46.7-58.2,78.9s26,33.4,58.2,33.4
				C530.1,698.8,556.2,697.5,556.2,665.4z"/>
			<g>
				<path fill="#929292" d="M933.7,420.3c-28.3-80.9-102.3-128.6-165.4-106.6c-10.9,3.8-21.5,10.3-30.3,17.5c-0.5-0.6-1-1.3-1.5-1.9
					c-11.5-14.8-23.9-28.8-36.9-41.7c-17.9-17.7-87.6-72.3-95.2-78.8c-26.1-22.7-96.1-79.9-112.6-165.8c-14,17.5-21.3,40-21.7,62.4
					c-0.4,23.9,5.4,47.6,16.3,68.6c-18.9-11.2-51.9-67.2-58.9-107.2c-23.9,34.8-16.7,108.3-6.5,128.8c-27.8-11.6-50.4-61.4-50.8-82.1
					c-14,17.5-30.5,75.9-4.9,119.6c-26.7,15.6-51.6,35.5-74.2,58.6c-11.9,12.2-23.1,25.3-33.7,39.1c-8.8-7.3-18.8-13.1-29.9-17
					c-63.1-22-137.2,25.7-165.4,106.6c-28.3,80.9,0,164.3,63.1,186.4c8.9,3.1,18,4.9,27.2,5.3c1-18.8,3.3-37.8,6.8-56.9
					c-5-0.4-9.9-1.4-14.8-3.1c-39.5-13.8-57.2-66-39.5-116.7c17.7-50.6,64-80.5,103.5-66.7c6.3,2.2,12,5.4,17.2,9.4
					c-0.4,0.6-0.8,1.2-1.1,1.9c-32.1,54.6-54.8,116.3-65.4,177.5c-3.4,19.1-5.5,38.2-6.4,57c-0.4,7.8-0.6,15.5-0.5,23.1
					c1.3,199.1,149,317.5,348.1,316.2c199.1-1.3,345.3-121.6,344-320.7c0-6.9-0.3-13.9-0.7-20.9c9-0.5,18-2.2,26.8-5.3
					C933.7,584.6,962,501.2,933.7,420.3z M500.2,909.6c-145.9,0.9-264.8-89.1-265.6-201.2c-0.4-59.1,32.3-112.6,84.6-150
					c-19-17.5-34.1-41.3-42.3-69.3c-20.8-71.6,11.5-144,72.1-161.6c60.6-17.6,126.7,10.6,147.5,82.2c0.2,0.6,0.3,1.3,0.5,1.9
					c0.2-0.6,0.3-1.3,0.5-1.9c19.9-71.9,85.4-100.9,146.2-84.1c60.9,16.8,94.1,88.8,74.2,160.7c-7.8,28.1-22.6,52.1-41.4,69.9
					c52.9,36.8,86.2,89.8,86.6,148.9C763.8,817,646.1,908.7,500.2,909.6z M851.4,551.9c-4.8,1.7-9.6,2.7-14.5,3.1
					c-0.1-0.7-0.3-1.4-0.4-2.2C825.2,492.5,802.2,432,770,378.3c5.1-3.8,11.4-7.7,17.4-9.8c39.5-13.8,85.9,16.1,103.5,66.7
					C908.6,485.8,891,538.1,851.4,551.9z"/>
				<path fill="#929292" d="M646.9,698.8c7.3,10.2,11.4,21.2,11.4,32.8c0,50.8-77.8,92.1-173.8,92.1c-59,0-111.2-15.6-142.6-39.4
					c24.9,34.7,88.2,59.3,162.4,59.3c96,0,173.8-41.2,173.8-92.1C678.1,731.8,666.6,713.7,646.9,698.8z"/>
			</g>
		</g>
		<g>
			<path fill="#c1bdbd" d="M694.3,555c-42.5,0-84.3-6.4-114.5-17.7c-44.3-16.5-70.1-61.6-69-120.7c-5.3-1.2-9.4-1.9-13.2-1.9
				c-3.7,0-7.8,0.7-12.4,1.6c0.9,59.4-24.9,104.5-69.3,121.1c-30.2,11.2-71.9,17.7-114.5,17.7c-35.9,0-69.3-4.6-94-13
				c-50.2-17.1-63.5-100.7-71.4-150.7l-1.3-7.9c-0.6-3.7-1.4-4.4-7.4-7.8c-6-3.5-15.1-8.7-19.5-20.5c-5.8-16-8.7-58.4,19-68.7
				c4.9-1.8,14.4-4.3,39.9-4.3c40.5,0,96.5,6,98.8,6.2v0c58.5,5.2,126.5,23.7,166.9,45.3l2.3,0.5c20.7,4,41.8,6.1,62.6,6.1
				c20.8,0,41.9-2,62.6-6.1c1.2-0.2,2.2-0.4,3.2-0.6c40.4-21.5,108.3-39.9,166.6-45.1v0c2.4-0.3,58.3-6.2,98.8-6.2
				c25.5,0,35,2.4,39.9,4.3c27.7,10.3,24.9,52.8,19,68.7c-4.3,11.8-13.4,17-19.5,20.5c-6,3.4-6.8,4.1-7.4,7.8l-1.3,7.9
				c-7.9,50-21.2,133.6-71.4,150.7C763.6,550.4,730.2,555,694.3,555z M730.3,353.7c-56.7,0-120.1,12.7-147.5,29.5
				c-10.8,6.6-18.1,16.5-18.7,25.2c-3.4,48.6,7.9,76.7,34.3,85.8c25.9,9,65.3,14.5,102.7,14.5c28.1,0,52.8-3.1,69.5-8.8
				c17.7-6,30.5-41.9,30.5-85.3c0-30.8-17-51.7-25.7-55.6C763.1,353.7,747.2,353.7,730.3,353.7z M265.7,353.7
				c-16.8,0-32.7,0-45.1,5.5c-8.7,3.8-25.7,24.7-25.7,55.6c0,43.4,12.8,79.3,30.5,85.3c16.7,5.7,41.4,8.8,69.5,8.8
				c37.4,0,76.8-5.6,102.7-14.5c26.4-9.1,37.6-37.2,34.3-85.8c-0.6-8.7-7.9-18.6-18.7-25.2C385.8,366.4,322.4,353.7,265.7,353.7z"/>
			<path fill="#929292" d="M863.2,301.5c-23.4-8.8-131.4,2.9-131.4,2.9l0,0c-62.1,5.5-128.1,25.3-162.8,44.4c-1.6,0.3-3.4,0.7-5.6,1.1
				c-43.6,8.5-87.6,8.5-131.3,0c-1.8-0.4-3.4-0.7-4.8-0.9c-34.7-19.1-100.9-39.1-163.1-44.6l0,0c0,0-107.9-11.6-131.4-2.9
				c-15.4,5.7-13.6,37-9.6,48.2c5.3,14.3,24.3,10.7,27.6,31.2c6.8,41.5,18.4,131.1,62,145.9c24,8.2,56,12.2,88.8,12.2
				c39,0,79.2-5.7,108.8-16.7h0c47.7-17.8,59.3-67.9,58.5-105.5c-0.2-8,5.5-14.8,13.3-16.3c5.1-1,10.2-1.9,15.4-1.9
				c5.3,0,10.6,1,15.9,2c7.8,1.5,13.5,8.4,13.3,16.3c-0.7,37.5,10.9,87.6,58.5,105.4h0c29.6,11,69.9,16.7,108.8,16.7
				c32.8,0,64.8-4,88.8-12.2c43.6-14.8,55.2-104.4,62-145.9c3.3-20.5,22.3-16.9,27.6-31.2C876.8,338.5,878.5,307.2,863.2,301.5z
				 M402.8,509.5c-48.8,16.9-136.3,21.5-182.7,5.7c-26.9-9.1-41.4-51.8-41.4-100.5c0-35.7,19.8-63.4,35.3-70.3
				c15.5-6.8,33.4-6.8,51.6-6.8c56.9,0,124,12.3,155.9,31.9c15.3,9.4,25.4,23.9,26.3,37.8C449.5,430,452.4,492.4,402.8,509.5z
				 M775.9,515.2c-46.4,15.8-133.8,11.2-182.7-5.7c-49.5-17.1-46.6-79.4-45.1-102.1c1-13.9,11-28.4,26.3-37.8
				c31.9-19.6,99-31.9,155.9-31.9c18.3,0,36.1,0,51.6,6.8c15.5,6.9,35.3,34.5,35.3,70.3C817.3,463.5,802.7,506.1,775.9,515.2z"/>
		</g>
	</g>
</svg>
