<svg viewBox="0 0 2761 991" xmlns="http://www.w3.org/2000/svg">
<path fill="currentColor" fill-rule="nonzero" d="M134,800c0-200,0-400,0-600c23.8,0,47.7,0,71.5,0c40.9,113.5,83,226.6,126.2,339.2c-2-51.3-4.1-102.6-6.1-153.9
	c0.1-61.7,0.3-123.6,0.4-185.3c27.4,0,54.7,0,82.1,0c-0.6,184.6-1.1,369.1-1.7,553.8c-21.5,3.2-43,6.5-64.5,9.9
	c-44.3-113.5-87.4-227.4-129.3-341.7c1.6,51,3.3,102.1,4.9,153.1c-0.1,69.8-0.2,139.7-0.2,209.5C189.6,789.6,161.8,794.7,134,800z
	 M548.3,734.4c0.7-178.1,1.4-356.2,2.1-534.4c67,0,134,0,200.9,0c-0.1,22.4-0.2,44.8-0.3,67.2c-36.6,0.5-73.1,1-109.7,1.5
	c-0.2,50.7-0.4,101.6-0.6,152.3c34.7-1.6,69.5-3.2,104.3-4.6c-0.1,21.9-0.2,43.9-0.3,65.8c-34.8,1.9-69.5,3.8-104.3,6
	c-0.2,55.5-0.5,111.1-0.7,166.6c37.9-3.7,75.9-7.1,113.8-10.2c-0.1,22.4-0.2,44.7-0.3,67.1C684.8,718.3,616.4,725.9,548.3,734.4z
	 M878.6,701.1c0.6-167,1.2-334,1.9-501c67,0,134,0,200.9,0c-0.1,21.4-0.1,42.8-0.2,64.1c-36.6,0.2-73.2,0.5-109.7,0.8
	c-0.2,47.9-0.3,96-0.5,143.9c34.8-0.9,69.6-1.7,104.4-2.4c-0.1,20.9-0.1,41.8-0.2,62.8c-34.8,0.9-69.6,1.9-104.4,3.1
	c-0.2,52.4-0.3,105-0.5,157.4c38-2,76.1-3.7,114.1-5.2c-0.1,21.4-0.1,42.7-0.2,64.1C1015.6,691.9,947.1,696,878.6,701.1z
	 M1240.7,683.7c0.2-140,0.3-279.9,0.5-419.9c-23.4,0.1-46.8,0.1-70.2,0.2c0-21.3,0.1-42.6,0.1-64c76.2,0,152.3,0,228.5,0
	c0,21.2,0,42.4,0,63.5c-22.5,0-45,0-67.5,0c-0.1,139.6-0.1,279.2-0.2,418.8C1301.6,682.6,1271.1,683.1,1240.7,683.7z M1502.5,683.4
	c-0.2-161.1-0.4-322.3-0.5-483.4c68.6,0,137.2,0,205.7,0c0.1,21.6,0.1,43.3,0.2,64.9c-38.2-0.2-76.3-0.5-114.5-0.6
	c0.1,43,0.2,86.2,0.2,129.2c35.5,0.5,71,1.1,106.4,1.7c0.1,21.7,0.1,43.4,0.2,65.1c-35.5-0.9-71-1.7-106.5-2.3
	c0.1,76,0.3,151.8,0.4,227.8C1563.7,684.8,1533.1,684,1502.5,683.4z M1827.5,697.5c-0.6-165.8-1.2-331.6-1.7-497.5
	c30.4,0,60.9,0,91.3,0c0.6,146.3,1.1,292.7,1.7,439c38.6,2.8,77.1,5.8,115.6,9.1c0.1,22.2,0.2,44.4,0.3,66.6
	C1965.5,708,1896.6,702.3,1827.5,697.5z M2142.7,726.6c-0.7-175.5-1.4-351-2.1-526.5c30.4,0,60.9,0,91.3,0
	c0.7,179.2,1.3,358.4,2,537.7C2203.5,733.9,2173.1,730.1,2142.7,726.6z M2543.6,785.5c-19.9-62.5-40.2-125-60.9-187.2
	c-16.1,56.2-32.4,112.5-48.8,168.6c-29.3-4.7-58.5-9.2-87.8-13.6c31-96.6,61.4-193.2,91.2-290.2c-30.1-88-61-175.6-92.6-263.1
	c25.7,0,51.3,0,77,0c20.3,56.8,40.3,113.8,59.9,170.8c16.1-56.9,32-113.9,47.7-170.8c28.5,0,57,0,85.5,0
	c-29.5,99.6-59.5,198.9-90.2,298c33.4,100.4,65.9,200.9,97.4,301.9C2595.8,795,2569.7,790.2,2543.6,785.5z"/>
</svg>
