<svg viewBox="0 0 2761 991" xmlns="http://www.w3.org/2000/svg">
<path fill="currentColor" fill-rule="nonzero" d="M278,385.7c0-8.6-1-15-3.1-19.1c-2-4.1-6.5-10-13.3-17.7l0.7-4.8c24.1-14.1,54.1-21.2,90.1-21.2c14.1,0,24.6,1.1,31.4,3.4
	c2.3,4.6,3.4,14,3.4,28.4s-10.9,65.7-32.8,154.2c10,4.1,21.4,6.1,34.1,6.1c21.8,0,39.8-7.5,53.9-22.5c14.1-15,23.3-31.4,27.6-48.9
	c4.3-17.5,6.5-36.1,6.5-55.7c0-36-9.7-62.1-29-78.2s-50.6-24.2-93.8-24.2c-56.4,0-103.3,11.4-140.7,34.2c-37.3,22.8-56,46.7-56,71.7
	c0,12.7,4.9,23.1,14.7,31.1c9.8,8,19.9,13.3,30.4,16c-1.8,16.4-7.5,33.3-17.1,50.6c-17.3-2.3-33.8-11.4-49.5-27.3
	c-15.7-15.9-23.5-36.9-23.5-62.9c0-46.5,25.9-83.8,77.8-112.1c51.9-28.3,112.4-42.4,181.6-42.4s121.6,11.5,157,34.6
	c35.5,23,53.2,58.7,53.2,107c0,63.3-25.2,111.2-75.7,143.6c-27.3,17.7-60,26.6-98.3,26.6c-24.1,0-44.8-3.6-62.1-10.9
	c-19.1,77.9-30.7,140.4-34.8,187.3c-26.8,7.7-56.6,11.6-89.4,11.6c-7.7,0-13.4-0.7-17.1-2c2.3-28.8,15.1-88.4,38.6-179.1
	C266.2,472,278,413,278,385.7z M734.6,479.3c0,19.1-6.1,52.1-18.4,98.8s-18.4,77.2-18.4,91.6s2,21.5,6.1,21.5
	c2.7,0,13.2-4.3,31.4-13l8.2-4.1l11.6,23.9c-4.1,3.6-9.6,8.2-16.4,13.6c-6.8,5.5-19.6,12.9-38.2,22.2c-18.7,9.3-35.9,14-51.9,14
	c-15.9,0-28.4-4.9-37.5-14.7s-13.6-23-13.6-39.7c0-16.6,5.7-46.3,17.1-88.9c11.4-42.6,17.1-70.3,17.1-83c0-19.1-5.9-37.2-17.7-54
	l-6.1-8.2l0.7-8.9c24.1-6.8,63.2-10.2,117.5-10.2C731.7,447.2,734.6,460.2,734.6,479.3z M656.7,365.5c-9.1-8.9-13.6-20.8-13.6-35.9
	c0-15,6.2-28.3,18.8-39.7c12.5-11.4,27-17.1,43.3-17.1c16.4,0,29.1,4.6,38.2,13.6c9.1,9.1,13.6,21,13.6,35.9
	c0,14.8-6.5,27.9-19.4,39.3c-13,11.4-27.4,17.1-43.3,17.1C678.3,378.8,665.8,374.3,656.7,365.5z M797.4,741.8h-13
	c0-21.4,6.5-62.4,19.4-123c13-60.6,19.4-95,19.4-103.2c0-15-6.4-31-19.1-47.9l-6.1-8.2l0.7-8.9c24.6-6.8,63.9-10.2,118.1-10.2
	c5.9,7.7,9.1,21.8,9.6,42.4c39.6-30.6,73-45.8,100.3-45.8c16.4,0,29.4,5.7,39.2,17.1c9.8,11.4,14.7,25.6,14.7,42.7
	c0,17.1-5.2,46.6-15.7,88.6c-10.5,42-15.7,70-15.7,84.5s1.8,21.5,5.5,21.5c2.7,0,12.3-4.3,28.7-13l8.2-4.1l12.3,23.9
	c-4.1,3.6-9.6,8.2-16.4,13.6c-6.8,5.5-19.4,12.9-37.9,22.2c-18.4,9.3-34.9,14-49.5,14c-33.2,0-49.8-18.9-49.8-56.7
	c0-15.9,5.1-45.4,15.4-88.2c10.2-42.9,15.4-70.4,15.4-82.7c0-12.3-3.9-18.4-11.6-18.4c-13.2,0-29.3,5.7-48.4,17.1
	c-1.4,7.7-5.9,28.3-13.6,61.5c-15.9,71.5-23.9,122.1-23.9,151.8C867.4,738.6,838.8,741.8,797.4,741.8z M1282.7,471.1
	c-18.2,0-32.8,15.1-43.7,45.5c-10.9,30.4-16.4,62.8-16.4,97.4c0,54.7,16.8,82,50.5,82c10.9,0,22.5-2.6,34.8-7.8
	c12.3-5.2,22.1-10.3,29.3-15.4l10.2-8.2l15.7,21.2c-3.6,5-10.9,11.6-21.8,19.8c-10.9,8.2-21.2,15-30.7,20.5
	c-9.6,5.5-21.8,10.5-36.8,15c-15,4.5-29.8,6.8-44.4,6.8c-35.5,0-62.1-11.6-79.8-34.9c-17.7-23.2-26.6-54.5-26.6-93.7
	c0-54.2,14.9-98.2,44.7-131.9s68.1-50.6,115-50.6c30.5,0,54.7,6.9,72.7,20.8c18,13.9,27,31,27,51.3c0,20.2-6.4,37.7-19.1,52.3
	c-11.4,0-24.6-2.5-39.6-7.5c-15-5-26.4-11.1-34.1-18.4l10.2-60.1C1295.7,472.5,1290,471.1,1282.7,471.1z M1492.3,747.9
	c-31.4,0-56-11-73.7-33.2c-17.7-22.1-26.6-53-26.6-92.7c0-50.6,13.5-94.1,40.6-130.5s64.5-54.7,112.2-54.7l24.6,1.4
	c7.7-4.1,16.4-6.1,25.9-6.1c35.9,0,53.9,34,53.9,101.9c18.6-0.9,37.5-3.4,56.6-7.5l10.9-2.7l4.1,26.6c-15,6.4-35.3,12.1-60.7,17.1
	l-13.6,2.7c-8.6,47.9-26.2,89.5-52.5,124.7C1567.6,730.3,1533.7,747.9,1492.3,747.9z M1529.2,689.2c19.1,0,36.3-12.3,51.5-36.9
	c15.2-24.6,25.8-50.6,31.7-77.9c-48.7,0-73-18.2-73-54.7c0-14.6,3-28.3,8.9-41l3.4-6.8c-1.8-0.9-4.1-1.4-6.8-1.4
	c-2.7,0-4.8,0.5-6.1,1.4c-11.4,7.3-22.1,24.3-32.1,51.3c-10,26.8-15,57.7-15,92.3C1491.6,664.6,1504.1,689.2,1529.2,689.2z
	 M1680.1,741.8h-4.8c-0.9-3.6-1.4-11.9-1.4-24.9c0-13,6.1-48,18.4-104.9c12.3-57,18.4-89.6,18.4-97.8c0-14.1-6.4-29.7-19.1-46.5
	l-6.1-8.2l0.7-8.9c24.6-6.8,63.9-10.2,118.1-10.2c5.5,11.8,8.2,28.5,8.2,49.9c5-8.2,15.5-19.1,31.4-32.9
	c15.9-13.6,32.3-20.5,49.1-20.5c24.6,0,36.8,21.4,36.8,64.2c-2.3,2.7-5.4,6.3-9.2,10.6c-3.9,4.3-11.6,10.4-23.2,18.1
	c-11.6,7.7-22.9,12.5-33.8,14.3c-0.5,0-4.3-6.1-11.6-18.4c-7.3-12.3-12.7-18.4-16.4-18.4c-11.4,4.1-21.4,10.9-30,20.5
	c-20.9,94.4-31.4,155.4-31.4,183.2c0,10,0.2,17.1,0.7,21.2C1759,738.6,1727.4,741.8,1680.1,741.8z M1912.2,621.5
	c0-57,17.2-102,51.5-135s73.4-49.6,117.1-49.6c26.8,0,48.9,6.6,66.2,19.8c17.3,13.2,25.9,30.9,25.9,53c0,22.1-5.6,40.7-16.7,55.7
	c-11.2,15-24.7,26.6-40.6,34.9c-32.3,15.9-61.9,25.9-88.7,30.1l-16.4,2c3.2,42.9,20.7,64.2,52.5,64.2c10.9,0,22.5-2.7,34.8-8.2
	c12.3-5.5,21.8-10.9,28.7-16.4l10.2-8.2l16.4,21.8c-3.6,5-10.9,11.6-21.8,19.8c-10.9,8.2-21.2,15-30.7,20.5
	c-26.4,14.6-55.3,21.8-86.7,21.8s-56.2-11.1-74.4-33.5C1921.2,692.1,1912.2,661.1,1912.2,621.5z M2065,569.6
	c13.6-15.5,20.5-35.6,20.5-60.1c0-24.6-7.3-36.9-21.8-36.9c-17.3,0-30.6,14.7-39.9,44.1c-9.3,29.4-14,56.9-14,82.3
	C2032.9,594.8,2051.3,585,2065,569.6z M2405,650.2c0,28.8-12.6,52.2-37.9,70.4c-25.2,18.2-54,27.3-86.3,27.3
	c-32.3,0-57.9-6.8-76.8-20.5c-18.9-13.6-28.3-25.7-28.3-36.3c0-6.4,8-16.7,23.9-31.1s29.3-23.1,40.3-26.3
	c22.7,16.8,41.4,43.5,56,79.9c16.8-1.4,25.2-9.3,25.2-23.9c0-20.9-18.4-50.7-55.3-89.2c-36.8-38.5-55.3-69.1-55.3-92
	c0-22.7,10.2-40.5,30.7-53c20.5-12.5,45.1-18.8,74-18.8c28.9,0,50.6,5.1,65.2,15.4c14.6,10.2,21.8,24.1,21.8,41.7
	c0,17.5-13.9,41.8-41.6,72.8c3.2,3.2,7.3,7.4,12.3,12.6c5,5.2,11.6,15.1,19.8,29.8C2400.9,623.8,2405,637.4,2405,650.2z
	 M2368.1,494.3c0-15.9-10.9-23.9-32.8-23.9c-10.5,0-19.1,2.2-25.9,6.5c-6.8,4.3-10.2,9.2-10.2,14.7c0,10,10,24.1,30,42.4l10.2,8.9
	C2358.6,526.5,2368.1,510.3,2368.1,494.3z M2650,445.2c-0.9,11.4-4.8,24.6-11.6,39.7c-17.3-1.8-33.7-2.7-49.1-2.7H2577
	c-20.9,101.6-31.4,165-31.4,190c0,13.2,2.8,19.8,8.5,19.8s20.8-5.7,45.4-17.1l12.3,22.5c-40.5,33.8-78,50.6-112.6,50.6
	c-15.9,0-29-5-39.2-15c-10.2-10-15.4-23.3-15.4-40s1.9-35.5,5.8-56.4c3.9-20.9,9.2-46.6,16-76.9c6.8-30.3,11.8-54.8,15-73.5
	c-16.8,1.4-29.3,2.7-37.5,4.1c-0.9-5.5-1.4-12.8-1.4-22.2c0-9.3,0.7-16.9,2-22.9h43c3.6-24.6,5.5-47.9,5.5-69.7l-0.7-21.2v-2
	c35.5-12.3,68.9-18.4,100.3-18.4c1.8,9.1,2.7,20.5,2.7,34.2c0,13.6-3.9,39.5-11.6,77.2h66.3V445.2z"/>
</svg>
