<svg viewBox="0 0 2761 991" xmlns="http://www.w3.org/2000/svg">
<path fill="currentColor" fill-rule="nonzero" d="M641.9,669.9v143.4h-89.8V444.5h145.5c42.7,0,76,11,99.8,33.1c23.8,22.1,35.7,48.7,35.7,79.8c0,21.4-6.5,42.2-19.4,62.5
	c-13,20.3-34.1,34.7-63.6,43.1l90.4,150.2H735.4l-83-143.4H641.9z M641.9,512.8v88.8h55.7c13.7,0,24.4-4,32.3-12.1
	c7.9-8.1,11.8-18.7,11.8-31.8c0-13.1-4-23.9-12.1-32.3c-8.1-8.4-18.7-12.6-32-12.6H641.9z M1121,443.5v68.3H987.6v79.3h117.7v68.3
	H987.6V745H1121v68.3H897.8V443.5H1121z M1167.8,512.8v-68.3h291v68.3h-100.9v300.5h-89.8V512.8H1167.8z M1596.9,669.9v143.4h-89.8
	V444.5h145.5c42.7,0,76,11,99.8,33.1c23.8,22.1,35.7,48.7,35.7,79.8c0,21.4-6.5,42.2-19.4,62.5c-13,20.3-34.1,34.7-63.6,43.1
	l90.4,150.2h-105l-83-143.4H1596.9z M1596.9,512.8v88.8h55.7c13.7,0,24.4-4,32.3-12.1c7.9-8.1,11.8-18.7,11.8-31.8
	c0-13.1-4-23.9-12.1-32.3c-8.1-8.4-18.7-12.6-32.1-12.6H1596.9z M1886.1,763.4c-36.6-35.7-54.9-80.9-54.9-135.5
	s18.3-99.7,54.9-135.3c36.6-35.5,81.4-53.3,134.5-53.3c53.1,0,97.7,17.8,134,53.3c36.3,35.5,54.4,80.6,54.4,135.3
	s-18.2,99.8-54.6,135.5c-36.4,35.7-81.1,53.6-134,53.6C1967.4,817,1922.7,799.1,1886.1,763.4z M2091,705.1
	c17.7-19.3,26.5-45,26.5-77.2c0-32.2-8.8-58-26.5-77.2c-17.7-19.2-41.3-28.9-70.9-28.9c-29.6,0-53.2,9.6-70.9,28.9
	c-17.7,19.3-26.5,45-26.5,77.2c0,32.2,8.8,58,26.5,77.2c17.7,19.3,41.3,28.9,70.9,28.9C2049.6,734,2073.3,724.3,2091,705.1z
	 M1094.5,213v-38.4h163.7V213h-56.7v169h-50.5V213H1094.5z M1415.9,174.6h50.5V382h-50.5v-86h-80.1v86h-50.5V174.6h50.5v83h80.1
	V174.6z M1633.4,174v38.4h-75v44.6h66.2v38.4h-66.2v48.2h75V382h-125.5V174H1633.4z"/>
</svg>
