<svg viewBox="0 0 501 60" fill="none" xmlns="http://www.w3.org/2000/svg">
<path fill="currentColor" d="M0.4,0.5h59v12.8H36.3v46.2H23.5V13.3H0.4V0.5z M127.5,0.5v12.8H85.8v10.3h33.5v12.8H85.8v10.3h41.7v12.8H72.9v-59H127.5z
	 M201.7,12.7V28c0,3.3-1.2,6.2-3.6,8.6c-2.4,2.4-5.3,3.6-8.6,3.6H189l12.8,15.1v4.3h-13.1l-16.3-19.4l-16.9,0.1
	c0.2,0,0.2,0.2,0.2,0.5c-0.1,0-0.2,0-0.2-0.1v18.9h-12.7v-59h46.8c3.3,0,6.2,1.2,8.6,3.6C200.5,6.5,201.7,9.4,201.7,12.7z
	 M155.4,13.3v14h33.5v-14H155.4z M229.6,0.5h34.8c3.3,0,6.2,1.2,8.6,3.6s3.6,5.2,3.6,8.6v34.8c0,3.3-1.2,6.2-3.6,8.6
	s-5.2,3.6-8.6,3.6h-34.8c-3.4,0-6.3-1.2-8.6-3.5c-2.4-2.3-3.5-5.2-3.5-8.6V12.6c0-3.4,1.2-6.3,3.5-8.6
	C223.4,1.7,226.2,0.5,229.6,0.5z M230.2,13.3v33.5h33.5V13.3H230.2z M305.1,0.5h34.7c3.4,0,6.3,1.2,8.7,3.6c2.4,2.4,3.6,5.2,3.6,8.6
	v46.9h-12.9v-19h-33.5v19h-12.7V12.6c0-3.4,1.2-6.3,3.5-8.6C298.8,1.7,301.7,0.5,305.1,0.5z M305.6,27.7h33.5V13.3h-33.5V27.7z
	 M427.4,13.3h-46.2v33.5h46.2v12.8h-46.7c-3.4,0-6.3-1.2-8.6-3.5c-2.4-2.3-3.5-5.2-3.5-8.6V12.6c0-3.4,1.2-6.3,3.5-8.6
	c2.3-2.3,5.2-3.5,8.6-3.5h46.7V13.3z M486.9,0.5h13.3v4.4L479.1,30l21.1,25.1v4.4h-13.3l-19.4-23.1H456v23.1h-12.8v-59H456v23.1
	h11.6l7.4-8.8L486.9,0.5z"/>
</svg>
