<svg xmlns="http://www.w3.org/2000/svg" width="26" height="26" viewBox="0 0 26 26" fill="none">
  <path d="M10.5 7.54234C11.0523 7.54234 11.5 7.09463 11.5 6.54234C11.5 5.99006 11.0523 5.54234 10.5 5.54234L10.5 6.54234L10.5 7.54234ZM4.97597 5.54236C4.42369 5.54236 3.97597 5.99007 3.97598 6.54236C3.97598 7.09464 4.42369 7.54236 4.97598 7.54236L4.97598 6.54236L4.97597 5.54236ZM5.85183 18.018L4.85689 18.1184C4.90847 18.6292 5.33845 19.018 5.85183 19.018L5.85183 18.018ZM19.5054 18.0179V17.0179V17.0179V18.0179ZM4.53129 4.94226L5.52623 4.84178L5.52465 4.8261L5.52257 4.81048L4.53129 4.94226ZM1 0.999952C0.447715 0.999952 0 1.44767 0 1.99995C0 2.55224 0.447715 2.99995 1 2.99995V1.99995V0.999952ZM20.296 4.05081C20.296 3.49853 19.8483 3.05081 19.296 3.05081C18.7437 3.05081 18.296 3.49853 18.296 4.05081H19.296H20.296ZM19.296 6.13556H18.296C18.296 6.68785 18.7437 7.13556 19.296 7.13556V6.13556ZM20.7902 7.13556C21.3425 7.13556 21.7902 6.68785 21.7902 6.13556C21.7902 5.58328 21.3425 5.13556 20.7902 5.13556V6.13556V7.13556ZM23.5136 14.5C23.5136 13.9477 23.0659 13.5 22.5136 13.5C21.9613 13.5 21.5136 13.9477 21.5136 14.5H22.5136H23.5136ZM22.074 16.6523L21.2425 16.0968L22.074 16.6523ZM10.5 6.54234L10.5 5.54234L4.97597 5.54236L4.97598 6.54236L4.97598 7.54236L10.5 7.54234L10.5 6.54234ZM5.85183 18.018L5.85183 19.018L19.5054 19.0179V18.0179V17.0179L5.85182 17.018L5.85183 18.018ZM19.5054 18.0179V19.0179C20.9061 19.0179 22.1665 18.314 22.9055 17.2078L22.074 16.6523L21.2425 16.0968C20.8683 16.6568 20.2269 17.0179 19.5054 17.0179V18.0179ZM11.3133 23.0169H10.3133C10.3133 23.5475 9.87385 24 9.3039 24V25V26C10.9535 26 12.3133 24.6768 12.3133 23.0169H11.3133ZM9.3039 25V24C8.73395 24 8.29451 23.5475 8.29451 23.0169H7.29451H6.29451C6.29451 24.6768 7.65434 26 9.3039 26V25ZM7.29451 23.0169H8.29451C8.29451 22.4864 8.73395 22.0339 9.3039 22.0339V21.0339V20.0339C7.65434 20.0339 6.29451 21.3571 6.29451 23.0169H7.29451ZM9.3039 21.0339V22.0339C9.87385 22.0339 10.3133 22.4864 10.3133 23.0169H11.3133H12.3133C12.3133 21.3571 10.9535 20.0339 9.3039 20.0339V21.0339ZM21.5148 23.0169H20.5148C20.5148 23.5475 20.0754 24 19.5054 24V25V26C21.155 26 22.5148 24.6768 22.5148 23.0169H21.5148ZM19.5054 25V24C18.9355 24 18.496 23.5475 18.496 23.0169H17.496H16.496C16.496 24.6768 17.8559 26 19.5054 26V25ZM17.496 23.0169H18.496C18.496 22.4864 18.9355 22.0339 19.5054 22.0339V21.0339V20.0339C17.8559 20.0339 16.496 21.3571 16.496 23.0169H17.496ZM19.5054 21.0339V22.0339C20.0754 22.0339 20.5148 22.4864 20.5148 23.0169H21.5148H22.5148C22.5148 21.3571 21.155 20.0339 19.5054 20.0339V21.0339ZM5.85183 18.018L6.84676 17.9175L5.52623 4.84178L4.53129 4.94226L3.53635 5.04274L4.85689 18.1184L5.85183 18.018ZM4.53129 4.94226L5.52257 4.81048C5.3607 3.59285 5.0022 2.54435 4.14899 1.84974C3.31431 1.17021 2.20975 0.999952 1 0.999952V1.99995V2.99995C2.09544 2.99995 2.60659 3.17302 2.88629 3.40074C3.14747 3.61337 3.40202 4.03602 3.54001 5.07404L4.53129 4.94226ZM14.0924 6.1356H15.0924C15.0924 3.86397 16.962 2 19.2962 2V1V0C15.8824 0 13.0924 2.73459 13.0924 6.1356H14.0924ZM19.2962 1V2C21.6303 2 23.5 3.86397 23.5 6.1356H24.5H25.5C25.5 2.73459 22.7099 0 19.2962 0V1ZM24.5 6.1356H23.5C23.5 8.40724 21.6303 10.2712 19.2962 10.2712V11.2712V12.2712C22.7099 12.2712 25.5 9.53662 25.5 6.1356H24.5ZM19.2962 11.2712V10.2712C16.962 10.2712 15.0924 8.40724 15.0924 6.1356H14.0924H13.0924C13.0924 9.53662 15.8824 12.2712 19.2962 12.2712V11.2712ZM19.296 4.05081H18.296V6.13556H19.296H20.296V4.05081H19.296ZM19.296 6.13556V7.13556H20.7902V6.13556V5.13556H19.296V6.13556ZM22.074 16.6523L22.9055 17.2078C23.5126 16.2991 23.5136 15.2102 23.5136 14.5H22.5136H21.5136C21.5136 15.2843 21.4657 15.7628 21.2425 16.0968L22.074 16.6523Z" fill="#1D293D"/>
</svg>