<svg width="14" height="14" viewBox="0 0 14 14" fill="none" xmlns="http://www.w3.org/2000/svg">
<g clip-path="url(#clip0_5115_8389)">
<path d="M0.5 2.48541C1.4552 2.48541 2.26462 3.18872 2.39795 4.13457L3.02529 8.58473C3.14441 9.42974 3.86692 10.0585 4.72029 10.0597L11.0639 10.069C11.9083 10.0702 12.6279 9.45636 12.7597 8.62229L13.5 3.93779H2.4957M4.83349 3.93779V1.4245H7.85543M7.85543 3.93779V0.5H11.3905V3.93779M6.34448 12.4456C6.34448 13.0279 5.8786 13.5 5.30392 13.5C4.72923 13.5 4.26335 13.0279 4.26335 12.4456C4.26335 11.8632 4.72923 11.3911 5.30392 11.3911C5.8786 11.3911 6.34448 11.8632 6.34448 12.4456ZM11.4473 12.4456C11.4473 13.0279 10.9814 13.5 10.4067 13.5C9.83204 13.5 9.36617 13.0279 9.36617 12.4456C9.36617 11.8632 9.83204 11.3911 10.4067 11.3911C10.9814 11.3911 11.4473 11.8632 11.4473 12.4456Z" stroke="#1D293D" stroke-miterlimit="10" stroke-linecap="round" stroke-linejoin="round"/>
</g>
<defs>
<clipPath id="clip0_5115_8389">
<rect width="14" height="14" fill="white"/>
</clipPath>
</defs>
</svg>
