<svg width="14" height="14" viewBox="0 0 14 14" fill="none" xmlns="http://www.w3.org/2000/svg">
<path d="M8.06961 5.18433C7.83772 4.84471 7.25451 4.59233 6.49233 4.82828C5.79249 5.04493 5.47885 6.19584 6.39168 6.63816C6.53494 6.70756 6.90193 6.85574 7.45572 7.05689C8.69515 7.50711 8.7359 9.17993 7.2649 9.31197C6.77474 9.35595 6.0758 9.22056 5.70389 8.74607M6.98012 9.36479V9.75459M6.98012 4.24533V4.70874M13.4168 9.23205V3.82224C13.4168 2.83884 12.6864 2.04163 11.7855 2.04163H2.21485C1.31388 2.04163 0.583496 2.83884 0.583496 3.82224V10.1777C0.583496 11.1611 1.31388 11.9583 2.21485 11.9583H11.7855C12.6864 11.9583 13.4168 11.1611 13.4168 10.1777V9.23205Z" stroke="#1D293D" stroke-miterlimit="10" stroke-linecap="round" stroke-linejoin="round"/>
</svg>
