<svg width="35" height="24" viewBox="0 0 35 24" fill="none" xmlns="http://www.w3.org/2000/svg">
<rect width="35" height="24" rx="5" fill="#F1F5F9"/>
<path d="M27.4976 14.3192H27.5151L28.9741 10.6561H30.0005L26.8462 17.9999H25.8735L27.0454 15.4315L24.9771 10.6561H26.0024L27.4976 14.3192ZM22.562 10.4891C23.2594 10.4892 23.81 10.68 24.2144 11.0546C24.6188 11.4292 24.8188 11.9521 24.8188 12.6122V15.7577H23.9155V15.0507H23.8745C23.4819 15.6332 22.9663 15.9246 22.3159 15.9247C21.7649 15.9247 21.2955 15.7577 20.9263 15.4247C20.5631 15.1155 20.358 14.6581 20.3696 14.1766C20.3696 13.6475 20.5688 13.2311 20.9614 12.9159C21.3541 12.6007 21.8821 12.4462 22.5386 12.4462C23.101 12.4462 23.5581 12.5527 23.9214 12.7548V12.535C23.9214 12.208 23.7809 11.8985 23.5347 11.6844C23.2827 11.4586 22.9604 11.3339 22.6265 11.3339C22.0989 11.3339 21.6822 11.5596 21.3774 12.0116L20.5454 11.4823C20.9909 10.8223 21.6652 10.4891 22.562 10.4891ZM18.0894 8.30066C18.6931 8.28878 19.2796 8.52094 19.7075 8.9491C20.5631 9.75786 20.6159 11.1199 19.813 11.994L19.7075 12.1005C19.2679 12.5227 18.7282 12.7372 18.0894 12.7372H16.5298V15.7577H15.5864V8.30066H18.0894ZM22.6851 13.2186C22.3043 13.2186 21.982 13.3138 21.7241 13.4979C21.472 13.6823 21.3423 13.9147 21.3423 14.1942C21.3423 14.4439 21.4604 14.6755 21.6538 14.8182C21.8648 14.9847 22.1225 15.0742 22.3862 15.0682C22.7849 15.0682 23.1664 14.9074 23.4478 14.6219C23.7582 14.3247 23.9165 13.9734 23.9165 13.5692C23.6234 13.3314 23.2126 13.2127 22.6851 13.2186ZM16.5298 11.8212H18.1128C18.4645 11.8331 18.805 11.6902 19.0454 11.4344C19.5375 10.9172 19.5258 10.0853 19.0161 9.58582C18.7758 9.34794 18.4528 9.21667 18.1128 9.21667H16.5298V11.8212Z" fill="#3C4043"/>
<path d="M13.272 12.083C13.272 11.7916 13.2486 11.5002 13.2017 11.2148H9.22168V12.862H11.5018C11.408 13.3913 11.1032 13.867 10.6578 14.1644V15.2348H12.0176C12.8148 14.4914 13.272 13.3913 13.272 12.083Z" fill="#4285F4"/>
<path d="M9.22211 16.2695C10.3592 16.2695 11.3205 15.8889 12.0181 15.2348L10.6582 14.1643C10.2772 14.426 9.79068 14.5747 9.22211 14.5747C8.12013 14.5747 7.18815 13.8194 6.85404 12.8085H5.45312V13.9146C6.16824 15.3596 7.62776 16.2695 9.22211 16.2695Z" fill="#34A853"/>
<path d="M6.85401 12.8085C6.67814 12.2793 6.67814 11.7024 6.85401 11.1672V10.0671H5.45288C4.84904 11.2743 4.84904 12.7015 5.45288 13.9087L6.85401 12.8085Z" fill="#FBBC04"/>
<path d="M9.22211 9.40102C9.82585 9.38913 10.4061 9.62105 10.8399 10.0433L12.0474 8.81824C11.2795 8.09273 10.2713 7.6943 9.22211 7.70619C7.62776 7.70619 6.16824 8.62199 5.45312 10.0671L6.85404 11.1732C7.18815 10.1563 8.12013 9.40102 9.22211 9.40102Z" fill="#EA4335"/>
</svg>
