<svg xmlns="http://www.w3.org/2000/svg" width="23" height="23" viewBox="0 0 23 23" fill="none">
  <path d="M3.13672 0.0498047H13.5908C14.4094 0.0498047 15.1946 0.375296 15.7734 0.954102C16.3522 1.53289 16.6777 2.31823 16.6777 3.13672V3.21973C16.6777 3.7695 16.2314 4.21582 15.6816 4.21582C15.1319 4.21573 14.6865 3.76944 14.6865 3.21973V3.13672C14.6865 2.84619 14.5707 2.56677 14.3652 2.36133C14.1598 2.15611 13.8812 2.04102 13.5908 2.04102H3.13672C2.84619 2.04102 2.56677 2.15589 2.36133 2.36133C2.15589 2.56677 2.04102 2.84619 2.04102 3.13672V14.6865H9.40918C9.95885 14.6866 10.4042 15.132 10.4043 15.6816C10.4043 16.2314 9.95891 16.6777 9.40918 16.6777H2.04102V19.8633C2.04102 20.1538 2.15589 20.4332 2.36133 20.6387C2.56677 20.8441 2.84619 20.959 3.13672 20.959H13.5908C14.1404 20.959 14.5857 21.4045 14.5859 21.9541C14.5859 22.5039 14.1406 22.9502 13.5908 22.9502H3.13672C2.31816 22.9502 1.53291 22.6247 0.954102 22.0459C0.375296 21.4671 0.0498047 20.6818 0.0498047 19.8633V3.13672C0.0498047 2.31816 0.375296 1.53291 0.954102 0.954102C1.53291 0.375296 2.31816 0.0498047 3.13672 0.0498047ZM18.3467 7.58984C17.5735 7.26961 16.7222 7.18634 15.9014 7.34961C15.0807 7.51292 14.3271 7.91613 13.7354 8.50781C13.1435 9.09964 12.7404 9.85391 12.5771 10.6748C12.414 11.4955 12.4972 12.3461 12.8174 13.1191C13.1377 13.8923 13.6801 14.5536 14.376 15.0186C15.0719 15.4836 15.8906 15.7314 16.7275 15.7314C17.8498 15.7314 18.9262 15.2857 19.7197 14.4922C20.5133 13.6986 20.959 12.6223 20.959 11.5C20.959 10.6632 20.7109 9.84524 20.2461 9.14941C19.7811 8.4535 19.1199 7.91014 18.3467 7.58984ZM15.7314 17.6367L15.4033 17.5742C13.9801 17.2644 12.7071 16.4633 11.8105 15.3076C10.8544 14.075 10.396 12.5282 10.5264 10.9736C10.6568 9.4189 11.3663 7.96922 12.5146 6.91309C13.6631 5.85694 15.1673 5.27051 16.7275 5.27051C18.2877 5.27058 19.791 5.85702 20.9395 6.91309C22.0879 7.96924 22.7973 9.41881 22.9277 10.9736C23.0581 12.5283 22.5999 14.0749 21.6436 15.3076C20.6872 16.5403 19.303 17.3688 17.7646 17.6289L17.7227 17.6367V21.9541C17.7227 22.5038 17.2772 22.95 16.7275 22.9502C16.1778 22.9502 15.7314 22.5039 15.7314 21.9541V17.6367Z" fill="#1D293D" stroke="#F1F5F9" stroke-width="0.1"/>
</svg>