<svg xmlns="http://www.w3.org/2000/svg" width="23" height="26" viewBox="0 0 23 26" fill="none">
  <path fill-rule="evenodd" clip-rule="evenodd" d="M13.8903 8.87327C13.1428 6.49683 9.85044 6.49683 9.10295 8.87327C8.99639 9.21207 8.70274 9.41477 8.40031 9.41477C5.90779 9.41477 5.00598 12.6219 6.91145 14.052C7.17403 14.249 7.29724 14.614 7.18932 14.9571C6.8231 16.1215 7.29282 17.2106 8.09414 17.812C8.89961 18.4165 10.0828 18.5543 11.0719 17.812C11.3272 17.6204 11.6662 17.6204 11.9214 17.812C12.9105 18.5543 14.0936 18.4165 14.8991 17.812C15.7004 17.2106 16.1702 16.1215 15.8039 14.9571C15.696 14.614 15.8193 14.249 16.0818 14.052C17.9874 12.6219 17.0855 9.41477 14.5929 9.41477C14.2905 9.41477 13.9969 9.21207 13.8903 8.87327ZM10.794 9.40517C11.0211 8.68317 11.9721 8.68317 12.1993 9.40517C12.5285 10.452 13.485 11.1875 14.5929 11.1875C14.9358 11.1875 15.1915 11.3983 15.2956 11.729C15.4002 12.0617 15.3148 12.4113 15.0177 12.6341C14.1392 13.2935 13.7849 14.4465 14.1129 15.4891C14.234 15.874 14.0891 16.2035 13.835 16.3942C13.5851 16.5818 13.2721 16.6093 12.9855 16.3942C12.0998 15.7293 10.8935 15.7293 10.0078 16.3942C9.72108 16.6093 9.40815 16.5818 9.15824 16.3942C8.90419 16.2035 8.7593 15.874 8.88037 15.4891C9.2083 14.4465 8.85405 13.2935 7.97556 12.6341C7.67852 12.4113 7.59304 12.0617 7.69768 11.729C7.80169 11.3983 8.05752 11.1875 8.40031 11.1875C9.50833 11.1875 10.4647 10.452 10.794 9.40517Z" fill="#1D293D"/>
  <path fill-rule="evenodd" clip-rule="evenodd" d="M8.6159 0C6.79378 0 5.31666 1.47712 5.31666 3.29925C5.31666 4.14231 4.63321 4.82575 3.79014 4.82575H3.42512C1.56251 4.82575 -0.0966651 6.26686 0.00438863 8.26857C0.124372 10.6452 0.652234 14.3494 2.57759 17.8582C3.11686 18.8409 3.83704 19.8063 4.61558 20.7058L4.6742 20.7735C5.79417 22.0676 6.72798 23.1466 7.73191 23.8821C8.81172 24.6732 9.9642 25.0672 11.4962 25.0672C13.0282 25.0672 14.1807 24.6732 15.2605 23.8821C16.2643 23.1466 17.1982 22.0676 18.3182 20.7735L18.3768 20.7058C19.1553 19.8063 19.8755 18.8409 20.4148 17.8582C22.4041 14.2328 22.9003 10.1361 22.9981 7.58208C23.0743 5.58999 21.427 4.13636 19.5541 4.13636H18.8575C18.2049 4.13636 17.6757 3.60724 17.6757 2.95455C17.6757 1.3228 16.353 0 14.7211 0H8.6159ZM7.08938 3.29925C7.08938 2.45617 7.77283 1.77273 8.6159 1.77273H14.7211C15.3738 1.77273 15.9029 2.30185 15.9029 2.95455C15.9029 4.58629 17.2258 5.90909 18.8575 5.90909H19.5541C20.5439 5.90909 21.2599 6.64548 21.2267 7.51422C21.1332 9.95437 20.6574 13.7311 18.8607 17.0054C18.401 17.8431 17.7645 18.7044 17.0364 19.5456C15.8427 20.9249 15.0366 21.8486 14.2128 22.4521C13.4476 23.0127 12.6648 23.2945 11.4962 23.2945C10.3276 23.2945 9.54484 23.0127 8.77955 22.4521C7.95585 21.8486 7.14974 20.9249 5.95596 19.5456C5.22787 18.7044 4.59137 17.8431 4.13172 17.0054C2.38442 13.8211 1.88767 10.4137 1.77487 8.17919C1.73194 7.32903 2.43223 6.59848 3.42512 6.59848H3.79014C5.61227 6.59848 7.08938 5.12136 7.08938 3.29925Z" fill="#1D293D"/>
</svg>